<svg id="Layer_1" data-name="Layer 1" xmlns="http://www.w3.org/2000/svg" viewBox="0 0 1444.3 2149.25"><defs><style>.cls-1{fill:#1f2640;}.cls-2{fill:#2c3450;}.cls-3{fill:#636f93;}.cls-4{fill:#131831;}.cls-5{fill:#b2b4cd;}.cls-6{fill:#530500;}.cls-7{fill:#9e0d0d;}.cls-8{fill:#c2241e;}.cls-9{fill:#ed5151;}.cls-10{fill:#fff;}.cls-11{fill:#4a5d6d;}.cls-12{fill:#1278cc;}.cls-13{fill:#8cf;}.cls-14{fill:#3e9cf3;}.cls-15{fill:none;stroke:#1278cc;stroke-miterlimit:10;}.cls-16{fill:#173485;}.cls-17{fill:#bdbdbd;}.cls-18{fill:#262323;}.cls-19{fill:#fdf0e6;}.cls-20{fill:#0078fd;}.cls-21{fill:#ee9337;}.cls-22{fill:#8f9193;}.cls-23{fill:#59595b;}.cls-24{fill:#545456;}.cls-25{fill:#a59988;}.cls-26{fill:#252221;}.cls-27{fill:#1c1c1c;}.cls-28{fill:#f6f6f6;}.cls-29{fill:#efefef;}</style></defs><title>2</title><path class="cls-1" d="M672.48,1951.71c-.39,5.47-74.15,80.6-98.8,88s-91.17,3.52-108.68-17.41c-9.1-10.87-11-23.75-6-35.76,4.56-11.11,15-21.48,31-28.81,33.26-15.26,50.17-60.45,50.17-60.45s45.53,12.41,88.25,1.52a100.49,100.49,0,0,0,35.52-16.4S672.88,1946.23,672.48,1951.71Z"/><path class="cls-2" d="M631,1923.06c-.33,4.65-62.87,68.34-83.77,74.65-18.68,5.63-65.68,3.58-86.07-9.59-.77-.5-1.5-1-2.19-1.54,4.56-11.11,15-21.48,31-28.81,33.26-15.26,50.17-60.45,50.17-60.45s5.73,1.56,15,3.09c16.92,2.78,45.65,5.46,73.22-1.57C629.87,1910.51,631.13,1921.12,631,1923.06Z"/><path class="cls-3" d="M555.14,1900.41a143.11,143.11,0,0,1-3,15.43c-3.65,11.47-21,43.82-47.08,52.56s-36.94,22.3-36.94,22.3-2.75-1-6.92-2.58c-.77-.5-1.5-1-2.19-1.54,4.56-11.11,15-21.48,31-28.81,33.26-15.26,50.17-60.45,50.17-60.45S545.84,1898.88,555.14,1900.41Z"/><path class="cls-4" d="M542.13,2053.24a224,224,0,0,1-26.68-1.63c-19.81-2.41-46-8.33-58.13-22.86-9.49-11.34-13-25-10-38.58,3.87-17.17,17.52-31.9,38.41-41.49,29.17-13.39,44.82-54.46,45-54.87l3.2-8.54,8.8,2.4c.71.19,72,19,115.16-13.24l13.52-10.09,2.36,16.71c3.42,24.21,9.09,65.68,8.68,71.37-.25,3.48-1.09,6.36-14.78,21.11-8,8.58-18.39,19-28.63,28.73-20,18.9-47.06,42.41-62.48,47.06C568,2051.9,555.71,2053.24,542.13,2053.24ZM546,1908.93c-6.89,14.67-24,45.14-51.87,57.93-14.88,6.83-24.81,16.93-27.24,27.71-1.68,7.43.33,14.81,5.8,21.35,13.48,16.11,74.79,21.29,98.13,14.25,6.51-2,23.49-13.43,51.65-39.75,20.53-19.18,35.7-35.71,39.94-41.22-.58-7.12-3.27-28.12-6.29-50.14C615.81,1920,565.76,1912.94,546,1908.93Z"/><path class="cls-1" d="M797,1951.71c.39,5.47,74.15,80.6,98.8,88s91.17,3.52,108.68-17.41c9.1-10.87,11-23.75,6-35.76-4.56-11.11-15-21.48-31-28.81-33.26-15.26-50.17-60.45-50.17-60.45s-45.53,12.41-88.25,1.52a100.49,100.49,0,0,1-35.52-16.4S796.62,1946.23,797,1951.71Z"/><path class="cls-2" d="M838.51,1923.06c.33,4.65,62.87,68.34,83.77,74.65,18.68,5.63,65.68,3.58,86.07-9.59.77-.5,1.5-1,2.19-1.54-4.56-11.11-15-21.48-31-28.81-33.26-15.26-50.17-60.45-50.17-60.45s-5.73,1.56-15,3.09c-16.92,2.78-45.65,5.46-73.22-1.57C839.63,1910.51,838.37,1921.12,838.51,1923.06Z"/><path class="cls-3" d="M914.36,1900.41a143.11,143.11,0,0,0,3,15.43c3.65,11.47,21,43.82,47.08,52.56s36.94,22.3,36.94,22.3,2.75-1,6.92-2.58c.77-.5,1.5-1,2.19-1.54-4.56-11.11-15-21.48-31-28.81-33.26-15.26-50.17-60.45-50.17-60.45S923.66,1898.88,914.36,1900.41Z"/><path class="cls-4" d="M892.94,2049.32c-15.43-4.65-42.49-28.16-62.48-47.06-10.23-9.68-20.67-20.15-28.63-28.73-13.68-14.75-14.53-17.63-14.78-21.11-.41-5.69,5.26-47.16,8.68-71.37l2.36-16.71,13.52,10.09c43.19,32.21,114.45,13.43,115.16,13.24l8.8-2.4,3.2,8.54c.15.41,15.8,41.48,45,54.87,20.9,9.59,34.54,24.32,38.41,41.49,3.06,13.54-.48,27.24-10,38.58-12.15,14.52-38.31,20.44-58.13,22.86a223.83,223.83,0,0,1-26.68,1.63C913.79,2053.24,901.48,2051.9,892.94,2049.32Zm-79.53-150.26c-3,22-5.7,43-6.29,50.14,4.24,5.51,19.42,22,39.94,41.22,28.16,26.31,45.14,37.79,51.65,39.75,23.34,7,84.65,1.86,98.13-14.25,5.47-6.54,7.48-13.92,5.8-21.35-2.43-10.79-12.36-20.89-27.24-27.71-27.88-12.79-45-43.26-51.87-57.93C903.74,1912.94,853.69,1920,813.41,1899.06Z"/><path class="cls-5" d="M671.74,1183.83l-39,36.85-12.36-13.09,43.6-41.16-.56-1.24H603.68c9.25,36.43,28,89.16,65,134.76l21.63-74.74Zm3.76,61.45a1.6,1.6,0,0,1-3,.34c-4.33-8.17-14.48-28-14.22-34.69a1.49,1.49,0,0,1,.35-.87l5.86-7.32a3.65,3.65,0,0,1,6.19.8l9.71,21.91a1.55,1.55,0,0,1,.08,1.06Z"/><path class="cls-5" d="M806.1,1165.18l-.56,1.24,43.6,41.16-12.36,13.09-39-36.85-18.53,41.38,21.64,74.74c36.95-45.6,55.7-98.33,65-134.76ZM797,1245.62a1.6,1.6,0,0,1-3-.34l-5-18.77a1.67,1.67,0,0,1,.08-1.06l9.71-21.91a3.65,3.65,0,0,1,6.19-.8l5.86,7.32a1.55,1.55,0,0,1,.35.87C811.44,1217.57,801.3,1237.45,797,1245.62Z"/><path class="cls-6" d="M797.75,1183.82l-13.86-13.09-19.43,43.39a147.17,147.17,0,0,0-59.42,0l-19.44-43.39-13.86,13.09,18.53,41.37-21.63,74.74-1.86,6.43,68,69.56,68-69.56-1.86-6.43-21.64-74.74ZM782.51,1301.3l-47.76,48.88L687,1301.3l20-69.2a129.66,129.66,0,0,1,55.46,0Z"/><path class="cls-6" d="M663.39,1165.18l.56,1.25,1.32-1.25Z"/><path class="cls-6" d="M805.55,1166.43l.55-1.25h-1.87Z"/><path class="cls-7" d="M734.75,1229.1a140.63,140.63,0,0,0-27.73,3l-20,69.2,47.77,48.88,47.76-48.88-20-69.2A140.63,140.63,0,0,0,734.75,1229.1Zm31,61.23a43.38,43.38,0,0,1-62.06,0,11.66,11.66,0,0,1-2.86-11.4l11.09-38.3a11.64,11.64,0,0,1,9.58-8.31,92.6,92.6,0,0,1,26.46,0,11.65,11.65,0,0,1,9.58,8.31l11.09,38.3A11.72,11.72,0,0,1,765.78,1290.33Z"/><path class="cls-7" d="M767.21,1165.18a10.9,10.9,0,0,1,2.57,12.5l-7.94,17.74a10.93,10.93,0,0,1-11.42,6.37,118.23,118.23,0,0,0-15.68-1.09,120,120,0,0,0-15.68,1.09,10.93,10.93,0,0,1-11.42-6.37l-7.95-17.74a10.93,10.93,0,0,1,2.57-12.5H691.47l-5.89,5.56L705,1214.13a147.17,147.17,0,0,1,59.42,0l19.43-43.39-5.88-5.55H767.21Z"/><path class="cls-8" d="M748,1232.32a92.6,92.6,0,0,0-26.46,0,11.65,11.65,0,0,0-9.58,8.31l-11.09,38.3a11.66,11.66,0,0,0,2.86,11.4,43.38,43.38,0,0,0,62.06,0,11.66,11.66,0,0,0,2.86-11.4l-11.09-38.3A11.58,11.58,0,0,0,748,1232.32ZM741.05,1245h-12.6a5.09,5.09,0,0,1,0-10.18h12.61a5.09,5.09,0,1,1,0,10.18Z"/><path class="cls-8" d="M699.71,1177.68l7.95,17.74a10.93,10.93,0,0,0,11.42,6.37,118.23,118.23,0,0,1,15.68-1.09,120,120,0,0,1,15.68,1.09,10.93,10.93,0,0,0,11.42-6.37l7.94-17.74a10.93,10.93,0,0,0-2.57-12.5H702.29A10.89,10.89,0,0,0,699.71,1177.68Z"/><path class="cls-9" d="M741.05,1234.84h-12.6a5.09,5.09,0,1,0,0,10.18h12.61a5.09,5.09,0,1,0,0-10.18Z"/><path class="cls-10" d="M680.41,1225.45l-9.71-21.91a3.65,3.65,0,0,0-6.19-.8l-5.86,7.32a1.55,1.55,0,0,0-.35.87c-.26,6.64,9.89,26.52,14.22,34.69a1.6,1.6,0,0,0,3-.34l5-18.77A1.49,1.49,0,0,0,680.41,1225.45Z"/><path class="cls-11" d="M778,1165.18l5.88,5.56,13.86,13.08,39,36.85,12.36-13.08-43.6-41.16-1.32-1.25Z"/><path class="cls-11" d="M665.27,1165.18l-1.32,1.25-43.6,41.16,12.36,13.08,39-36.84,13.86-13.09,5.89-5.56Z"/><path class="cls-10" d="M805,1202.74a3.65,3.65,0,0,0-6.19.8l-9.71,21.91a1.55,1.55,0,0,0-.08,1.06l5,18.77a1.6,1.6,0,0,0,3,.34c4.33-8.17,14.48-28,14.22-34.69a1.49,1.49,0,0,0-.35-.87Z"/><path class="cls-12" d="M840.07,1693.18h-.62c-37.34-.08-72.54-7.55-104.7-22.22-32.16,14.66-67.36,22.14-104.7,22.22-31,0-63.52-4.94-96.66-14.88a422,422,0,0,1-69-27.62,559.62,559.62,0,0,0,7.22,73.15c7.63,46.33,24.8,113.51,63.31,172.75,16.13,2.73,77.92,11.43,127-5.22,6-14.88,26.35-67.73,33.89-110.81-28.21-11.4-42.16-31.93-42.16-31.93s35,19.35,81,19.35,81-19.35,81-19.35-14,20.53-42.16,31.93c7.54,43.08,27.94,95.93,33.89,110.81,49.12,16.66,110.9,8,127,5.22,38.51-59.24,55.68-126.42,63.31-172.75a559.62,559.62,0,0,0,7.22-73.15,421.59,421.59,0,0,1-69,27.62C903.19,1688.18,870.88,1693.18,840.07,1693.18Z"/><path class="cls-12" d="M622.39,1271.62c-30.69-6.76-51.74-21-62.57-42.3-15.27-30-7.66-68.07-1.35-89.06,5.89,33.33,24,106.76,71.88,129.79A74.54,74.54,0,0,1,622.39,1271.62Z"/><path class="cls-13" d="M657.33,1280.16c-30.88-36.91-59.91-86.89-67.24-149l2.15-8.36a769.48,769.48,0,0,0,28.69,83.53Q638,1247.92,657.33,1280.16Z"/><path class="cls-12" d="M731.81,1363.35q-2.56,5.3-5.26,11.24c-72.68-19.78-105.52-47.21-120.31-67.17-10-13.47-13.14-25.08-14.08-32.15a150.17,150.17,0,0,0,17.77-1.49c6.73,9,44.11,56.32,102.49,75.16A180.61,180.61,0,0,0,729.06,1362,10,10,0,0,0,731.81,1363.35Z"/><path class="cls-13" d="M879.42,1131.18c-7.34,62.13-36.41,112.15-67.32,149.06q19.35-32.23,36.47-73.89a768,768,0,0,0,28.69-83.54Z"/><path class="cls-12" d="M909.68,1229.32c-10.83,21.31-31.87,35.54-62.56,42.3h0a74.54,74.54,0,0,1-8-1.57c47.86-23,66-96.46,71.88-129.79C917.34,1161.25,925,1199.27,909.68,1229.32Z"/><path class="cls-14" d="M720.47,1655.38c-66.24,27.82-134.35,17.78-180.78,3.93a397.84,397.84,0,0,1-84.62-36.53c6.25-18,21.12-65,29.77-128.16,6.42-46.84,8-92.76,4.77-136.51q-1.74-23.43-5.35-46a492.8,492.8,0,0,0-22.35-88.17q-2.39-6.7-5-13.29a436.34,436.34,0,0,1,79.89-67.49h0c-6.38,24.87-11.27,62.81,5.11,95.14A89.41,89.41,0,0,0,570.2,1271a12.55,12.55,0,0,0,1.64,1c.77,20.73,14.41,84.37,146.8,121.15a450.76,450.76,0,0,0-15.21,44.54c-10.7,37.89-15.24,74.56-13.49,109C691.94,1586.09,702.2,1622.6,720.47,1655.38Z"/><path class="cls-14" d="M984.66,1494.62c-6.42-46.84-8-92.76-4.77-136.51a548.69,548.69,0,0,1,7.43-58.17,483.78,483.78,0,0,1,25.24-89.31,436.49,436.49,0,0,0-79.9-67.5c6.39,24.87,11.28,62.82-5.1,95.16A89.41,89.41,0,0,1,899.3,1271a13.44,13.44,0,0,1-1.65,1c-.66,16.38-9.4,59.73-78.58,95.3-67.83,34.87-92,68.62-100.33,90.9-17.79,74-10.06,139.18,23,194,68.5,31.77,139.93,21.51,188.06,7.15a397.84,397.84,0,0,0,84.62-36.53C1008.18,1604.82,993.31,1557.76,984.66,1494.62Zm-229.52,97a20.61,20.61,0,1,1,20.61-20.6A20.6,20.6,0,0,1,755.14,1591.57Z"/><path class="cls-14" d="M839.15,1270.05a74.54,74.54,0,0,0,8,1.57h0s5.22,1.15,12.49,2.15l-.38.51-.42.55c-.34.45-.75,1-1.23,1.6-8.2,10.46-32.17,38.45-68.21,58.42a106,106,0,0,0-45.23,49.61c-.66,1.47-1.32,3-2,4.51a109.31,109.31,0,0,1-17.36,8.34c2.42-4.22,42.6-57.58,43.45-58.93q23.13-23.52,43.89-58.14h0c30.91-36.91,60-86.93,67.32-149.06l-2.16-8.37c.89-3.19,1.67-6,2.33-8.54,9.41,4.09,18.46,8.58,27.12,13.31,1,2.7,2.64,7.09,4.32,12.68C905.14,1173.59,887,1247,839.15,1270.05Z"/><path class="cls-14" d="M503.57,1754.9c4.27,21.75,13.1,53.9,30.26,74.56a24.94,24.94,0,0,0,44.06-15.15c1-27.64.85-77.78-11.88-86.57-9.52-6.58-27.82-5-42.75-2.07A24.92,24.92,0,0,0,503.57,1754.9Z"/><path class="cls-14" d="M965.93,1754.9c-4.27,21.75-13.1,53.9-30.26,74.56a24.94,24.94,0,0,1-44.06-15.15c-1-27.64-.85-77.78,11.88-86.57,9.52-6.58,27.82-5,42.75-2.07A24.92,24.92,0,0,1,965.93,1754.9Z"/><path class="cls-14" d="M734.75,1729.72c-21.42,0-38.78-.67-38.78,8.52s17.36,16.64,38.78,16.64,38.78-7.45,38.78-16.64S756.17,1729.72,734.75,1729.72Z"/><path class="cls-12" d="M877.31,1275.27a62.06,62.06,0,0,1-5.36,17.67c-6.88,14.8-23.22,36.63-62,56.58q-43.86,22.55-71.34,47.8,1.77-4.29,3.53-8.34c.67-1.53,1.33-3,2-4.51a106,106,0,0,1,45.23-49.61c36-20,60-48,68.21-58.42.48-.61.89-1.15,1.23-1.6l.42-.55.38-.51A149.46,149.46,0,0,0,877.31,1275.27Z"/><path class="cls-14" d="M712.42,1348.94c-58.38-18.84-95.76-66.12-102.49-75.16,7.27-1,12.49-2.15,12.49-2.15h0a74.54,74.54,0,0,0,8-1.57c-47.86-23-66-96.46-71.88-129.79,1.68-5.59,3.28-10,4.32-12.68,8.66-4.73,17.71-9.22,27.12-13.31.66,2.5,1.44,5.36,2.33,8.55l-2.15,8.36c7.33,62.09,36.36,112.07,67.24,149Q683,1323,712.42,1348.94Z"/><path class="cls-15" d="M622.39,1271.62h0s-5.22,1.14-12.49,2.15c-.73-1-1.1-1.51-1.1-1.51A62.77,62.77,0,0,0,622.39,1271.62Z"/><path class="cls-15" d="M812.09,1280.25q-20.73,34.59-43.89,58.14c-.85,1.35-2.63,4.24-5.05,8.46a164.1,164.1,0,0,1-23.16,6.62c2.38,1.51,3.71,2.28,3.71,2.28-3-.34-6-.78-9-1.29-2.94.51-5.92,1-9,1.29,0,0,1.33-.77,3.71-2.28a161.46,161.46,0,0,1-17.09-4.53q-29.32-25.82-55.09-68.78a379.56,379.56,0,0,0,77.42,69.89A379.49,379.49,0,0,0,812.09,1280.25Z"/><path class="cls-15" d="M860.67,1272.27s-.37.53-1.1,1.51c-7.27-1-12.49-2.15-12.49-2.15h0A62.68,62.68,0,0,0,860.67,1272.27Z"/><path class="cls-12" d="M757.16,1598a23.48,23.48,0,1,0-23.48-23.48A23.48,23.48,0,0,0,757.16,1598Z"/><path class="cls-12" d="M689.94,1546.68c2,39.41,12.26,75.92,30.53,108.7-66.24,27.82-134.35,17.78-180.78,3.93a397.84,397.84,0,0,1-84.62-36.53c6.25-18,21.12-65,29.77-128.16,6.42-46.84,8-92.76,4.77-136.51q-1.74-23.43-5.35-46c43.2,135.57,8.84,294.88,8.84,294.88,80.22,45.39,179.61,19.17,179.61,19.17C643,1534.57,700.39,1400,700.39,1400c-132.75-29-139.6-119.73-139.6-119.73-64.77-52-24.66-135.63-24-137.09-6.38,24.87-11.27,62.81,5.11,95.14A89.41,89.41,0,0,0,570.2,1271a12.55,12.55,0,0,0,1.64,1c.77,20.73,14.41,84.37,146.8,121.15a450.76,450.76,0,0,0-15.21,44.54C692.73,1475.58,688.19,1512.25,689.94,1546.68Z"/><path class="cls-12" d="M1014.43,1622.78a397.84,397.84,0,0,1-84.62,36.53c-48.13,14.36-119.56,24.62-188.06-7.15-33.07-54.77-40.8-119.94-23-194,8.32-22.28,32.5-56,100.33-90.9,69.18-35.57,77.92-78.92,78.58-95.3a13.44,13.44,0,0,0,1.65-1,89.41,89.41,0,0,0,28.26-32.71c16.38-32.34,11.49-70.29,5.1-95.16,40,99.64-27.13,137-27.13,137-7.82,117.16-154.56,95.77-176.08,186.33C704.38,1572,764.27,1623,764.27,1623c93.13,29.35,211.31-19.17,211.31-19.17-29.74-179.6,11.74-303.9,11.74-303.9a548.69,548.69,0,0,0-7.43,58.17c-3.26,43.75-1.65,89.67,4.77,136.51C993.31,1557.76,1008.18,1604.82,1014.43,1622.78Z"/><path class="cls-13" d="M536.83,1143.14h0s-47,40.51-74.92,80.77q-2.39-6.7-5-13.29A436.34,436.34,0,0,1,536.83,1143.14Z"/><path class="cls-13" d="M932.66,1143.13h0s47,40.51,74.92,80.77q2.38-6.71,5-13.29A436.34,436.34,0,0,0,932.66,1143.13Z"/><path class="cls-16" d="M1035.94,1623.43c-.21-.54-21-54.55-31.54-132.07-9.69-71.15-12.53-177.3,29-279a10,10,0,0,0-1.59-10.2c-2.54-3-63.36-74.9-155.47-110.9a10,10,0,0,0-13.38,7.07c-.41,1.8-41.51,176.79-128.21,243.05-86.7-66.26-127.8-241.25-128.21-243.05a10,10,0,0,0-13.38-7.07c-92.11,36-152.92,107.86-155.47,110.9a10,10,0,0,0-1.59,10.2c41.53,101.66,38.69,207.81,29,279-10.56,77.51-31.33,131.53-31.54,132.06a10,10,0,0,0,3.81,12c.37.25,2.76,1.8,6.87,4.24a552.74,552.74,0,0,0,7.6,86.95c8.08,49.33,26.58,121.41,68.81,184.62a10,10,0,0,0,6.32,4.24,355.25,355.25,0,0,0,64.91,5.92c25.5,0,54.9-2.9,81.2-12.74a10,10,0,0,0,5.73-5.52c1.16-2.78,26.87-64.8,36.39-116.94a108.25,108.25,0,0,0,39.1,0c9.52,52.13,35.23,114.16,36.39,116.94a10,10,0,0,0,5.73,5.52c26.31,9.84,55.71,12.74,81.2,12.74a355.38,355.38,0,0,0,64.91-5.92,10,10,0,0,0,6.32-4.24c42.23-63.21,60.73-135.29,68.81-184.62a552.74,552.74,0,0,0,7.6-86.95c4.11-2.44,6.5-4,6.87-4.24A10,10,0,0,0,1035.94,1623.43Zm-267.74-285c29.79-30.29,56.73-74.51,80.37-132a765.77,765.77,0,0,0,31-92.08c9.42,4.09,18.46,8.58,27.12,13.31,5,12.86,22.3,63.69,3,101.74-10.83,21.32-31.89,35.56-62.6,42.32a177.43,177.43,0,0,0,30.23,3.63A61.8,61.8,0,0,1,872,1293c-6.88,14.8-23.23,36.63-62,56.58q-43.86,22.55-71.34,47.8C751.86,1365,765.32,1343,768.2,1338.39ZM562.79,1127.58c8.66-4.73,17.71-9.22,27.12-13.31a761.53,761.53,0,0,0,31,92.08c30.77,74.91,67.15,127.28,108.13,155.66a9.93,9.93,0,0,0,2.76,1.34q-2.57,5.3-5.26,11.24c-72.68-19.78-105.52-47.21-120.31-67.17-10-13.47-13.14-25.08-14.08-32.15a176.7,176.7,0,0,0,30.26-3.63c-30.71-6.76-51.78-21-62.6-42.32C540.49,1191.27,557.83,1140.44,562.79,1127.58Zm-77.95,367c6.42-46.83,8-92.76,4.77-136.51-3.91-52.6-14.9-102.18-32.67-147.47a436.41,436.41,0,0,1,79.9-67.51c-6.39,24.87-11.28,62.82,5.1,95.16A89.48,89.48,0,0,0,570.19,1271a15.55,15.55,0,0,0,1.64,1c.78,20.72,14.41,84.36,146.81,121.15a444.75,444.75,0,0,0-15.21,44.54c-10.7,37.89-15.24,74.56-13.49,109,2,39.41,12.26,75.91,30.54,108.69-66.25,27.82-134.36,17.78-180.79,3.93a397.84,397.84,0,0,1-84.62-36.53C461.32,1604.82,476.19,1557.76,484.84,1494.62Zm513,229.22c-7.63,46.33-24.8,113.51-63.31,172.75-16.13,2.73-77.92,11.43-127-5.22-6-14.88-26.35-67.73-33.89-110.81,28.21-11.4,42.16-31.93,42.16-31.93s-35,19.35-81,19.35-81-19.35-81-19.35,14,20.53,42.16,31.93c-7.54,43.08-27.94,95.93-33.89,110.81-49.12,16.66-110.9,8-127,5.22-38.51-59.24-55.68-126.42-63.31-172.75a559.62,559.62,0,0,1-7.22-73.15,421.59,421.59,0,0,0,69,27.62c33.13,9.94,65.65,14.91,96.66,14.88,37.34-.08,72.54-7.55,104.7-22.22,32.16,14.66,67.36,22.14,104.7,22.22h.62c30.81,0,63.13-5,96-14.88a422,422,0,0,0,69-27.62A567.61,567.61,0,0,1,997.85,1723.84Zm-68-64.53c-48.13,14.35-119.56,24.62-188.06-7.15-33.07-54.78-40.8-120-23-194,8.32-22.27,32.49-56,100.33-90.9,69.18-35.56,77.92-78.91,78.58-95.29a14.94,14.94,0,0,0,1.66-1,89.47,89.47,0,0,0,28.25-32.71c16.38-32.34,11.49-70.29,5.1-95.16a435.64,435.64,0,0,1,79.9,67.51c-17.77,45.29-28.76,94.87-32.67,147.47-3.25,43.75-1.65,89.67,4.77,136.51,8.65,63.14,23.52,110.2,29.77,128.17A398.49,398.49,0,0,1,929.81,1659.31Z"/><path class="cls-16" d="M755.14,1591.58A20.61,20.61,0,1,0,734.53,1571,20.61,20.61,0,0,0,755.14,1591.58Z"/><path class="cls-11" d="M367.11,1245.21c-6.34-6.17-22.83-25.49-23.1-40.66-.08-4.67.17-9.43.44-14.46,1-18.27,2.09-39-15.51-53.82-15-12.66-28.89-16.24-44.65-10.39-3.25-13.93-11-27.78-20.18-44.24-1.72-3.09-3.51-6.29-5.34-9.62-3.38-6.14-4.82-19.62-6.2-32.65-2.78-26.11-5.93-55.71-28.2-58.55a45.48,45.48,0,0,0-35.91,10.4c-10,8.41-22.24,25.68-23.79,60.21-.92,20.46,3.75,41.09,9.56,58.27l-3.12-2.09-4.41-3c-7.69-5.2-15.18-14.11-22.42-22.73-9.19-11-17.88-21.3-27.9-25.17-9.7-3.74-24.3-3.3-35,6.12-9.06,8-18.12,24.63-9.8,58.92,10.33,42.59,43,59.7,60.29,65.92-14.84,35.74-3.33,61,5.45,73.38,12.71,18,33.74,29.39,53.25,29.59,8.19,11.32,33.29,39.9,77.73,39.9a108.76,108.76,0,0,0,10.93-.56,9,9,0,0,0,4.88-2.07l82.57-69.39a9,9,0,0,0,.48-13.34Zm-171.7,27.16c-12.33,1.82-31.75-5.17-43.45-21.7-12.4-17.5-12.23-40.39.45-64.47.05-.1.09-.21.14-.31,18.09-.36,28.78-7.6,28.78-7.6-28-.29-52-11.13-52.5-11.37-14.21-7.06-33-21.42-39.81-49.38-4.84-19.93-3.35-34.54,4.19-41.15,5.05-4.44,12.19-4.59,16.69-2.85,5.7,2.19,13.27,11.22,20.6,19.94,8,9.57,16.35,19.46,26.12,26.07l4.45,3c15.15,10.18,24.42,16.41,31.46,28.21.28.48.47.79.54.92a9,9,0,0,0,15.52-9.12l-.42-.72c-3.19-5.55-27.34-49-25.52-89.6,1.26-28,10.16-41.16,17.4-47.25a27.87,27.87,0,0,1,22-6.31c8.16,1,10.82,26.05,12.58,42.6,1.65,15.48,3.2,30.1,8.32,39.41q2.79,5.05,5.41,9.73c10.12,18.11,17.72,31.74,19.24,44.57a147.24,147.24,0,0,0-13.37,10.77c-10,9-20.35,14.89-29.48,20.12-8.53,4.89-15.9,9.11-20.82,14.7-6.5,7.39-7.85,16.16-4,26.08a27.72,27.72,0,0,0,3.18,5.81,46.67,46.67,0,0,0-10.67-1.89s-9.3-10.86-28.37-5.48c0,0,19.47,7.32,27.78,23.47.12,0,12,.72,17.24,8.28,3.75,5.4,3.78,13.72.09,24.73C207.17,1267.7,202.52,1271.33,195.41,1272.37Zm79.25,40c-33.36,2.38-54.45-14.75-64.54-26a32.81,32.81,0,0,0,16.16-19c4.9-14.61,4.9-26.93,0-36.69,6.4,2.91,13.53,5.83,21.1,5.68,39.73-.81,49.51-40.07,49.51-40.07-11.27,18.21-35.6,23.61-47.86,22.14-17.14-2-30.17-12.71-32.31-18.23-2.37-6.09-1.24-8.19,17-18.65,9.4-5.39,21.1-12.09,32.52-22.32,28-25.07,38-20.18,51.07-9.14,10.23,8.63,10.14,20.48,9.14,39.1-.28,5.12-.56,10.42-.47,15.73.32,18.12,13.36,36.18,21.8,46Z"/><path class="cls-17" d="M267.64,1135a147.24,147.24,0,0,0-13.37,10.77c-8.93,8-18.1,13.56-26.45,18.38l-3,1.74c-8.53,4.89-15.9,9.11-20.82,14.7-6.5,7.39-7.85,16.16-4,26.08a27,27,0,0,0,2.3,4.5c.28.43.57.87.88,1.31a46.67,46.67,0,0,0-10.67-1.89s-9.3-10.86-28.37-5.48a63.4,63.4,0,0,1,21,14h0a40.67,40.67,0,0,1,6.82,9.42c.12,0,12,.72,17.24,8.28,3.75,5.4,3.78,13.72.09,24.73-2.05,6.12-6.7,9.75-13.81,10.79-12.33,1.82-31.75-5.17-43.45-21.7-11.85-16.72-12.22-38.37-1.16-61.27.51-1.06,1-2.13,1.61-3.2.05-.1.09-.21.14-.31a64.85,64.85,0,0,0,19.35-3.28,42.38,42.38,0,0,0,9.43-4.32c-28-.29-52-11.13-52.5-11.37-14.21-7.06-33-21.42-39.81-49.38-4.62-19-3.47-33.21,3.22-40.21a12.32,12.32,0,0,1,1-.94c5.05-4.44,12.19-4.59,16.69-2.85,5.7,2.19,13.27,11.22,20.6,19.94,8,9.57,16.35,19.46,26.12,26.07l4.45,3c15.15,10.18,24.42,16.41,31.46,28.21.28.48.47.79.54.92a9,9,0,0,0,15.52-9.12l-.42-.72c-3.19-5.55-27.34-49-25.52-89.6,1.26-28,10.16-41.16,17.4-47.25a27.87,27.87,0,0,1,22-6.31c8.16,1,10.82,26.05,12.58,42.6,1.65,15.48,3.2,30.1,8.32,39.41q2.79,5.05,5.41,9.73C258.52,1108.53,266.12,1122.16,267.64,1135Z"/><path class="cls-17" d="M347.81,1250.86l-73.15,61.47c-33.36,2.38-54.45-14.75-64.54-26a32.81,32.81,0,0,0,16.16-19c4.9-14.61,4.9-26.93,0-36.69,6.4,2.91,13.53,5.83,21.1,5.68a56.77,56.77,0,0,0,6.83-.54c31.05-4.42,41-33.68,42.47-38.77.14-.49.21-.76.21-.76a40,40,0,0,1-3.11,4.33c-.38.46-.79.92-1.21,1.4-12.34,13.62-32.68,17.71-43.54,16.41-17.14-2-30.17-12.71-32.31-18.23-2.25-5.79-1.34-8,14.44-17.17.81-.48,1.67-1,2.56-1.48,9.4-5.39,21.1-12.09,32.52-22.32,28-25.07,38-20.18,51.07-9.14,10.23,8.63,10.14,20.48,9.14,39.1-.28,5.12-.56,10.42-.47,15.73.21,11.72,5.74,23.42,11.9,32.87A126.05,126.05,0,0,0,347.81,1250.86Z"/><path class="cls-10" d="M203.15,1212.47a46.67,46.67,0,0,0-10.67-1.89s-9.3-10.86-28.37-5.48a63.4,63.4,0,0,1,21,14h0c-3.08,13.38-17.15,9.16-27.32-3.49-6.14-7.64-7.13-18.7-6.95-26.26.51-1.06,1-2.13,1.61-3.2.05-.1.09-.21.14-.31a64.85,64.85,0,0,0,19.35-3.28c5.79,13.18,20.3,23,30.37,28.55C202.55,1211.59,202.84,1212,203.15,1212.47Z"/><path class="cls-10" d="M267.64,1135a147.24,147.24,0,0,0-13.37,10.77c-8.93,8-18.1,13.56-26.45,18.38-8.82-7.7-22.16,9.07-77.37-12.91-39.68-15.8-53.52-53.36-58.21-73.9a12.32,12.32,0,0,1,1-.94c5.05-4.44,12.19-4.59,16.69-2.85,5.7,2.19,13.27,11.22,20.6,19.94,8,9.57,16.35,19.46,26.12,26.07l4.45,3c15.15,10.18,24.42,16.41,31.46,28.21.28.48.47.79.54.92a9,9,0,0,0,15.52-9.12l-.42-.72c-3.19-5.55-27.34-49-25.52-89.6,1.26-28,10.16-41.16,17.4-47.25a27.87,27.87,0,0,1,22-6.31c8.16,1,10.82,26.05,12.58,42.6,1.65,15.48,3.2,30.1,8.32,39.41q2.79,5.05,5.41,9.73C258.52,1108.53,266.12,1122.16,267.64,1135Z"/><path class="cls-10" d="M337.91,1237.73c-43.88,24.74-71.94,8.35-83.67-2,31.05-4.42,41-33.68,42.47-38.77,2.12-2.77,3.21-4.53,3.21-4.53-47.58,18.25-63.53,4.27-68.73-9.49.81-.48,1.67-1,2.56-1.48,9.4-5.39,21.1-12.09,32.52-22.32,28-25.07,38-20.18,51.07-9.14,10.23,8.63,10.14,20.48,9.14,39.1-.28,5.12-.56,10.42-.47,15.73C326.22,1216.58,331.75,1228.28,337.91,1237.73Z"/><path class="cls-14" d="M473.18,1444.73q-4,23.73-9.82,50.58s-58.41,36-125.22-30.78-93.91-140.35-93.91-140.35a359.61,359.61,0,0,0,56.36-30.91c20.83-14,42.55-32.33,55.72-53.74l72.38,47s6.9-47.18,29.88-70.31C458.57,1216.25,503.65,1264,473.18,1444.73Z"/><path class="cls-12" d="M473.18,1444.73q-4,23.73-9.82,50.58s-58.41,36-125.22-30.78-93.91-140.35-93.91-140.35a359.61,359.61,0,0,0,56.36-30.91c4.57-.43,7.15-.65,7.15-.65S358.23,1486.82,473.18,1444.73Z"/><path class="cls-13" d="M466.47,1217.56s5.49,5.74-4.88,20.61-29.35,47-30.13,57.52,11.82,55.73,11.82,55.73-47.1-65.84-101.1-88L364,1242.28l53.85,45.65,35.22-66,3.89-11.29Z"/><path class="cls-16" d="M476.27,1473.65c-26.36,19.1-52.16,24.64-78.89,16.94-71.66-20.64-125.87-130.54-140.64-163.36,41.74-18.29,85.09-60,99.91-75,64.78,34.55,86.42,98.57,86.64,99.23,0,0,9.31-35.28-14.6-64.85,5.88-18.3,19.33-40.28,29.14-56.08a15.74,15.74,0,0,0,1.37-13.8l-2.26-6,0-18.17c-1.27,1.7-28.31,38.1-43.44,77.21a199.88,199.88,0,0,0-54.56-38.75,10,10,0,0,0-11.65,2.19c-.58.62-58.63,62.39-106.86,79.08a10.33,10.33,0,0,0-3.89,2.31,10,10,0,0,0-2.35,11,539,539,0,0,0,42.77,81.21c36.6,57,75.25,91.73,114.88,103.16a102.59,102.59,0,0,0,28.48,4.11c19.49,0,38.8-5.81,57.74-17.4C481.37,1494.47,476.27,1473.65,476.27,1473.65Z"/><path class="cls-11" d="M1099.67,1252a9,9,0,0,0,3.2,6.56l82.57,69.39a9,9,0,0,0,4.88,2.07,108.76,108.76,0,0,0,10.93.56c44.44,0,69.54-28.58,77.73-39.9,19.51-.2,40.54-11.64,53.25-29.59,8.78-12.39,20.29-37.64,5.45-73.38,17.32-6.22,50-23.33,60.29-65.92,8.32-34.29-.74-51-9.8-58.92-10.75-9.42-25.35-9.86-35.05-6.12-10,3.87-18.71,14.21-27.9,25.17-7.24,8.62-14.73,17.53-22.42,22.73l-4.41,3-3.12,2.09c5.81-17.18,10.48-37.81,9.56-58.27-1.55-34.53-13.79-51.8-23.79-60.21a45.48,45.48,0,0,0-35.91-10.4c-22.27,2.84-25.42,32.44-28.2,58.55-1.38,13-2.82,26.51-6.2,32.65-1.83,3.33-3.62,6.53-5.34,9.62-9.2,16.46-16.93,30.31-20.18,44.24-15.76-5.85-29.65-2.27-44.65,10.39-17.6,14.84-16.49,35.55-15.51,53.82.27,5,.52,9.79.44,14.46-.27,15.17-16.76,34.49-23.1,40.66A9,9,0,0,0,1099.67,1252Zm160.61,9.59c-3.69-11-3.66-19.33.09-24.73,5.25-7.56,17.12-8.28,17.24-8.28,8.31-16.15,27.78-23.47,27.78-23.47-19.07-5.38-28.37,5.48-28.37,5.48a46.67,46.67,0,0,0-10.67,1.89,27.72,27.72,0,0,0,3.18-5.81c3.85-9.92,2.5-18.69-4-26.08-4.92-5.59-12.29-9.81-20.82-14.7-9.13-5.23-19.46-11.16-29.48-20.12a147.24,147.24,0,0,0-13.37-10.77c1.52-12.83,9.12-26.46,19.24-44.57q2.63-4.68,5.41-9.73c5.12-9.31,6.67-23.93,8.32-39.41,1.76-16.55,4.42-41.56,12.58-42.6a27.87,27.87,0,0,1,22,6.31c7.24,6.09,16.14,19.23,17.4,47.25,1.82,40.59-22.33,84-25.52,89.6l-.42.72a9,9,0,0,0,15.52,9.12c.07-.13.26-.44.54-.92,7-11.8,16.31-18,31.46-28.21l4.45-3c9.77-6.61,18.08-16.5,26.12-26.07,7.33-8.72,14.9-17.75,20.6-19.94,4.5-1.74,11.64-1.59,16.69,2.85,7.54,6.61,9,21.22,4.19,41.15-6.78,28-25.6,42.32-39.81,49.38-.53.24-24.53,11.08-52.5,11.37,0,0,10.69,7.24,28.78,7.6,0,.1.09.21.14.31,12.68,24.08,12.85,47,.45,64.47-11.7,16.53-31.12,23.52-43.45,21.7C1267,1271.33,1262.33,1267.7,1260.28,1261.58Zm-138.59-10.72c8.44-9.82,21.48-27.88,21.8-46,.09-5.31-.19-10.61-.47-15.73-1-18.62-1.09-30.47,9.14-39.1,13.09-11,23.06-15.93,51.07,9.14,11.42,10.23,23.12,16.93,32.52,22.32,18.24,10.46,19.37,12.56,17,18.65-2.14,5.52-15.17,16.18-32.31,18.23-12.26,1.47-36.59-3.93-47.86-22.14,0,0,9.78,39.26,49.51,40.07,7.57.15,14.7-2.77,21.1-5.68-4.87,9.76-4.87,22.08,0,36.69a32.81,32.81,0,0,0,16.16,19c-10.09,11.24-31.18,28.37-64.54,26Z"/><path class="cls-17" d="M1201.86,1135a147.24,147.24,0,0,1,13.37,10.77c8.93,8,18.1,13.56,26.45,18.38l3,1.74c8.53,4.89,15.9,9.11,20.82,14.7,6.5,7.39,7.85,16.16,4,26.08a27,27,0,0,1-2.3,4.5c-.28.43-.57.87-.88,1.31a46.67,46.67,0,0,1,10.67-1.89s9.3-10.86,28.37-5.48a63.4,63.4,0,0,0-21,14h0a40.67,40.67,0,0,0-6.82,9.42c-.12,0-12,.72-17.24,8.28-3.75,5.4-3.78,13.72-.09,24.73,2,6.12,6.7,9.75,13.81,10.79,12.33,1.82,31.75-5.17,43.45-21.7,11.85-16.72,12.22-38.37,1.16-61.27-.51-1.06-1-2.13-1.61-3.2,0-.1-.09-.21-.14-.31a64.85,64.85,0,0,1-19.35-3.28,42.38,42.38,0,0,1-9.43-4.32c28-.29,52-11.13,52.5-11.37,14.21-7.06,33-21.42,39.81-49.38,4.62-19,3.47-33.21-3.22-40.21a12.32,12.32,0,0,0-1-.94c-5-4.44-12.19-4.59-16.69-2.85-5.7,2.19-13.27,11.22-20.6,19.94-8,9.57-16.35,19.46-26.12,26.07l-4.45,3c-15.15,10.18-24.42,16.41-31.46,28.21-.28.48-.47.79-.54.92a9,9,0,0,1-15.52-9.12l.42-.72c3.19-5.55,27.34-49,25.52-89.6-1.26-28-10.16-41.16-17.4-47.25a27.87,27.87,0,0,0-22-6.31c-8.16,1-10.82,26.05-12.58,42.6-1.65,15.48-3.2,30.1-8.32,39.41q-2.79,5.05-5.41,9.73C1211,1108.53,1203.38,1122.16,1201.86,1135Z"/><path class="cls-17" d="M1121.69,1250.86l73.15,61.47c33.36,2.38,54.45-14.75,64.54-26a32.81,32.81,0,0,1-16.16-19c-4.9-14.61-4.9-26.93,0-36.69-6.4,2.91-13.53,5.83-21.1,5.68a56.77,56.77,0,0,1-6.83-.54c-31-4.42-41-33.68-42.47-38.77-.14-.49-.21-.76-.21-.76a40,40,0,0,0,3.11,4.33c.38.46.79.92,1.21,1.4,12.34,13.62,32.68,17.71,43.54,16.41,17.14-2,30.17-12.71,32.31-18.23,2.25-5.79,1.34-8-14.44-17.17-.81-.48-1.67-1-2.56-1.48-9.4-5.39-21.1-12.09-32.52-22.32-28-25.07-38-20.18-51.07-9.14-10.23,8.63-10.14,20.48-9.14,39.1.28,5.12.56,10.42.47,15.73-.21,11.72-5.74,23.42-11.9,32.87A126.05,126.05,0,0,1,1121.69,1250.86Z"/><path class="cls-10" d="M1266.35,1212.47a46.67,46.67,0,0,1,10.67-1.89s9.3-10.86,28.37-5.48a63.4,63.4,0,0,0-21,14h0c3.08,13.38,17.15,9.16,27.32-3.49,6.14-7.64,7.13-18.7,7-26.26-.51-1.06-1-2.13-1.61-3.2,0-.1-.09-.21-.14-.31a64.85,64.85,0,0,1-19.35-3.28c-5.79,13.18-20.3,23-30.37,28.55C1267,1211.59,1266.66,1212,1266.35,1212.47Z"/><path class="cls-10" d="M1201.86,1135a147.24,147.24,0,0,1,13.37,10.77c8.93,8,18.1,13.56,26.45,18.38,8.82-7.7,22.16,9.07,77.37-12.91,39.68-15.8,53.52-53.36,58.21-73.9a12.32,12.32,0,0,0-1-.94c-5-4.44-12.19-4.59-16.69-2.85-5.7,2.19-13.27,11.22-20.6,19.94-8,9.57-16.35,19.46-26.12,26.07l-4.45,3c-15.15,10.18-24.42,16.41-31.46,28.21-.28.48-.47.79-.54.92a9,9,0,0,1-15.52-9.12l.42-.72c3.19-5.55,27.34-49,25.52-89.6-1.26-28-10.16-41.16-17.4-47.25a27.87,27.87,0,0,0-22-6.31c-8.16,1-10.82,26.05-12.58,42.6-1.65,15.48-3.2,30.1-8.32,39.41q-2.79,5.05-5.41,9.73C1211,1108.53,1203.38,1122.16,1201.86,1135Z"/><path class="cls-10" d="M1131.59,1237.73c43.88,24.74,71.94,8.35,83.67-2-31-4.42-41-33.68-42.47-38.77-2.12-2.77-3.21-4.53-3.21-4.53,47.58,18.25,63.53,4.27,68.73-9.49-.81-.48-1.67-1-2.56-1.48-9.4-5.39-21.1-12.09-32.52-22.32-28-25.07-38-20.18-51.07-9.14-10.23,8.63-10.14,20.48-9.14,39.1.28,5.12.56,10.42.47,15.73C1143.28,1216.58,1137.75,1228.28,1131.59,1237.73Z"/><path class="cls-14" d="M996.32,1444.73q4,23.73,9.82,50.58s58.41,36,125.22-30.78,93.91-140.35,93.91-140.35a359.61,359.61,0,0,1-56.36-30.91c-20.83-14-42.55-32.33-55.72-53.74l-72.38,47s-6.9-47.18-29.88-70.31C1010.93,1216.25,965.85,1264,996.32,1444.73Z"/><path class="cls-12" d="M996.32,1444.73q4,23.73,9.82,50.58s58.41,36,125.22-30.78,93.91-140.35,93.91-140.35a359.61,359.61,0,0,1-56.36-30.91c-4.57-.43-7.15-.65-7.15-.65S1111.27,1486.82,996.32,1444.73Z"/><path class="cls-13" d="M1003,1217.56s-5.49,5.74,4.88,20.61,29.35,47,30.13,57.52-11.82,55.73-11.82,55.73,47.1-65.84,101.1-88l-21.81-21.13-53.85,45.65-35.22-66-3.89-11.29Z"/><path class="cls-16" d="M993.23,1473.65c26.36,19.1,52.16,24.64,78.89,16.94,71.66-20.64,125.87-130.54,140.64-163.36-41.74-18.29-85.09-60-99.91-75-64.78,34.55-86.42,98.57-86.64,99.23,0,0-9.31-35.28,14.6-64.85-5.88-18.3-19.33-40.28-29.14-56.08a15.74,15.74,0,0,1-1.37-13.8l2.26-6,0-18.17c1.27,1.7,28.31,38.1,43.44,77.21a199.88,199.88,0,0,1,54.56-38.75,10,10,0,0,1,11.65,2.19c.58.62,58.63,62.39,106.86,79.08a10.33,10.33,0,0,1,3.89,2.31,10,10,0,0,1,2.35,11,539,539,0,0,1-42.77,81.21c-36.6,57-75.25,91.73-114.88,103.16a102.59,102.59,0,0,1-28.48,4.11c-19.49,0-38.8-5.81-57.74-17.4C988.13,1494.47,993.23,1473.65,993.23,1473.65Z"/><path class="cls-18" d="M1294.21,288.5c1.91,30.36-4,63.85-14.65,97a249.9,249.9,0,0,1-26.18,55.93,413.39,413.39,0,0,1-75,89.46c-14,12.6-29.75,22.27-45,32.87-4.31,3-5.74,6-5.82,11.2-.09,5.73,1.1,12-2.43,17.26-2.69,4,1.06,5,3.1,6.13,7.5,4.23,10.06,10.2,8.64,18.73-2.51,15.12-.13,30.31.76,45.41.35,6-.59,9.66-6.4,11.36-6.18,1.81-6.21,4.73-3.17,10.08,13.53,23.83,24.12,49,35.08,74.16,9.69,22.17,13.89,45.66,21.07,68.38,9.29,29.43,8.7,58.66,3.22,88.26-5,27-15.46,51.69-30,75.09-18.86,30.49-43.29,55.35-71.29,77.36-24.11,19-51,32.89-77.7,47.61-22.83,12.61-47.59,19.5-71.56,28.83-20.78,8.09-42.67,11.06-63.78,17.13-19.4,5.58-39.15,6.75-58.75,9.87-33.22,5.3-66.57,6.69-100.23,5.62-29.42-1-58.61-2.63-87.79-6.83a743.2,743.2,0,0,1-82.4-16.33,487.32,487.32,0,0,1-105.19-41c-45.08-23.81-83-55.17-109.49-98.86-14.9-24.55-25.07-51.08-28.09-80.32-1.77-17.12-1.21-33.95-1-51,.32-28.83,7-56.21,14.15-83.82A343.59,343.59,0,0,1,341,728.28c2.63-5.18,3.28-11.19,6.76-16.09,2.91-4.1-1.28-5-3.47-5.59-10.3-2.86-13.41-9.36-11.81-19.59,2.07-13.34-2.14-26.49-2.28-39.83-.07-7.39,1.58-12.82,8.6-15.83,5-2.15,5.57-4.11,1.1-8.17-3.69-3.35-5-9-5-13.8,0-7.14-2.24-9.28-9.48-11.68-16.21-5.38-30.78-14.6-44.6-25-23.89-17.91-46.49-37.32-66-59.81-21.23-24.43-40.73-50.18-52.62-81-11-28.51-20.6-57.07-22.83-88-2-27.65-1.87-54.75,3.11-82.21,7.35-40.46,23.26-76.79,45.38-111.18,14.25-22.14,32.21-40.61,51-58.53,9-8.61,21.16-8.41,33.76-.94,7.05,4.19,9.86,13.58,7.85,24.73-6.53,36.37-9.21,73.32-1.4,109.32,9.17,42.19,28.41,79.83,63.56,107.53,10.45,8.23,20.38,17,31.27,24.83a266.69,266.69,0,0,0,50.92,28.9c19.07,8.12,38.68,16.34,60.55,15.43,7.77-.32,10.82-5.77,14.72-9.84,14.38-15,32.18-24.93,49.05-36.47,27.65-18.93,59-26.83,90.72-34.43a7.12,7.12,0,0,0,.92-.18c4.9-1.87,13,1.36,14.67-3.17,2.69-7.28,4.25-15.76,2.77-23.82-1.37-7.52.8-12.22,7.56-15.88,21-11.34,42.48-17,67-15.15,15.86,1.21,29.2,7.38,43.38,12.3,3.79,1.31,4,5.2,4.37,8.65.92,8.68,1.8,17.37,2.78,26,.38,3.35.72,5.12,5.77,4.87,7.62-.38,15.38,2,23.08,3.2,29.63,4.56,57.06,15.15,83.7,28.75a230.91,230.91,0,0,1,50.92,34.89c5.12,4.66,10.16,3.45,15.53,2.33,41-8.53,74.92-29.64,106.2-57,23.69-20.69,44.24-43.79,59.7-70.69,10.59-18.41,14.83-39.83,17.81-61.13,3.21-23,2.23-46.09-.8-68.81A361.41,361.41,0,0,0,1137.68,89c-2.75-11.23-4.55-23,6.13-31.76,9.12-7.45,24.35-7.33,33.82.2,35.2,28,64.76,60.58,84.31,101.7,13.93,29.31,25.45,59.07,29.44,91.7A304.48,304.48,0,0,1,1294.21,288.5ZM997.79,541.29c.73.85,2,1.91,2.59.82.77-1.39-1.13-1.19-1.93-1.61-3.36-7.59-9.78-12.89-15.26-18.59-17.71-18.43-27.65-40.93-35.57-64.54-3.73-11.13-2.21-22.91-2.06-34.4.22-16.32-5.72-28.48-19.38-38.34-29.52-21.3-61.1-38-96.31-47.32-11.64-3.07-23.78-4.38-35.75-6.06-2.76-.38-7.76-2.14-7.35,3.9.46,6.81.73,13.76,2.33,20.34,6.06,25,7.45,50.77,11.25,76.09s8.24,50.69,10.22,76.31c.33,4.28,2.67,4.58,6,5.32,18.48,4.09,37.46,3.82,56.11,6.9,22.79,3.77,46,4.94,69,7.85C960.8,530.38,979.33,535.77,997.79,541.29Zm-280.85,110a30.47,30.47,0,0,1-5.48,1.12c-36.1.74-72,3.79-107.52,10.34-19.21,3.55-38.6,5.22-57.75,10.2-22.79,5.94-45.9,10.6-68.67,17.09-28.82,8.22-56.51,19.08-84.09,30.42a27.7,27.7,0,0,1-19,1c-10.77-3.17-15.17-.87-19.24,9.44-10.67,27-21.8,53.76-29,82.09-4.46,17.55-7.73,35-8.71,53-4.39,9.41-1.28,19.31-2.08,28.92-1.83,22.08,1.63,43.33,7.14,64.52,10.69,41.07,36,72,67,99.57a307.94,307.94,0,0,0,97,58.63c22.5,8.51,44.88,17,68.48,22.41,27.11,6.24,54.17,11.73,81.89,15,30.62,3.61,61.15,5.31,91.94,5.86,35,.63,69.37-2.74,103.75-8.65,20.19-3.46,40.51-5.79,60.19-12,21.25-6.75,43-11.42,63.9-19.9,35-14.18,69.15-29.31,99.92-51.51,24.74-17.85,48.38-36.63,67.71-60.66,25.06-31.13,43.75-64.64,49.33-105a181.89,181.89,0,0,0-4.54-73.76c-.11-8.29-4.45-15.43-6.35-23.18-9.59-39.09-27.57-74.55-46-109.89-4.2-8-8.5-9.54-16-5.26-7.11,4.08-14.76,7.22-23,4.83-6.83-2-13.84-3.59-20.49-5.82a623.84,623.84,0,0,0-81-21.13c-25.91-5-51.84-9-78-12.21-30.5-3.77-60.94-5.38-91.6-6.26-19.62-.56-39.15-.57-58.72.16C737.55,650,727.18,647.82,716.94,651.32ZM355.67,585.08c12.72-2.92,26.15-4.14,38-9.09,35.95-15,62.11-40.44,79.14-76,11.81-24.68,10.32-50,8.67-75.71-.31-4.74-2.08-6.9-7.25-7.4-8.6-.85-17.36-1.93-25.59-4.43-28.38-8.64-54.23-22.59-78.65-39.27-13.1-8.94-25.24-19-37.48-29.12-23.08-19-39.6-43-53.78-68.44-11.75-21.13-15.55-45.45-18.47-69-3.81-30.85-.5-62,4.06-92.74.62-4.19,1.71-8-3.23-10.38s-8.73-1.36-12.69,2.3c-19.42,18-36.81,37.4-51.18,59.86A272,272,0,0,0,158,266.25c-5.8,32.61-6.42,64.6.22,96.93,4.44,21.63,9.13,42.81,19.07,63.1C193,458.43,211.81,488,236.5,514c19.79,20.84,41.54,39.44,65.66,54.69C317.93,578.61,335,588.4,355.67,585.08Zm923.66-287.17c-4-13.14-.22-27.42-3.09-41.13-6.67-31.83-12.79-63.48-29.65-92.56-14.49-25-30.37-48.47-50.47-69-9.32-9.51-20.1-17.58-30.22-26.31-4.31-3.72-8.32-1.2-11.9,1-2.53,1.59-4.84,4.16-3.12,7.84,5.28,11.23,5.41,23.57,7.53,35.47,5.83,32.66,7.12,65.35.67,98.14-6.09,31-18.45,59.35-37.61,84.17-10.76,13.93-23.34,26.59-36.53,38.59A283.07,283.07,0,0,1,1044,365c-23.15,14.43-46.18,29.92-74.28,33.07-7.21.81-8.21,4.16-9.14,10-2.4,15.09.67,29.75,3.08,44.37,6.51,39.33,33.33,64.13,63.16,86.6,18.6,14,41.16,15.1,62.82,18.26,7.48,1.09,15.77,2,23.76-1.5,20.39-8.86,38.7-20.38,54.84-35.91,26.35-25.35,51.88-50.78,68.84-84.22,10.81-21.32,20.74-42.59,28.86-65.13C1274.44,347,1274.42,322.46,1279.33,297.91ZM659.4,534.17c-8.44-.3-17-1.73-25.18.93-24,7.79-49.48,8-73.71,15.06-14.88,4.32-31.25,3.82-45.83,8.78-30.52,10.41-61.3,20.39-89.32,37.29C405.93,608,385.77,618.5,366.15,630c-14.56,8.51-24.75,18.34-19,36.93.52,1.72.16,3.73.17,5.6.05,12.2,3.49,20.79,16.75,25.91,11,4.23,20.17,6,31,1,18.9-8.75,39.27-13.55,58.67-21.18,20.46-8.05,42.5-11.75,63.87-17.05,38.28-9.51,77.51-14.44,116.48-20.39,17.44-2.66,35.23-2.23,52.83-5,17.1-2.73,34.78-2.21,52.12-2.6,39.76-.9,79.62-.81,119.31,3.51,25.86,2.81,51.89,4.21,77.64,7.74,20.58,2.83,41.11,6.09,61.43,11.12,23.73,5.87,47.93,9.9,70.78,18.89,8,3.14,15.19,3.49,23.21.35s15.29-8.33,24.19-9.59c4.48-.64,5.33-4.49,5-8.69-.87-12.05.83-24.07.12-36.23-.52-8.68-5-11.51-11.3-13.48-2.88-.9-5.94-1.17-8.86-2.43-14.78-6.39-28.21-15.31-43.09-21.72-20.28-8.75-40.76-17-61.31-25-35.77-13.93-74-15.59-111.47-20.42-24.16-3.11-48.54-4.57-72.67-7.84-24.89-3.36-49.88-2.14-74.6-.95C711.39,529.71,685.19,529.51,659.4,534.17ZM447.69,566c7.93-1.08,14.36-4.62,20.92-8,20.93-10.91,44.25-15.33,66.8-19.55,32.81-6.14,65.24-14.78,98.58-18,5-.48,8-2.3,8.61-7.78,1.43-12.34,3.8-24.6,3.13-37.08-1-18,2-35.87,3.19-53.62,1.64-25,1.18-50.29,5.92-75.13,1.69-8.86-1.29-11.33-10.64-9.85a215.83,215.83,0,0,0-30.6,7c-44.34,13.8-83.05,36-113.59,71.55-2.66,3.1-4,5.45-2.86,9.81,5,20,3.14,40.29-1.14,59.78a134.91,134.91,0,0,1-27.61,56.39C461.67,549.73,455.34,558.3,447.69,566Zm330.36-53.16c2.24,0,3.8,0,5.36,0,11.18.21,10.93.23,10.13-11.27-1.39-19.85-5.75-39.25-8.34-58.92-4.46-33.88-9.11-67.75-14.4-101.51-2.4-15.33.39-31.09-5-46.24-1.77-5-3.91-7.83-8.37-10.05-20.25-10-41.33-8.44-61.83-2.69-26,7.29-23.35,5.94-22.09,28.91a10.68,10.68,0,0,1-.12,1.87c-2,15.42-2.94,30.89-3.82,46.44-1.74,30.58-3.76,61.17-5.89,91.73-1.38,19.77-.8,39.76-4.42,59.37-.89,4.87.73,6.92,5.84,6.58,12.07-.8,24.2-1.44,36.23-2C727.09,513.73,752.85,510,778.05,512.79ZM389,595.06c-8.52,2-17.07,4-25.56,6.15-3.9,1-2.45,4.47-2.54,7-.07,2.07-.45,4.73,2.29,5.44,2.38.61,4.06-1.24,5.5-2.85C374.37,604.48,382.09,601.1,389,595.06ZM1076,571.56c6.76,7.42,14.54,9.74,21.39,13.48,3,1.63,3.68-.84,4.21-3,.6-2.5,3.13-5.82-1-7C1093.17,572.71,1085.56,570.79,1076,571.56Z"/><path class="cls-19" d="M1169.13,829.41a181.89,181.89,0,0,1,4.54,73.76c-5.58,40.4-24.27,73.91-49.33,105-19.33,24-43,42.81-67.71,60.66-30.77,22.2-64.94,37.33-99.92,51.51-20.92,8.48-42.65,13.15-63.9,19.9-19.68,6.24-40,8.57-60.19,12-34.38,5.91-68.76,9.28-103.75,8.65-30.79-.55-61.32-2.25-91.94-5.86-27.72-3.26-54.78-8.75-81.89-15-23.6-5.43-46-13.9-68.48-22.41a307.94,307.94,0,0,1-97-58.63c-30.94-27.58-56.27-58.5-67-99.57-5.51-21.19-9-42.44-7.14-64.52.8-9.61-2.31-19.51,2.08-28.92,20.24-7,41.3-4.74,61.66-3,21.47,1.85,42.09,8.91,61.79,19,16.49,8.44,31.2,20.2,49,26.19-2.39,21.44-.83,42.58,2.63,63.9,3.42,21,8.35,41.08,19.16,60.85,3.18-7.51-2.09-11.5-2.82-16.62a653.12,653.12,0,0,1-5.59-65.79c-.45-11.63.73-23.17,1.66-34.73,13.9,3.27,24.86-3.66,34.92-11.29,20.3-15.37,36.23-36,57.76-49.82,31-19.81,63.13-36.79,99.88-44.6a307.16,307.16,0,0,1,74.64-6.26,159.74,159.74,0,0,1,41.1,7.32c31.26,9.64,61.06,22.76,86.86,43.53,9.92,8,19.53,16.37,29.49,24.3,17.51,14,36.29,22.75,59.12,13.41,7.56,18.57,6.35,38.48,7.19,57.74.86,19.63-2.1,39.48-6.14,59.4,4.12-.93,4.22-4.43,4.59-7.09,2.6-18.79,7.79-37,8.91-56.26,1.2-20.53,3.46-40.64-2.21-60.74a102.21,102.21,0,0,0,18.74-12.28,194.6,194.6,0,0,1,59.38-32.31C1108.29,831.3,1138.16,825.5,1169.13,829.41ZM746.46,946.72c5.16,5,8.93,11.6,15.37,13.74,16,5.33,31.42,10.51,49.63,6.92,26.32-5.19,41.65-24.62,42.83-48.79.28-5.66-.28-12.14-8.15-12.22s-8,5.8-7.87,11.92c.3,16.81-9.54,30.45-25,33.8a66.18,66.18,0,0,1-20.46.78c-22.1-2.35-33.55-10.84-37.28-27.22-1-4.49.33-9.75-1.4-13.81-2.45-5.7.29-6.23,4.42-7.05,18.21-3.59,30.91-15.36,41.52-29.42,8.08-10.71,5.15-21.65-6.12-29.19-6.77-4.51-14.49-5-22.1-6.35-25.07-4.46-49.58-1-73.84,5.22-8.68,2.22-15.14,7.91-16.71,16.93-1.73,9.91,2.73,17.56,10.25,24.37,11.56,10.48,24.08,17.89,40,19,2.49.16,6.22-.33,7.32,4.13,3.8,15.31-6,34.74-19.55,42.56-13,7.51-25.43,4.8-38.62,2.17-7.16-1.43-12.76-4.36-17.22-9.84a34.34,34.34,0,0,1-8.12-22.4c0-5.42-1.72-9.5-7.56-9.75-6.46-.27-8.63,4.29-8.64,9.87-.06,17.92,7.15,33.61,22.46,41.6,19.29,10.07,40.34,15.94,61.72,2.46C731.85,960.73,741.58,957.22,746.46,946.72Z"/><path class="cls-20" d="M1169.13,829.41c-31-3.91-60.84,1.89-90,11.49a194.6,194.6,0,0,0-59.38,32.31,101.64,101.64,0,0,1-18.74,12.27c-8-28.44-23.17-52.8-42.89-74.51-4.59-5.05-9.17-10.1-13.81-15.11-2.77-3-2.47-5.2,1.85-5.23,20.55-.13,41.32-4.67,61,6.81,6.47,3.78,12.95,8.45,21,12-3.61-9.7-30.53-31-41.8-33.62-12.39-2.87-24.86-5.39-37.34-7.81-2.89-.57-6-.39-5.12-4.56,1.53-7.32-1.44-14.11-2.36-21.11-2.15-16.4-9.93-30.06-22.4-40.85-7.87-6.81-13.79-6.85-21.25.32s-15.73,13.25-24.15,19.1c-12.19,8.49-19.74,18.86-19.41,34.59.13,6.19,2.68,11.39,3.69,17.15,2.68,15.37,11.06,27.41,23.18,37.14,8.87,7.12,19.39,9.68,28.75,4.52,10.94-6,17-1.91,23.53,5.7,1.38,1.61,3.47,2.58,5,4,20.94,19.7,39.7,41,50.16,68.39-22.83,9.34-41.61.54-59.12-13.41-10-7.93-19.57-16.31-29.49-24.3-25.8-20.77-55.6-33.89-86.86-43.53a159.74,159.74,0,0,0-41.1-7.32,307.16,307.16,0,0,0-74.64,6.26c-36.75,7.81-68.91,24.79-99.88,44.6-21.53,13.78-37.46,34.45-57.76,49.82-10.06,7.63-21,14.56-34.92,11.29,4.45-18.87,10.9-36.78,22.95-52.42a379.69,379.69,0,0,1,28.62-33.08c4.85-5,7.66-6.52,14.47-3.76,13.24,5.37,25.12,2.31,35.88-7.88,19.29-18.28,19.61-41.25,17.44-64.92-.54-5.88-4.18-10.55-9.29-14.46-13.59-10.41-29-18.18-42-29.45-1.93-1.68-4.27-3.29-6.72-1.44-5.18,3.9-10.92,7.45-15,12.33-13.43,16-18,34.89-14.83,55.43,1,6.29-.7,8.84-6.91,10-20.54,3.9-37.71,14.58-52.7,28.55-6.15,5.73-13.4,11.5-14.18,21.17-.55.85-2.67,1.17-1.45,2.53.85.93,2.29.32,3-1,12.32-19.32,60.58-33.88,76-26.92a381.92,381.92,0,0,0-26.08,35C503,862.12,498.23,881.09,490.67,899c-1.14,2.7-.55,6.13-.76,9.23-17.75-6-32.46-17.75-49-26.19-19.7-10.08-40.32-17.14-61.79-19-20.36-1.74-41.42-4-61.66,3,1-18,4.25-35.48,8.71-53,7.19-28.33,18.32-55.08,29-82.09,4.07-10.31,8.47-12.61,19.24-9.44a27.7,27.7,0,0,0,19-1c27.58-11.34,55.27-22.2,84.09-30.42,22.77-6.49,45.88-11.15,68.67-17.09,19.15-5,38.54-6.65,57.75-10.2,35.55-6.55,71.42-9.6,107.52-10.34a30.19,30.19,0,0,0,5.47-1.12c10.34.55,20.66.68,31-.67,19.57-.73,39.1-.72,58.72-.16,30.66.88,61.1,2.49,91.6,6.26,26.19,3.24,52.12,7.21,78,12.21a623.84,623.84,0,0,1,81,21.13c6.65,2.23,13.66,3.85,20.49,5.82,8.28,2.39,15.93-.75,23-4.83,7.48-4.28,11.78-2.77,16,5.26,18.48,35.34,36.46,70.8,46,109.89C1164.68,814,1169,821.12,1169.13,829.41Z"/><path class="cls-21" d="M355.67,585.08c-20.66,3.32-37.74-6.47-53.51-16.44C278,553.39,256.29,534.79,236.5,514c-24.69-26-43.5-55.52-59.25-87.67-9.94-20.29-14.63-41.47-19.07-63.1-6.64-32.33-6-64.32-.22-96.93a272,272,0,0,1,39.28-100.62c14.37-22.46,31.76-41.91,51.18-59.86,4-3.66,7.87-4.56,12.69-2.3s3.85,6.19,3.23,10.38c-4.56,30.77-7.87,61.89-4.06,92.74,2.92,23.56,6.72,47.88,18.47,69,14.18,25.49,30.7,49.41,53.78,68.44,12.24,10.1,24.38,20.18,37.48,29.12,24.42,16.68,50.27,30.63,78.65,39.27,8.23,2.5,17,3.58,25.59,4.43,5.17.5,6.94,2.66,7.25,7.4,1.65,25.75,3.14,51-8.67,75.71-17,35.58-43.19,61-79.14,76C381.82,580.94,368.39,582.16,355.67,585.08Z"/><path class="cls-21" d="M1279.33,297.91c-4.91,24.55-4.89,49-13.38,72.61-8.12,22.54-18,43.81-28.86,65.13-17,33.44-42.49,58.87-68.84,84.22-16.14,15.53-34.45,27-54.84,35.91-8,3.47-16.28,2.59-23.76,1.5-21.66-3.16-44.22-4.26-62.82-18.26-29.83-22.47-56.65-47.27-63.16-86.6-2.41-14.62-5.48-29.28-3.08-44.37.93-5.81,1.93-9.16,9.14-10,28.1-3.15,51.13-18.64,74.28-33.07a283.07,283.07,0,0,0,40.93-30.82c13.19-12,25.77-24.66,36.53-38.59,19.16-24.82,31.52-53.18,37.61-84.17,6.45-32.79,5.16-65.48-.67-98.14-2.12-11.9-2.25-24.24-7.53-35.47-1.72-3.68.59-6.25,3.12-7.84,3.58-2.25,7.59-4.77,11.9-1,10.12,8.73,20.9,16.8,30.22,26.31,20.1,20.51,36,44,50.47,69,16.86,29.08,23,60.73,29.65,92.56C1279.11,270.49,1275.3,284.77,1279.33,297.91Z"/><path class="cls-22" d="M659.4,534.17c25.79-4.66,52-4.46,78-5.71,24.72-1.19,49.71-2.41,74.6.95,24.13,3.27,48.51,4.73,72.67,7.84,37.51,4.83,75.7,6.49,111.47,20.42,20.55,8,41,16.2,61.31,25,14.88,6.41,28.31,15.33,43.09,21.72,2.92,1.26,6,1.53,8.86,2.43,6.34,2,10.78,4.8,11.3,13.48.71,12.16-1,24.18-.12,36.23.31,4.2-.54,8-5,8.69-8.9,1.26-16.12,6.44-24.19,9.59s-15.24,2.79-23.21-.35c-22.85-9-47.05-13-70.78-18.89-20.32-5-40.85-8.29-61.43-11.12-25.75-3.53-51.78-4.93-77.64-7.74-39.69-4.32-79.55-4.41-119.31-3.51-17.34.39-35-.13-52.12,2.6-17.6,2.8-35.39,2.37-52.83,5-39,6-78.2,10.88-116.48,20.39-21.37,5.3-43.41,9-63.87,17.05-19.4,7.63-39.77,12.43-58.67,21.18-10.8,5-20,3.23-31-1-13.26-5.12-16.7-13.71-16.75-25.91,0-1.87.35-3.88-.17-5.6-5.71-18.59,4.48-28.42,19-36.93,19.62-11.46,39.78-22,59.21-33.73,28-16.9,58.8-26.88,89.32-37.29,14.58-5,31-4.46,45.83-8.78,24.23-7,49.72-7.27,73.71-15.06C642.41,532.44,651,533.87,659.4,534.17Z"/><path class="cls-23" d="M447.69,566c7.65-7.65,14-16.22,20.71-24.5A134.91,134.91,0,0,0,496,485.06c4.28-19.49,6.18-39.82,1.14-59.78-1.11-4.36.2-6.71,2.86-9.81,30.54-35.54,69.25-57.75,113.59-71.55a215.83,215.83,0,0,1,30.6-7c9.35-1.48,12.33,1,10.64,9.85-4.74,24.84-4.28,50.16-5.92,75.13-1.17,17.75-4.17,35.64-3.19,53.62.67,12.48-1.7,24.74-3.13,37.08-.63,5.48-3.64,7.3-8.61,7.78-33.34,3.21-65.77,11.85-98.58,18-22.55,4.22-45.87,8.64-66.8,19.55C462.05,561.33,455.62,564.87,447.69,566Z"/><path class="cls-22" d="M778.05,512.79c-25.2-2.79-51,.94-76.71,2.2-12,.58-24.16,1.22-36.23,2-5.11.34-6.73-1.71-5.84-6.58,3.62-19.61,3-39.6,4.42-59.37,2.13-30.56,4.15-61.15,5.89-91.73.88-15.55,1.85-31,3.82-46.44a10.68,10.68,0,0,0,.12-1.87c-1.26-23-3.92-21.62,22.09-28.91,20.5-5.75,41.58-7.35,61.83,2.69,4.46,2.22,6.6,5.06,8.37,10.05,5.38,15.15,2.59,30.91,5,46.24,5.29,33.76,9.94,67.63,14.4,101.51,2.59,19.67,6.95,39.07,8.34,58.92.8,11.5,1.05,11.48-10.13,11.27C781.85,512.76,780.29,512.79,778.05,512.79Z"/><path class="cls-23" d="M997.79,541.3c-18.46-5.53-37-10.92-56.13-13.34-22.95-2.91-46.17-4.08-69-7.85-18.65-3.08-37.63-2.81-56.11-6.9-3.35-.74-5.69-1-6-5.32-2-25.62-6.42-51-10.22-76.31s-5.19-51.07-11.25-76.09c-1.6-6.58-1.87-13.53-2.33-20.34-.41-6,4.59-4.28,7.35-3.9,12,1.68,24.11,3,35.75,6.06,35.21,9.3,66.79,26,96.31,47.32,13.66,9.86,19.6,22,19.38,38.34-.15,11.49-1.67,23.27,2.06,34.4,7.92,23.61,17.86,46.11,35.57,64.54,5.48,5.7,11.9,11,15.26,18.59Z"/><path class="cls-24" d="M389,595.06c-6.92,6-14.64,9.42-20.31,15.77-1.44,1.61-3.12,3.46-5.5,2.85-2.74-.71-2.36-3.37-2.29-5.44.09-2.56-1.36-6,2.54-7C371.94,599,380.49,597.09,389,595.06Z"/><path class="cls-24" d="M1076,571.56c9.61-.77,17.22,1.15,24.65,3.39,4.08,1.22,1.55,4.54,1,7-.53,2.21-1.23,4.68-4.21,3C1090.49,581.3,1082.71,579,1076,571.56Z"/><path class="cls-25" d="M747.88,650.65c-10.29,1.35-20.61,1.22-31,.67C727.18,647.82,737.55,650,747.88,650.65Z"/><path class="cls-23" d="M998.45,540.5c.8.42,2.7.22,1.93,1.61-.6,1.09-1.86,0-2.59-.81Z"/><path class="cls-26" d="M489.91,908.24c.21-3.1-.38-6.53.76-9.23,7.56-17.92,12.32-36.89,23.51-53.47a381.92,381.92,0,0,1,26.08-35c-15.45-7-63.71,7.6-76,26.92l-1.52-1.52c.79-9.67,8-15.44,14.19-21.17,15-14,32.16-24.65,52.7-28.55,6.21-1.18,7.89-3.73,6.91-10-3.21-20.54,1.4-39.39,14.83-55.43,4.08-4.88,9.82-8.43,15-12.33,2.45-1.85,4.79-.24,6.72,1.44,13,11.27,28.37,19,42,29.45,5.11,3.91,8.75,8.58,9.29,14.46,2.17,23.67,1.85,46.64-17.44,64.92C596.11,828.9,584.23,832,571,826.59c-6.81-2.76-9.62-1.22-14.47,3.76a379.69,379.69,0,0,0-28.62,33.08c-12,15.64-18.5,33.55-22.95,52.42-.93,11.56-2.11,23.1-1.66,34.73a653.12,653.12,0,0,0,5.59,65.79c.73,5.12,6,9.11,2.82,16.62-10.81-19.77-15.74-39.87-19.16-60.85C489.08,950.82,487.52,929.68,489.91,908.24Zm87.87-149.66c-.15,7.43,1.38,12.73,4.84,17.38,6.14,8.27,15.06,8.55,20.5-.22,3.49-5.62,5.87-12.17,4.75-19.38-1.68-10.81-8.56-18.88-16.38-18.66s-12.47,6.63-13.58,18.81A19.89,19.89,0,0,0,577.78,758.58Z"/><path class="cls-26" d="M988.72,892.44c-10.46-27.38-29.22-48.69-50.16-68.39-1.57-1.47-3.66-2.44-5-4-6.5-7.61-12.59-11.73-23.53-5.7-9.36,5.16-19.88,2.6-28.75-4.52-12.12-9.73-20.5-21.77-23.18-37.14-1-5.76-3.56-11-3.69-17.15-.33-15.73,7.22-26.1,19.41-34.59,8.42-5.85,16.68-11.93,24.15-19.1s13.38-7.13,21.25-.32c12.47,10.79,20.25,24.45,22.4,40.85.92,7,3.89,13.79,2.36,21.11-.87,4.17,2.23,4,5.12,4.56,12.48,2.42,25,4.94,37.34,7.81,11.27,2.6,38.19,23.92,41.8,33.62-8-3.54-14.51-8.21-21-12-19.69-11.48-40.46-6.94-61-6.81-4.32,0-4.62,2.23-1.85,5.23,4.64,5,9.22,10.06,13.81,15.11,19.72,21.71,34.85,46.07,42.89,74.51,5.67,20.11,3.41,40.22,2.21,60.75-1.12,19.27-6.31,37.47-8.91,56.26-.37,2.66-.47,6.16-4.59,7.09,4-19.92,7-39.77,6.14-59.4C995.07,930.92,996.28,911,988.72,892.44ZM900.56,753.12c.87-8.35-.44-15-4.79-20.65-5.26-6.89-13.93-7-19.69-.34-7.68,8.82-7.17,25.64,1,34.33,7.41,7.84,19.89,5,22.92-5.46C900.88,758.13,900.47,754.89,900.56,753.12Z"/><path class="cls-27" d="M746.46,946.72c-4.88,10.5-14.61,14-23.16,19.4-21.38,13.48-42.43,7.61-61.72-2.46-15.31-8-22.52-23.68-22.46-41.6,0-5.58,2.18-10.14,8.64-9.87,5.84.25,7.6,4.33,7.56,9.75a34.34,34.34,0,0,0,8.12,22.4c4.46,5.48,10.06,8.41,17.22,9.84,13.19,2.63,25.6,5.34,38.62-2.17,13.57-7.82,23.35-27.25,19.55-42.56-1.1-4.46-4.83-4-7.32-4.13-15.93-1.08-28.45-8.49-40-19-7.52-6.81-12-14.46-10.25-24.37,1.57-9,8-14.71,16.71-16.93,24.26-6.19,48.77-9.68,73.84-5.22,7.61,1.36,15.33,1.84,22.1,6.35,11.27,7.54,14.2,18.48,6.12,29.19-10.61,14.06-23.31,25.83-41.52,29.42-4.13.82-6.87,1.35-4.42,7.05,1.73,4.06.38,9.32,1.4,13.81,3.73,16.38,15.18,24.87,37.28,27.22a66.18,66.18,0,0,0,20.46-.78c15.51-3.35,25.35-17,25-33.8-.11-6.12-.1-12,7.87-11.92s8.43,6.56,8.15,12.22c-1.18,24.17-16.51,43.6-42.83,48.79-18.21,3.59-33.64-1.59-49.63-6.92C755.39,958.32,751.62,951.68,746.46,946.72Zm-5-91.55v.77H720a5.21,5.21,0,0,0-4.57,2.64c-.63,1.06.37,2.11,1.35,3.07,10,9.85,38.43,8.49,47.52-2.4.73-.88,1.59-2.21,1.42-3.16-.32-1.83-2.17-2-3.73-1.93C755.15,854.45,748.31,854.82,741.47,855.17Z"/><path class="cls-26" d="M464.23,837.46c-.67,1.33-2.11,1.94-3,1-1.22-1.36.9-1.68,1.45-2.53Z"/><path class="cls-28" d="M577.78,758.58a19.89,19.89,0,0,1,.13-2.07c1.11-12.18,5.75-18.59,13.58-18.81s14.7,7.85,16.38,18.66c1.12,7.21-1.26,13.76-4.75,19.38-5.44,8.77-14.36,8.49-20.5.22C579.16,771.31,577.63,766,577.78,758.58Z"/><path class="cls-28" d="M900.56,753.12c-.09,1.77.32,5-.51,7.88-3,10.44-15.51,13.3-22.92,5.46-8.22-8.69-8.73-25.51-1-34.33,5.76-6.61,14.43-6.55,19.69.34C900.12,738.16,901.43,744.77,900.56,753.12Z"/><path class="cls-29" d="M741.47,855.17c6.84-.35,13.68-.72,20.52-1,1.56-.06,3.41.1,3.73,1.93.17.95-.69,2.28-1.42,3.16-9.09,10.89-37.54,12.25-47.52,2.4-1-1-2-2-1.35-3.07a5.21,5.21,0,0,1,4.57-2.64h21.48Z"/></svg>