<svg id="Layer_1" data-name="Layer 1" xmlns="http://www.w3.org/2000/svg" viewBox="0 0 1341.13 2162.15"><defs><style>.cls-1{fill:#1f2640;}.cls-2{fill:#2c3450;}.cls-3{fill:#636f93;}.cls-4{fill:#131831;}.cls-5{fill:#b2b4cd;}.cls-6{fill:#530500;}.cls-7{fill:#9e0d0d;}.cls-8{fill:#c2241e;}.cls-9{fill:#ed5151;}.cls-10{fill:#fff;}.cls-11{fill:#4a5d6d;}.cls-12{fill:#1278cc;}.cls-13{fill:#8cf;}.cls-14{fill:#3e9cf3;}.cls-15{fill:none;stroke:#1278cc;stroke-miterlimit:10;}.cls-16{fill:#173485;}.cls-17{fill:#bdbdbd;}.cls-18{fill:#262323;}.cls-19{fill:#fdf0e6;}.cls-20{fill:#0078fd;}.cls-21{fill:#ee9337;}.cls-22{fill:#8f9193;}.cls-23{fill:#59595b;}.cls-24{fill:#545456;}.cls-25{fill:#a59988;}.cls-26{fill:#252221;}.cls-27{fill:#1c1c1c;}.cls-28{fill:#f6f6f6;}.cls-29{fill:#efefef;}</style></defs><title>3</title><path class="cls-1" d="M633.09,1971.88c-.39,5.47-74.15,80.6-98.8,88s-91.17,3.52-108.68-17.41c-9.1-10.87-11-23.75-6-35.76,4.56-11.11,15-21.48,31-28.81,33.26-15.26,50.17-60.45,50.17-60.45S546.25,1929.9,589,1919a100.49,100.49,0,0,0,35.52-16.4S633.49,1966.4,633.09,1971.88Z"/><path class="cls-2" d="M591.6,1943.23c-.33,4.65-62.87,68.34-83.77,74.65-18.68,5.63-65.68,3.58-86.07-9.59-.77-.5-1.5-1-2.19-1.54,4.56-11.11,15-21.48,31-28.81,33.26-15.26,50.17-60.45,50.17-60.45s5.73,1.56,15,3.09c16.92,2.78,45.65,5.46,73.22-1.57C590.48,1930.68,591.74,1941.29,591.6,1943.23Z"/><path class="cls-3" d="M515.75,1920.58a143.11,143.11,0,0,1-3,15.43c-3.65,11.47-21,43.82-47.08,52.56s-36.94,22.3-36.94,22.3-2.75-1-6.92-2.58c-.77-.5-1.5-1-2.19-1.54,4.56-11.11,15-21.48,31-28.81,33.26-15.26,50.17-60.45,50.17-60.45S506.45,1919.05,515.75,1920.58Z"/><path class="cls-4" d="M502.74,2073.41a224,224,0,0,1-26.68-1.63c-19.81-2.41-46-8.33-58.13-22.86-9.49-11.34-13-25-10-38.58,3.87-17.17,17.52-31.9,38.41-41.49,29.17-13.39,44.82-54.46,45-54.87l3.2-8.54,8.8,2.4c.71.19,72,19,115.16-13.24L632,1884.51l2.36,16.71c3.42,24.21,9.09,65.68,8.68,71.37-.25,3.48-1.09,6.36-14.78,21.11-8,8.58-18.39,19-28.63,28.73-20,18.9-47.06,42.41-62.48,47.06C528.63,2072.07,516.32,2073.41,502.74,2073.41Zm3.85-144.31c-6.89,14.67-24,45.14-51.87,57.93-14.88,6.83-24.81,16.93-27.24,27.71-1.68,7.43.33,14.81,5.8,21.35,13.48,16.11,74.79,21.29,98.13,14.25,6.51-2,23.49-13.43,51.65-39.75,20.53-19.18,35.7-35.71,39.94-41.22-.58-7.12-3.27-28.12-6.29-50.14C576.42,1940.13,526.37,1933.11,506.59,1929.1Z"/><path class="cls-1" d="M757.63,1971.88c.39,5.47,74.15,80.6,98.8,88s91.17,3.52,108.68-17.41c9.1-10.87,11-23.75,6-35.76-4.56-11.11-15-21.48-31-28.81-33.26-15.26-50.17-60.45-50.17-60.45s-45.53,12.41-88.25,1.52a100.49,100.49,0,0,1-35.52-16.4S757.23,1966.4,757.63,1971.88Z"/><path class="cls-2" d="M799.12,1943.23c.33,4.65,62.87,68.34,83.77,74.65,18.68,5.63,65.68,3.58,86.07-9.59.77-.5,1.5-1,2.19-1.54-4.56-11.11-15-21.48-31-28.81-33.26-15.26-50.17-60.45-50.17-60.45s-5.73,1.56-15,3.09c-16.92,2.78-45.65,5.46-73.22-1.57C800.24,1930.68,799,1941.29,799.12,1943.23Z"/><path class="cls-3" d="M875,1920.58a143.11,143.11,0,0,0,3,15.43c3.65,11.47,21,43.82,47.08,52.56s36.94,22.3,36.94,22.3,2.75-1,6.92-2.58c.77-.5,1.5-1,2.19-1.54-4.56-11.11-15-21.48-31-28.81-33.26-15.26-50.17-60.45-50.17-60.45S884.27,1919.05,875,1920.58Z"/><path class="cls-4" d="M853.55,2069.49c-15.43-4.65-42.49-28.16-62.48-47.06-10.23-9.68-20.67-20.15-28.63-28.73-13.68-14.75-14.53-17.63-14.78-21.11-.41-5.69,5.26-47.16,8.68-71.37l2.36-16.71,13.52,10.09c43.19,32.21,114.45,13.43,115.16,13.24l8.8-2.4,3.2,8.54c.15.41,15.8,41.48,45,54.87,20.9,9.59,34.54,24.32,38.41,41.49,3.06,13.54-.48,27.24-10,38.58-12.15,14.52-38.31,20.44-58.13,22.86a223.83,223.83,0,0,1-26.68,1.63C874.4,2073.41,862.09,2072.07,853.55,2069.49ZM774,1919.23c-3,22-5.7,43-6.29,50.14,4.24,5.51,19.42,22,39.94,41.22,28.16,26.31,45.14,37.79,51.65,39.75,23.34,7,84.65,1.86,98.13-14.25,5.47-6.54,7.48-13.92,5.8-21.35C960.82,2004,950.89,1993.85,936,1987c-27.88-12.79-45-43.26-51.87-57.93C864.35,1933.11,814.3,1940.13,774,1919.23Z"/><path class="cls-5" d="M632.35,1204l-39,36.85L581,1227.76l43.6-41.16-.56-1.24H564.29c9.25,36.43,28,89.16,65,134.76l21.63-74.74Zm3.76,61.45a1.6,1.6,0,0,1-3,.34c-4.33-8.17-14.48-28-14.22-34.69a1.49,1.49,0,0,1,.35-.87l5.86-7.32a3.65,3.65,0,0,1,6.19.8l9.71,21.91a1.55,1.55,0,0,1,.08,1.06Z"/><path class="cls-5" d="M766.71,1185.35l-.56,1.24,43.6,41.16-12.36,13.09-39-36.85-18.53,41.38,21.64,74.74c36.95-45.6,55.7-98.33,65-134.76Zm-9.14,80.44a1.6,1.6,0,0,1-3-.34l-5-18.77a1.67,1.67,0,0,1,.08-1.06l9.71-21.91a3.65,3.65,0,0,1,6.19-.8l5.86,7.32a1.55,1.55,0,0,1,.35.87C772.05,1237.74,761.91,1257.62,757.57,1265.79Z"/><path class="cls-6" d="M758.36,1204,744.5,1190.9l-19.43,43.39a147.17,147.17,0,0,0-59.42,0l-19.44-43.39L632.35,1204l18.53,41.37-21.63,74.74-1.86,6.43,68,69.56,68-69.56-1.86-6.43-21.64-74.74Zm-15.24,117.48-47.76,48.88-47.77-48.88,20-69.2a129.66,129.66,0,0,1,55.46,0Z"/><path class="cls-6" d="M624,1185.35l.56,1.25,1.32-1.25Z"/><path class="cls-6" d="M766.16,1186.6l.55-1.25h-1.87Z"/><path class="cls-7" d="M695.36,1249.27a140.63,140.63,0,0,0-27.73,3l-20,69.2,47.77,48.88,47.76-48.88-20-69.2A140.63,140.63,0,0,0,695.36,1249.27Zm31,61.23a43.38,43.38,0,0,1-62.06,0,11.66,11.66,0,0,1-2.86-11.4l11.09-38.3a11.64,11.64,0,0,1,9.58-8.31,92.6,92.6,0,0,1,26.46,0,11.65,11.65,0,0,1,9.58,8.31l11.09,38.3A11.72,11.72,0,0,1,726.39,1310.5Z"/><path class="cls-7" d="M727.82,1185.35a10.9,10.9,0,0,1,2.57,12.5l-7.94,17.74A10.93,10.93,0,0,1,711,1222a118.23,118.23,0,0,0-15.68-1.09,120,120,0,0,0-15.68,1.09,10.93,10.93,0,0,1-11.42-6.37l-8-17.74a10.93,10.93,0,0,1,2.57-12.5H652.08l-5.89,5.56,19.44,43.39a147.17,147.17,0,0,1,59.42,0l19.43-43.39-5.88-5.55H727.82Z"/><path class="cls-8" d="M708.59,1252.5a91.64,91.64,0,0,0-26.46,0,11.64,11.64,0,0,0-9.58,8.3l-11.09,38.3a11.66,11.66,0,0,0,2.86,11.4,43.38,43.38,0,0,0,62.06,0,11.66,11.66,0,0,0,2.86-11.4l-11.09-38.3A11.57,11.57,0,0,0,708.59,1252.5Zm-6.93,12.68h-12.6a5.09,5.09,0,1,1,0-10.18h12.61a5.09,5.09,0,1,1,0,10.18Z"/><path class="cls-8" d="M660.32,1197.85l7.95,17.74a10.93,10.93,0,0,0,11.42,6.37,118.23,118.23,0,0,1,15.68-1.09,120,120,0,0,1,15.68,1.09,10.93,10.93,0,0,0,11.42-6.37l7.94-17.74a10.93,10.93,0,0,0-2.57-12.5H662.9A10.89,10.89,0,0,0,660.32,1197.85Z"/><path class="cls-9" d="M701.66,1255h-12.6a5.09,5.09,0,1,0,0,10.18h12.61a5.09,5.09,0,1,0,0-10.18Z"/><path class="cls-10" d="M641,1245.62l-9.71-21.91a3.65,3.65,0,0,0-6.19-.8l-5.86,7.32a1.55,1.55,0,0,0-.35.87c-.26,6.64,9.89,26.52,14.22,34.69a1.6,1.6,0,0,0,3-.34l5-18.77A1.49,1.49,0,0,0,641,1245.62Z"/><path class="cls-11" d="M738.62,1185.35l5.88,5.56L758.36,1204l39,36.85,12.36-13.08-43.6-41.16-1.32-1.25Z"/><path class="cls-11" d="M625.88,1185.35l-1.32,1.25L581,1227.76l12.36,13.08,39-36.84,13.86-13.09,5.89-5.56Z"/><path class="cls-10" d="M765.59,1222.91a3.65,3.65,0,0,0-6.19.8l-9.71,21.91a1.55,1.55,0,0,0-.08,1.06l5,18.77a1.6,1.6,0,0,0,3,.34c4.33-8.17,14.48-28,14.22-34.69a1.49,1.49,0,0,0-.35-.87Z"/><path class="cls-12" d="M800.68,1713.35h-.62c-37.34-.08-72.54-7.55-104.7-22.22-32.16,14.66-67.36,22.14-104.7,22.22-31,0-63.52-4.94-96.66-14.88a422,422,0,0,1-69-27.62,559.62,559.62,0,0,0,7.22,73.15c7.63,46.33,24.8,113.51,63.31,172.75,16.13,2.73,77.92,11.43,127-5.22,5.95-14.88,26.35-67.73,33.89-110.81-28.21-11.4-42.16-31.93-42.16-31.93s35,19.35,81,19.35,81-19.35,81-19.35-14,20.53-42.16,31.93c7.54,43.08,27.94,95.93,33.89,110.81,49.12,16.66,110.9,8,127,5.22,38.51-59.24,55.68-126.42,63.31-172.75a559.62,559.62,0,0,0,7.22-73.15,421.59,421.59,0,0,1-69,27.62C863.8,1708.35,831.49,1713.35,800.68,1713.35Z"/><path class="cls-12" d="M583,1291.79c-30.69-6.76-51.74-21-62.57-42.3-15.27-30-7.66-68.07-1.35-89.06,5.89,33.33,24,106.76,71.88,129.79A74.54,74.54,0,0,1,583,1291.79Z"/><path class="cls-13" d="M617.94,1300.33c-30.88-36.9-59.91-86.88-67.24-149l2.15-8.36a769.48,769.48,0,0,0,28.69,83.53Q598.61,1268.1,617.94,1300.33Z"/><path class="cls-12" d="M692.42,1383.52q-2.56,5.3-5.26,11.24c-72.68-19.78-105.52-47.21-120.31-67.17-10-13.47-13.14-25.08-14.08-32.15a152.41,152.41,0,0,0,17.77-1.48c6.73,9,44.11,56.31,102.49,75.15a180.61,180.61,0,0,0,16.64,13.07A10,10,0,0,0,692.42,1383.52Z"/><path class="cls-13" d="M840,1151.36c-7.34,62.13-36.41,112.15-67.32,149.05q19.35-32.22,36.47-73.88A768,768,0,0,0,837.87,1143Z"/><path class="cls-12" d="M870.29,1249.49c-10.83,21.31-31.87,35.54-62.56,42.3h0a74.54,74.54,0,0,1-8-1.57c47.86-23,66-96.46,71.88-129.79C878,1181.42,885.56,1219.44,870.29,1249.49Z"/><path class="cls-14" d="M681.08,1675.55c-66.24,27.82-134.35,17.78-180.78,3.93A397.84,397.84,0,0,1,415.68,1643c6.25-18,21.12-65,29.77-128.16,6.42-46.84,8-92.76,4.77-136.51q-1.74-23.43-5.35-46a492.8,492.8,0,0,0-22.35-88.17q-2.38-6.71-5-13.29a436.34,436.34,0,0,1,79.89-67.49h0c-6.38,24.87-11.27,62.81,5.11,95.14a89.41,89.41,0,0,0,28.26,32.71,12.55,12.55,0,0,0,1.64,1c.77,20.73,14.41,84.37,146.8,121.15A450.76,450.76,0,0,0,664,1457.86c-10.7,37.89-15.24,74.56-13.49,109C652.55,1606.26,662.81,1642.77,681.08,1675.55Z"/><path class="cls-14" d="M945.27,1514.79c-6.42-46.84-8-92.76-4.77-136.51a548.69,548.69,0,0,1,7.43-58.17,483.78,483.78,0,0,1,25.24-89.31,436.49,436.49,0,0,0-79.9-67.5c6.39,24.87,11.28,62.82-5.1,95.16a89.41,89.41,0,0,1-28.26,32.71,13.44,13.44,0,0,1-1.65,1c-.66,16.38-9.4,59.73-78.58,95.3-67.83,34.87-92,68.62-100.33,90.9-17.79,74-10.06,139.18,23,193.95,68.5,31.77,139.93,21.51,188.06,7.15A397.84,397.84,0,0,0,975,1643C968.79,1625,953.92,1577.93,945.27,1514.79Zm-229.52,97a20.61,20.61,0,1,1,20.61-20.6A20.6,20.6,0,0,1,715.75,1611.74Z"/><path class="cls-14" d="M799.76,1290.23a74.54,74.54,0,0,0,8,1.57h0s5.22,1.15,12.49,2.15l-.38.51-.42.55c-.34.44-.75,1-1.23,1.59-8.2,10.46-32.17,38.45-68.21,58.42a106,106,0,0,0-45.23,49.61c-.66,1.47-1.32,3-2,4.51a109.31,109.31,0,0,1-17.36,8.34c2.42-4.22,42.6-57.58,43.45-58.93q23.13-23.52,43.89-58.14h0c30.91-36.9,60-86.92,67.32-149.05l-2.16-8.37c.89-3.19,1.67-6.06,2.33-8.54,9.41,4.09,18.46,8.58,27.12,13.31,1,2.7,2.64,7.09,4.32,12.67C865.75,1193.77,847.62,1267.2,799.76,1290.23Z"/><path class="cls-14" d="M464.18,1775.07c4.27,21.75,13.1,53.9,30.26,74.56a24.94,24.94,0,0,0,44.06-15.15c1-27.64.85-77.78-11.88-86.57-9.52-6.58-27.82-5-42.75-2.07A24.92,24.92,0,0,0,464.18,1775.07Z"/><path class="cls-14" d="M926.54,1775.07c-4.27,21.75-13.1,53.9-30.26,74.56a24.94,24.94,0,0,1-44.06-15.15c-1-27.64-.85-77.78,11.88-86.57,9.52-6.58,27.82-5,42.75-2.07A24.92,24.92,0,0,1,926.54,1775.07Z"/><path class="cls-14" d="M695.36,1749.89c-21.42,0-38.78-.67-38.78,8.52s17.36,16.64,38.78,16.64,38.78-7.45,38.78-16.64S716.78,1749.89,695.36,1749.89Z"/><path class="cls-12" d="M837.92,1295.44a62.06,62.06,0,0,1-5.36,17.67c-6.88,14.8-23.22,36.63-62,56.58q-43.86,22.55-71.34,47.8,1.77-4.29,3.53-8.34c.67-1.53,1.33-3,2-4.51A106,106,0,0,1,749.94,1355c36-20,60-48,68.21-58.42.48-.61.89-1.15,1.23-1.59l.42-.55.38-.51A151.69,151.69,0,0,0,837.92,1295.44Z"/><path class="cls-14" d="M673,1369.11c-58.38-18.84-95.76-66.12-102.49-75.15,7.27-1,12.49-2.15,12.49-2.15h0a74.54,74.54,0,0,0,8-1.57c-47.86-23-66-96.46-71.88-129.8,1.68-5.58,3.28-10,4.32-12.67,8.66-4.73,17.71-9.22,27.12-13.31.66,2.5,1.44,5.36,2.33,8.55l-2.15,8.36c7.33,62.09,36.36,112.07,67.24,149Q643.64,1343.22,673,1369.11Z"/><path class="cls-15" d="M583,1291.79h0s-5.22,1.15-12.49,2.16c-.73-1-1.1-1.52-1.1-1.52A62.77,62.77,0,0,0,583,1291.79Z"/><path class="cls-15" d="M772.7,1300.42Q752,1335,728.81,1358.56c-.85,1.35-2.63,4.24-5,8.46a164.1,164.1,0,0,1-23.16,6.62c2.38,1.51,3.71,2.28,3.71,2.28-3-.34-6-.78-8.95-1.29-2.94.51-5.92.95-9,1.29,0,0,1.33-.77,3.71-2.28a161.46,161.46,0,0,1-17.09-4.53q-29.32-25.81-55.09-68.78a379.56,379.56,0,0,0,77.42,69.89A379.49,379.49,0,0,0,772.7,1300.42Z"/><path class="cls-15" d="M821.28,1292.44s-.37.54-1.1,1.52c-7.27-1-12.49-2.16-12.49-2.16h0A62.68,62.68,0,0,0,821.28,1292.44Z"/><path class="cls-12" d="M717.77,1618.2a23.48,23.48,0,1,0-23.48-23.48A23.48,23.48,0,0,0,717.77,1618.2Z"/><path class="cls-12" d="M650.55,1566.85c2,39.41,12.26,75.92,30.53,108.7-66.24,27.82-134.35,17.78-180.78,3.93A397.84,397.84,0,0,1,415.68,1643c6.25-18,21.12-65,29.77-128.16,6.42-46.84,8-92.76,4.77-136.51q-1.74-23.43-5.35-46c43.2,135.57,8.84,294.88,8.84,294.88,80.22,45.39,179.61,19.17,179.61,19.17C603.58,1554.74,661,1420.14,661,1420.14c-132.75-29-139.6-119.73-139.6-119.73-64.77-52-24.66-135.62-24-137.08-6.38,24.87-11.27,62.81,5.11,95.14a89.41,89.41,0,0,0,28.26,32.71,12.55,12.55,0,0,0,1.64,1c.77,20.72,14.41,84.36,146.8,121.14A450.76,450.76,0,0,0,664,1457.86C653.34,1495.75,648.8,1532.42,650.55,1566.85Z"/><path class="cls-12" d="M975,1643a397.84,397.84,0,0,1-84.62,36.53c-48.13,14.36-119.56,24.62-188.06-7.15-33.07-54.77-40.8-119.94-23-193.95,8.32-22.28,32.5-56,100.33-90.9,69.18-35.57,77.92-78.92,78.58-95.3a13.44,13.44,0,0,0,1.65-1,89.41,89.41,0,0,0,28.26-32.71c16.38-32.34,11.49-70.29,5.1-95.16,40,99.64-27.13,137-27.13,137-7.82,117.16-154.56,95.77-176.08,186.33-25.07,105.46,34.82,156.52,34.82,156.52C818,1672.53,936.19,1624,936.19,1624c-29.74-179.6,11.74-303.9,11.74-303.9a548.69,548.69,0,0,0-7.43,58.17c-3.26,43.75-1.65,89.67,4.77,136.51C953.92,1577.93,968.79,1625,975,1643Z"/><path class="cls-13" d="M497.44,1163.31h0s-47,40.51-74.92,80.77q-2.38-6.71-5-13.29A436.34,436.34,0,0,1,497.44,1163.31Z"/><path class="cls-13" d="M893.27,1163.3h0s47,40.51,74.92,80.77q2.38-6.7,5-13.29A436.34,436.34,0,0,0,893.27,1163.3Z"/><path class="cls-16" d="M996.55,1643.6c-.21-.54-21-54.55-31.54-132.07-9.69-71.15-12.53-177.3,29-279a10,10,0,0,0-1.59-10.2c-2.54-3-63.36-74.9-155.47-110.9a10,10,0,0,0-13.38,7.07c-.41,1.8-41.51,176.79-128.21,243-86.7-66.26-127.8-241.25-128.21-243a10,10,0,0,0-13.38-7.07c-92.11,36-152.92,107.86-155.47,110.9a10,10,0,0,0-1.59,10.2c41.53,101.66,38.69,207.81,29,279-10.56,77.51-31.33,131.53-31.54,132.06a10,10,0,0,0,3.81,12c.37.25,2.76,1.8,6.87,4.24a552.74,552.74,0,0,0,7.6,87c8.08,49.33,26.58,121.41,68.81,184.62a10,10,0,0,0,6.32,4.24,355.25,355.25,0,0,0,64.91,5.92c25.5,0,54.9-2.9,81.2-12.74a10,10,0,0,0,5.73-5.52c1.16-2.78,26.87-64.8,36.39-116.94a108.25,108.25,0,0,0,39.1,0c9.52,52.13,35.23,114.16,36.39,116.94a10,10,0,0,0,5.73,5.52c26.31,9.84,55.71,12.74,81.2,12.74a355.38,355.38,0,0,0,64.91-5.92,10,10,0,0,0,6.32-4.24c42.23-63.21,60.73-135.29,68.81-184.62a552.74,552.74,0,0,0,7.6-87c4.11-2.44,6.5-4,6.87-4.24A10,10,0,0,0,996.55,1643.6Zm-267.74-285c29.79-30.29,56.73-74.51,80.37-132a765.77,765.77,0,0,0,31-92.08c9.42,4.09,18.46,8.58,27.12,13.31,5,12.86,22.3,63.69,3,101.74-10.83,21.32-31.89,35.56-62.6,42.32a177.43,177.43,0,0,0,30.23,3.63,61.8,61.8,0,0,1-5.35,17.68c-6.88,14.8-23.23,36.63-62,56.58q-43.86,22.55-71.34,47.8C712.47,1385.21,725.93,1363.14,728.81,1358.56ZM523.4,1147.75c8.66-4.73,17.71-9.22,27.12-13.31a761.53,761.53,0,0,0,31,92.08c30.77,74.91,67.15,127.28,108.13,155.66a9.93,9.93,0,0,0,2.76,1.34q-2.56,5.3-5.26,11.24c-72.68-19.78-105.52-47.21-120.31-67.17-10-13.47-13.14-25.08-14.08-32.15a176.7,176.7,0,0,0,30.26-3.63c-30.71-6.76-51.78-21-62.6-42.32C501.1,1211.44,518.44,1160.61,523.4,1147.75Zm-77.95,367c6.42-46.83,8-92.76,4.77-136.51-3.91-52.6-14.9-102.18-32.67-147.47a436.41,436.41,0,0,1,79.9-67.51c-6.39,24.87-11.28,62.82,5.1,95.16a89.48,89.48,0,0,0,28.25,32.71,15.55,15.55,0,0,0,1.64,1c.78,20.72,14.41,84.36,146.81,121.15A444.75,444.75,0,0,0,664,1457.86c-10.7,37.89-15.24,74.56-13.49,109,2,39.41,12.26,75.91,30.54,108.69-66.25,27.82-134.36,17.78-180.79,3.93a397.84,397.84,0,0,1-84.62-36.53C421.93,1625,436.8,1577.93,445.45,1514.79Zm513,229.22c-7.63,46.33-24.8,113.51-63.31,172.75-16.13,2.73-77.92,11.43-127-5.22-6-14.88-26.35-67.73-33.89-110.81,28.21-11.4,42.16-31.93,42.16-31.93s-35,19.35-81,19.35-81-19.35-81-19.35,13.95,20.53,42.16,31.93c-7.54,43.08-27.94,95.93-33.89,110.81-49.12,16.66-110.9,8-127,5.22-38.51-59.24-55.68-126.42-63.31-172.75a559.62,559.62,0,0,1-7.22-73.15,421.59,421.59,0,0,0,69,27.62c33.13,9.94,65.65,14.91,96.66,14.88,37.34-.08,72.54-7.55,104.7-22.22,32.16,14.66,67.36,22.14,104.7,22.22h.62c30.81,0,63.13-5,96-14.88a422,422,0,0,0,69-27.62A567.61,567.61,0,0,1,958.46,1744Zm-68-64.53c-48.13,14.35-119.56,24.62-188.06-7.15-33.07-54.78-40.8-119.95-23-194,8.32-22.27,32.49-56,100.33-90.9,69.18-35.56,77.92-78.91,78.58-95.29a14.94,14.94,0,0,0,1.66-1,89.47,89.47,0,0,0,28.25-32.71c16.38-32.34,11.49-70.29,5.1-95.16a435.64,435.64,0,0,1,79.9,67.51c-17.77,45.29-28.76,94.87-32.67,147.47-3.25,43.75-1.65,89.67,4.77,136.51C953.92,1577.93,968.79,1625,975,1643A398.49,398.49,0,0,1,890.42,1679.48Z"/><path class="cls-16" d="M715.75,1611.75a20.61,20.61,0,1,0-20.61-20.61A20.61,20.61,0,0,0,715.75,1611.75Z"/><path class="cls-12" d="M873.42,1338.88,853.88,1333l-1.47,14.61,27.43,10.3s10.7-21.39,14-26.74l5.61-8.48S884.35,1329.09,873.42,1338.88Z"/><path class="cls-10" d="M879.15,1357.92l-5.73,31.32-3.76,20.59c-31.82-1-57.91,15.59-57.91,15.59a270.56,270.56,0,0,0-39.82-55.07c-18.53-19.84-33.48-29.91-33.48-29.91C813.48,1328.73,879.15,1357.92,879.15,1357.92Z"/><path class="cls-17" d="M873.42,1389.24l-3.76,20.59c-31.82-1-57.91,15.59-57.91,15.59a270.56,270.56,0,0,0-39.82-55.07C821.53,1370.22,861.91,1384.67,873.42,1389.24Z"/><path class="cls-11" d="M877.14,1366.24c-60.9-30.2-127.42-15.61-128.09-15.46l-4-17.55c3-.68,73.29-16.25,140.1,16.88Z"/><path class="cls-14" d="M972.46,1250.13h-.67c-81.9,31.12-102.52,156.31-102.52,156.31l-60.65,16c-16.43-43.83-57.91-80.22-57.91-80.22-120.13-19.91-190.17,42.65-190.17,42.65l-65.35-57.13s-6.26-29-28.17-52-48.08-23.94-48.08-23.94l-19.61,19.75c-45.91,80.87-32.87,220.7,53.74,269.22s244.17-40.7,244.17-40.7c195.13,131.48,313.57,2.61,318.78-95.38S972.46,1250.13,972.46,1250.13Z"/><path class="cls-13" d="M417.55,1230.81l5.6,15.15s-30,39.76-34.4,73.21c0,0,17.44-43.69,42.71-68.05a10,10,0,0,0,2.75-9.69l-3.59-14Z"/><path class="cls-13" d="M973.17,1230.8l-4.73,12.78s17.68,24.34,29.44,75.6c0,0-13.35-43.7-38.62-68.06a10,10,0,0,1-2.75-9.68l3.59-14Z"/><path class="cls-12" d="M646.23,1521.88,677,1509.16l1.28,21.82c122.09-83.63,154.26-107.32,154.26-107.32l-33.91-2.77s-182.48,104.9-265.05,100.6-144.69-74-150.21-133.85c0,0-7.48,110.76,80.56,156.93l-12.13,18.78s63,70.25,191.13-8.72Z"/><path class="cls-12" d="M688.1,1519.92s117.39,100.57,248.48,44.22l6.26-22.7s73.69-60.2,66.52-148.3c0,0-36,113.87-116.22,130.7s-156.78-33.95-156.78-33.95Z"/><path class="cls-12" d="M495.19,1327.79s33.46,46.76,37.76,85.7l32.28-33.07,11.09-14.93S556.23,1340.51,495.19,1327.79Z"/><path class="cls-12" d="M899.4,1322.7,861.57,1402l49.57,17.74C885.32,1377,899.4,1322.7,899.4,1322.7Z"/><path class="cls-13" d="M736.36,1338.05s-119.09-6.94-206,79.44l-8.8,14.39S628,1349,757.75,1359.64Z"/><path class="cls-13" d="M921.06,1428.27c-19.57-14.43-47-19.48-47-19.48l-47.67,17c57-13,105.46,16.3,105.46,16.3Z"/><path class="cls-16" d="M990.69,1241.9l-18.18,8.21c38.87,86,43.75,165.06,13.82,222.49-20.3,39-55.25,64.86-98.43,73-73.57,13.82-150.47-28.41-180.19-47.26,13.37-8,26.26-15.86,38.59-23.43,49.17-30.22,91.76-56.39,124.15-59.12,12.91.07,46.88,7.48,61.43,26.28,0,0-12.91-37.34-49.9-43.48,3.14-40.59,17.42-75.87,17.42-75.87s-33.66,27.41-37.34,74c-14.2,2.22-29.41,7.64-45.61,15.23-28.36-56.4-66.19-80.57-67.87-81.63l-2-1.22-2.29-.25c-82.29-8.82-140.27,17.4-174.42,40.94-1.58,1.09-3.1,2.18-4.61,3.27-28.66-32.89-70.13-45.22-70.13-45.22.37.21,28,27.64,54.43,57.65-23.31,20.13-28,46.44-28,46.44.16-.25,22-24.73,57.13-46,47.54-28.76,100.86-43.42,161-37.46,7.4,5.24,36.31,27.69,58.84,72.45-19.61,10.45-40.54,23.31-62.75,37-36.3,22.3-77.44,47.58-121.51,67.58-58.18,26.39-109.63,31-148.79,13.23-33.77-15.29-58.1-46.8-72.29-93.63a235.72,235.72,0,0,1,.21-137.6c10.49-34.31,25.34-55.38,25.48-55.59L410.8,1246l-8.13-5.84c-.67,1-16.6,23.41-28.1,60.59a255.57,255.57,0,0,0-.47,150c15.94,52.59,43.93,88.27,83.18,106,18.24,8.26,38.58,12.37,60.62,12.37,31.8,0,67.13-8.57,104.68-25.61,22.9-10.39,44.89-22.09,65.81-34.05a383.12,383.12,0,0,0,59.83,33.09c38.3,16.94,75.6,25.58,109.69,25.58a183.17,183.17,0,0,0,33.69-3c49.34-9.27,89.28-38.88,112.47-83.39C1036.9,1418.85,1032.14,1333.64,990.69,1241.9Z"/><path class="cls-18" d="M1246.21,305.7c1.91,30.35-4,63.84-14.65,97a249.69,249.69,0,0,1-26.18,55.93,413.45,413.45,0,0,1-75,89.47c-14,12.59-29.75,22.27-45,32.87-4.31,3-5.74,6-5.82,11.19-.09,5.74,1.1,12-2.43,17.26-2.69,4,1.06,5,3.1,6.13,7.5,4.23,10.06,10.21,8.64,18.74-2.51,15.12-.13,30.3.76,45.41.35,6-.59,9.66-6.4,11.35-6.18,1.81-6.21,4.74-3.17,10.08,13.53,23.84,24.12,49.06,35.08,74.16,9.69,22.17,13.89,45.66,21.07,68.38,9.29,29.43,8.7,58.66,3.22,88.27-5,27-15.46,51.68-30,75.09-18.86,30.49-43.29,55.35-71.29,77.35-24.11,19-51,32.9-77.7,47.62-22.83,12.6-47.59,19.5-71.56,28.82-20.78,8.09-42.67,11.06-63.78,17.14-19.4,5.58-39.15,6.74-58.75,9.87-33.22,5.3-66.57,6.69-100.23,5.61-29.42-.94-58.61-2.62-87.79-6.83A743.2,743.2,0,0,1,496,1170.3a487.29,487.29,0,0,1-105.19-41c-45.08-23.81-83-55.18-109.49-98.87-14.9-24.55-25.07-51.08-28.09-80.32-1.77-17.11-1.21-34-1-51,.32-28.83,7-56.2,14.15-83.82A343.81,343.81,0,0,1,293,745.47c2.63-5.17,3.28-11.19,6.76-16.08,2.91-4.11-1.28-5-3.47-5.6-10.3-2.85-13.41-9.35-11.81-19.59,2.07-13.34-2.14-26.48-2.28-39.83-.07-7.39,1.58-12.81,8.6-15.82,5-2.15,5.57-4.12,1.1-8.18-3.69-3.34-5-9-5-13.79,0-7.14-2.24-9.28-9.48-11.69-16.21-5.37-30.78-14.6-44.6-25-23.89-17.91-46.49-37.32-66-59.8-21.23-24.43-40.73-50.19-52.62-81-11-28.52-20.6-57.07-22.83-88-2-27.64-1.87-54.74,3.11-82.2,7.35-40.46,23.26-76.8,45.38-111.18,14.25-22.15,32.21-40.61,51-58.54,9-8.61,21.16-8.41,33.76-.93,7,4.18,9.86,13.57,7.85,24.73-6.53,36.36-9.21,73.31-1.4,109.32,9.17,42.18,28.41,79.82,63.56,107.52,10.45,8.24,20.38,17,31.27,24.83a266.73,266.73,0,0,0,50.92,28.91c19.07,8.11,38.68,16.33,60.55,15.42,7.77-.32,10.82-5.77,14.72-9.83,14.38-15,32.18-24.93,49.05-36.48,27.65-18.93,59-26.82,90.72-34.42a9.37,9.37,0,0,0,.92-.19c4.9-1.87,13,1.37,14.67-3.17,2.69-7.28,4.25-15.75,2.77-23.81-1.37-7.52.8-12.22,7.56-15.88,21-11.35,42.48-17,67-15.16,15.86,1.21,29.2,7.39,43.38,12.31,3.79,1.31,4,5.2,4.37,8.64.92,8.69,1.8,17.38,2.78,26.06.38,3.35.72,5.11,5.77,4.86,7.62-.37,15.38,2,23.08,3.2,29.63,4.57,57.06,15.15,83.7,28.75a231.6,231.6,0,0,1,50.92,34.89c5.12,4.66,10.16,3.46,15.53,2.34,41-8.54,74.92-29.65,106.2-57,23.69-20.7,44.24-43.8,59.7-70.69,10.59-18.41,14.83-39.84,17.81-61.14,3.21-23,2.23-46.09-.8-68.8a360.89,360.89,0,0,0-7.49-37.38c-2.75-11.24-4.55-23,6.13-31.76,9.12-7.45,24.35-7.33,33.82.19,35.2,28,64.76,60.59,84.31,101.7,13.93,29.31,25.45,59.07,29.44,91.71A304.17,304.17,0,0,1,1246.21,305.7ZM949.79,558.49c.73.85,2,1.91,2.59.81.77-1.39-1.13-1.18-1.93-1.6-3.36-7.59-9.78-12.89-15.26-18.6-17.71-18.43-27.65-40.92-35.57-64.54-3.73-11.13-2.21-22.9-2.06-34.4.22-16.31-5.72-28.48-19.38-38.34-29.52-21.3-61.1-38-96.31-47.31-11.64-3.08-23.78-4.38-35.75-6.06-2.76-.39-7.76-2.15-7.35,3.89.46,6.81.73,13.76,2.33,20.35,6.06,25,7.45,50.76,11.25,76.08s8.24,50.7,10.22,76.31c.33,4.28,2.67,4.58,6,5.33,18.48,4.09,37.46,3.81,56.11,6.9,22.79,3.77,46,4.93,69,7.84C912.8,547.58,931.33,553,949.79,558.49Zm-280.85,110a29.63,29.63,0,0,1-5.48,1.12c-36.1.74-72,3.79-107.52,10.35-19.21,3.54-38.6,5.21-57.75,10.2-22.79,5.93-45.9,10.6-68.67,17.09-28.82,8.21-56.51,19.08-84.09,30.41a27.59,27.59,0,0,1-19,1c-10.77-3.16-15.17-.87-19.24,9.45-10.67,27-21.8,53.75-29,82.09-4.46,17.55-7.73,35-8.71,53-4.39,9.4-1.28,19.3-2.08,28.91-1.83,22.08,1.63,43.33,7.14,64.53,10.69,41.07,36,72,67,99.56a307.94,307.94,0,0,0,97,58.63c22.5,8.52,44.88,17,68.48,22.41,27.11,6.24,54.17,11.73,81.89,15,30.62,3.6,61.15,5.3,91.94,5.85,35,.63,69.37-2.74,103.75-8.64,20.19-3.47,40.51-5.79,60.19-12,21.25-6.74,43-11.42,63.9-19.89,35-14.19,69.15-29.31,99.92-51.52,24.74-17.85,48.38-36.63,67.71-60.66,25.06-31.13,43.75-64.64,49.33-105a181.86,181.86,0,0,0-4.54-73.76c-.11-8.3-4.45-15.44-6.35-23.19-9.59-39.09-27.57-74.54-46-109.89-4.2-8-8.5-9.54-16-5.25-7.11,4.07-14.76,7.21-23,4.82-6.83-2-13.84-3.58-20.49-5.82a623.8,623.8,0,0,0-81-21.12c-25.91-5-51.84-9-78-12.22-30.5-3.77-60.94-5.38-91.6-6.25-19.62-.57-39.15-.57-58.72.15C689.55,667.21,679.18,665,668.94,668.51ZM307.67,602.28c12.72-2.93,26.15-4.14,38-9.09,35.95-15,62.11-40.44,79.14-76,11.81-24.68,10.32-50,8.67-75.72-.31-4.74-2.08-6.9-7.25-7.4-8.6-.84-17.36-1.92-25.59-4.43C372.28,421,346.43,407,322,390.35c-13.1-8.94-25.24-19-37.48-29.11-23.08-19-39.6-42.95-53.78-68.45-11.75-21.12-15.55-45.44-18.47-69-3.81-30.84-.5-62,4.06-92.74.62-4.19,1.71-8-3.23-10.37s-8.73-1.36-12.69,2.29c-19.42,18-36.81,37.41-51.18,59.86A272,272,0,0,0,110,283.45c-5.8,32.61-6.42,64.6.22,96.93,4.44,21.62,9.13,42.81,19.07,63.09,15.75,32.15,34.56,61.69,59.25,87.67C208.29,552,230,570.58,254.16,585.83,269.93,595.8,287,605.6,307.67,602.28Zm923.66-287.17c-4-13.15-.22-27.43-3.09-41.14-6.67-31.83-12.79-63.48-29.65-92.56-14.49-25-30.37-48.47-50.47-69-9.32-9.51-20.1-17.57-30.22-26.3-4.31-3.72-8.32-1.21-11.9,1-2.53,1.59-4.84,4.16-3.12,7.84,5.28,11.24,5.41,23.57,7.53,35.47,5.83,32.67,7.12,65.35.67,98.15-6.09,31-18.45,59.34-37.61,84.16-10.76,13.93-23.34,26.59-36.53,38.59A283.14,283.14,0,0,1,996,382.21c-23.15,14.42-46.18,29.92-74.28,33.07-7.21.81-8.21,4.16-9.14,10-2.4,15.1.67,29.75,3.08,44.37,6.51,39.33,33.33,64.14,63.16,86.6,18.6,14,41.16,15.1,62.82,18.26,7.48,1.1,15.77,2,23.76-1.5,20.39-8.85,38.7-20.38,54.84-35.9,26.35-25.35,51.88-50.79,68.84-84.22,10.81-21.33,20.74-42.6,28.86-65.14C1226.44,364.15,1226.42,339.66,1231.33,315.11ZM611.4,551.37c-8.44-.3-17-1.73-25.18.93-24,7.78-49.48,8-73.71,15.06-14.88,4.31-31.25,3.81-45.83,8.78-30.52,10.4-61.3,20.38-89.32,37.28-19.43,11.72-39.59,22.27-59.21,33.74-14.56,8.51-24.75,18.33-19,36.93.52,1.72.16,3.72.17,5.6.05,12.19,3.49,20.79,16.75,25.9,11,4.23,20.17,6,31,1,18.9-8.75,39.27-13.54,58.67-21.17,20.46-8,42.5-11.75,63.87-17.06,38.28-9.5,77.51-14.43,116.48-20.38,17.44-2.66,35.23-2.23,52.83-5,17.1-2.72,34.78-2.21,52.12-2.6,39.76-.9,79.62-.81,119.31,3.51,25.86,2.82,51.89,4.21,77.64,7.75,20.58,2.82,41.11,6.09,61.43,11.11,23.73,5.88,47.93,9.9,70.78,18.9,8,3.13,15.19,3.48,23.21.35s15.29-8.33,24.19-9.6c4.48-.64,5.33-4.48,5-8.69-.87-12,.83-24.07.12-36.22-.52-8.68-5-11.52-11.3-13.49-2.88-.9-5.94-1.16-8.86-2.43-14.78-6.39-28.21-15.31-43.09-21.72-20.28-8.75-40.76-16.94-61.31-24.95-35.77-13.92-74-15.58-111.47-20.42-24.16-3.11-48.54-4.57-72.67-7.83-24.89-3.37-49.88-2.15-74.6-1C663.39,546.91,637.19,546.7,611.4,551.37ZM399.69,583.14c7.93-1.08,14.36-4.62,20.92-8,20.93-10.9,44.25-15.33,66.8-19.55,32.81-6.13,65.24-14.77,98.58-18,5-.48,8-2.31,8.61-7.79,1.43-12.33,3.8-24.6,3.13-37.08-1-18,2-35.86,3.19-53.61,1.64-25,1.18-50.3,5.92-75.14,1.69-8.85-1.29-11.32-10.64-9.85a215.83,215.83,0,0,0-30.6,7c-44.34,13.8-83.05,36-113.59,71.56-2.66,3.09-4,5.44-2.86,9.8,5,20,3.14,40.3-1.14,59.78a134.85,134.85,0,0,1-27.61,56.39C413.67,566.93,407.34,575.49,399.69,583.14ZM730.05,530c2.24,0,3.8,0,5.36,0,11.18.21,10.93.23,10.13-11.27-1.39-19.85-5.75-39.26-8.34-58.93-4.46-33.88-9.11-67.74-14.4-101.5-2.4-15.34.39-31.09-5-46.25-1.77-5-3.91-7.83-8.37-10-20.25-10.05-41.33-8.45-61.83-2.7-26,7.3-23.35,5.94-22.09,28.92a10.57,10.57,0,0,1-.12,1.86c-2,15.43-2.94,30.9-3.82,46.44-1.74,30.59-3.76,61.18-5.89,91.74-1.38,19.77-.8,39.76-4.42,59.37-.89,4.87.73,6.92,5.84,6.58,12.07-.81,24.2-1.44,36.23-2C679.09,530.92,704.85,527.19,730.05,530ZM341,612.25c-8.52,2-17.07,4-25.56,6.16-3.9,1-2.45,4.46-2.54,7-.07,2.08-.45,4.74,2.29,5.44,2.38.61,4.06-1.24,5.5-2.84C326.37,621.67,334.09,618.29,341,612.25ZM1028,588.75c6.76,7.42,14.54,9.74,21.39,13.49,3,1.62,3.68-.85,4.21-3.06.6-2.49,3.13-5.81-1-7C1045.17,589.91,1037.56,588,1028,588.75Z"/><path class="cls-19" d="M1121.13,846.61a181.86,181.86,0,0,1,4.54,73.76c-5.58,40.39-24.27,73.9-49.33,105-19.33,24-43,42.81-67.71,60.66-30.77,22.21-64.94,37.33-99.92,51.52-20.92,8.47-42.65,13.15-63.9,19.89-19.68,6.25-40,8.57-60.19,12-34.38,5.9-68.76,9.27-103.75,8.64-30.79-.55-61.32-2.25-91.94-5.85-27.72-3.27-54.78-8.76-81.89-15-23.6-5.43-46-13.89-68.48-22.41a307.94,307.94,0,0,1-97-58.63c-30.94-27.57-56.27-58.49-67-99.56-5.51-21.2-9-42.45-7.14-64.53.8-9.61-2.31-19.51,2.08-28.91,20.24-7,41.3-4.75,61.66-3,21.47,1.84,42.09,8.9,61.79,19,16.49,8.44,31.2,20.19,49,26.18-2.39,21.44-.83,42.59,2.63,63.91,3.42,21,8.35,41.07,19.16,60.85,3.18-7.52-2.09-11.51-2.82-16.63a652.62,652.62,0,0,1-5.59-65.79c-.45-11.63.73-23.17,1.66-34.72,13.9,3.26,24.86-3.67,34.92-11.29,20.3-15.38,36.23-36,57.76-49.83,31-19.81,63.13-36.78,99.88-44.6a306.65,306.65,0,0,1,74.64-6.25,160.16,160.16,0,0,1,41.1,7.31c31.26,9.64,61.06,22.76,86.86,43.53,9.92,8,19.53,16.37,29.49,24.31,17.51,13.94,36.29,22.74,59.12,13.4,7.56,18.58,6.35,38.49,7.19,57.74.86,19.64-2.1,39.49-6.14,59.4,4.12-.92,4.22-4.43,4.59-7.08,2.6-18.79,7.79-37,8.91-56.27,1.2-20.53,3.46-40.64-2.21-60.74a102.16,102.16,0,0,0,18.74-12.27,194.6,194.6,0,0,1,59.38-32.31C1060.29,848.5,1090.16,842.7,1121.13,846.61ZM698.46,963.91c5.16,5,8.93,11.6,15.37,13.75,16,5.32,31.42,10.51,49.63,6.92,26.32-5.19,41.65-24.63,42.83-48.8.28-5.66-.28-12.14-8.15-12.21s-8,5.8-7.87,11.92c.3,16.8-9.54,30.45-25,33.79a65.57,65.57,0,0,1-20.46.78c-22.1-2.34-33.55-10.84-37.28-27.22-1-4.49.33-9.75-1.4-13.8-2.45-5.71.29-6.24,4.42-7,18.21-3.6,30.91-15.36,41.52-29.42,8.08-10.72,5.15-21.66-6.12-29.19-6.77-4.52-14.49-5-22.1-6.35-25.07-4.46-49.58-1-73.84,5.22-8.68,2.22-15.14,7.91-16.71,16.93-1.73,9.91,2.73,17.55,10.25,24.37,11.56,10.48,24.08,17.89,40,19,2.49.17,6.22-.33,7.32,4.13,3.8,15.31-6,34.74-19.55,42.57-13,7.51-25.43,4.79-38.62,2.16-7.16-1.43-12.76-4.36-17.22-9.84a34.32,34.32,0,0,1-8.12-22.4c0-5.41-1.72-9.5-7.56-9.75-6.46-.27-8.63,4.3-8.64,9.87-.06,17.92,7.15,33.61,22.46,41.61,19.29,10.07,40.34,15.93,61.72,2.46C683.85,977.92,693.58,974.41,698.46,963.91Z"/><path class="cls-20" d="M1121.13,846.61c-31-3.91-60.84,1.89-90,11.49a194.6,194.6,0,0,0-59.38,32.31c-5.9,4.64-11.95,9-18.74,12.26-8-28.44-23.17-52.8-42.89-74.51-4.59-5-9.17-10.1-13.81-15.11-2.77-3-2.47-5.2,1.85-5.22,20.55-.14,41.32-4.68,61,6.81,6.47,3.78,12.95,8.45,21,12-3.61-9.69-30.53-31-41.8-33.62-12.39-2.87-24.86-5.38-37.34-7.81-2.89-.56-6-.39-5.12-4.56,1.53-7.32-1.44-14.1-2.36-21.1-2.15-16.41-9.93-30.07-22.4-40.85-7.87-6.82-13.79-6.85-21.25.31s-15.73,13.25-24.15,19.11C813.59,746.58,806,757,806.37,772.68c.13,6.2,2.68,11.4,3.69,17.16,2.68,15.36,11.06,27.41,23.18,37.13,8.87,7.12,19.39,9.69,28.75,4.53,10.94-6,17-1.92,23.53,5.7,1.38,1.61,3.47,2.57,5,4,20.94,19.69,39.7,41,50.16,68.38-22.83,9.34-41.61.54-59.12-13.4-10-7.94-19.57-16.32-29.49-24.31-25.8-20.77-55.6-33.89-86.86-43.53a160.16,160.16,0,0,0-41.1-7.31,306.65,306.65,0,0,0-74.64,6.25c-36.75,7.82-68.91,24.79-99.88,44.6-21.53,13.78-37.46,34.45-57.76,49.83-10.06,7.62-21,14.55-34.92,11.29,4.45-18.87,10.9-36.79,22.95-52.42a381.3,381.3,0,0,1,28.62-33.09c4.85-5,7.66-6.52,14.47-3.76,13.24,5.37,25.12,2.31,35.88-7.87,19.29-18.28,19.61-41.26,17.44-64.92-.54-5.89-4.18-10.55-9.29-14.47-13.59-10.41-29-18.18-42-29.44-1.93-1.69-4.27-3.29-6.72-1.45-5.18,3.9-10.92,7.45-15,12.34-13.43,16-18,34.88-14.83,55.42,1,6.29-.7,8.84-6.91,10-20.54,3.9-37.71,14.59-52.7,28.55-6.15,5.73-13.4,11.5-14.18,21.18-.55.85-2.67,1.17-1.45,2.52.85.94,2.29.33,3-1,12.32-19.32,60.58-33.87,76-26.91a383.16,383.16,0,0,0-26.08,35c-11.19,16.58-15.95,35.56-23.51,53.47-1.14,2.7-.55,6.14-.76,9.23-17.75-6-32.46-17.74-49-26.18-19.7-10.09-40.32-17.15-61.79-19-20.36-1.75-41.42-4-61.66,3,1-18,4.25-35.48,8.71-53,7.19-28.34,18.32-55.08,29-82.09,4.07-10.32,8.47-12.61,19.24-9.45a27.59,27.59,0,0,0,19-1c27.58-11.33,55.27-22.2,84.09-30.41,22.77-6.49,45.88-11.16,68.67-17.09,19.15-5,38.54-6.66,57.75-10.2,35.55-6.56,71.42-9.61,107.52-10.35a29.36,29.36,0,0,0,5.47-1.12c10.34.55,20.66.68,31-.67,19.57-.72,39.1-.72,58.72-.15,30.66.87,61.1,2.48,91.6,6.25,26.19,3.24,52.12,7.22,78,12.22a623.8,623.8,0,0,1,81,21.12c6.65,2.24,13.66,3.85,20.49,5.82,8.28,2.39,15.93-.75,23-4.82,7.48-4.29,11.78-2.77,16,5.25,18.48,35.35,36.46,70.8,46,109.89C1116.68,831.17,1121,838.31,1121.13,846.61Z"/><path class="cls-21" d="M307.67,602.28c-20.66,3.32-37.74-6.48-53.51-16.45C230,570.58,208.29,552,188.5,531.14c-24.69-26-43.5-55.52-59.25-87.67-9.94-20.28-14.63-41.47-19.07-63.09-6.64-32.33-6-64.32-.22-96.93a272,272,0,0,1,39.28-100.63c14.37-22.45,31.76-41.9,51.18-59.86,4-3.65,7.87-4.56,12.69-2.29s3.85,6.18,3.23,10.37c-4.56,30.78-7.87,61.9-4.06,92.74,2.92,23.57,6.72,47.89,18.47,69,14.18,25.5,30.7,49.42,53.78,68.45,12.24,10.09,24.38,20.17,37.48,29.11C346.43,407,372.28,421,400.66,429.62c8.23,2.51,17,3.59,25.59,4.43,5.17.5,6.94,2.66,7.25,7.4,1.65,25.75,3.14,51-8.67,75.72-17,35.58-43.19,61-79.14,76C333.82,598.14,320.39,599.35,307.67,602.28Z"/><path class="cls-21" d="M1231.33,315.11c-4.91,24.55-4.89,49-13.38,72.6-8.12,22.54-18,43.81-28.86,65.14-17,33.43-42.49,58.87-68.84,84.22-16.14,15.52-34.45,27-54.84,35.9-8,3.47-16.28,2.6-23.76,1.5-21.66-3.16-44.22-4.25-62.82-18.26-29.83-22.46-56.65-47.27-63.16-86.6-2.41-14.62-5.48-29.27-3.08-44.37.93-5.8,1.93-9.15,9.14-10,28.1-3.15,51.13-18.65,74.28-33.07a283.14,283.14,0,0,0,40.93-30.83c13.19-12,25.77-24.66,36.53-38.59,19.16-24.82,31.52-53.18,37.61-84.16,6.45-32.8,5.16-65.48-.67-98.15-2.12-11.9-2.25-24.23-7.53-35.47-1.72-3.68.59-6.25,3.12-7.84,3.58-2.25,7.59-4.76,11.9-1,10.12,8.73,20.9,16.79,30.22,26.3,20.1,20.51,36,44,50.47,69,16.86,29.08,23,60.73,29.65,92.56C1231.11,287.68,1227.3,302,1231.33,315.11Z"/><path class="cls-22" d="M611.4,551.37c25.79-4.67,52-4.46,78-5.72,24.72-1.19,49.71-2.41,74.6,1,24.13,3.26,48.51,4.72,72.67,7.83,37.51,4.84,75.7,6.5,111.47,20.42,20.55,8,41,16.2,61.31,24.95,14.88,6.41,28.31,15.33,43.09,21.72,2.92,1.27,6,1.53,8.86,2.43,6.34,2,10.78,4.81,11.3,13.49.71,12.15-1,24.17-.12,36.22.31,4.21-.54,8.05-5,8.69-8.9,1.27-16.12,6.44-24.19,9.6s-15.24,2.78-23.21-.35c-22.85-9-47-13-70.78-18.9-20.32-5-40.85-8.29-61.43-11.11-25.75-3.54-51.78-4.93-77.64-7.75-39.69-4.32-79.55-4.41-119.31-3.51-17.34.39-35-.12-52.12,2.6-17.6,2.81-35.39,2.38-52.83,5-39,5.95-78.2,10.88-116.48,20.38-21.37,5.31-43.41,9-63.87,17.06-19.4,7.63-39.77,12.42-58.67,21.17-10.8,5-20,3.23-31-1-13.26-5.11-16.7-13.71-16.75-25.9,0-1.88.35-3.88-.17-5.6-5.71-18.6,4.48-28.42,19-36.93,19.62-11.47,39.78-22,59.21-33.74,28-16.9,58.8-26.88,89.32-37.28,14.58-5,30.95-4.47,45.83-8.78,24.23-7,49.72-7.28,73.71-15.06C594.41,549.64,603,551.07,611.4,551.37Z"/><path class="cls-23" d="M399.69,583.14c7.65-7.65,14-16.21,20.71-24.5A134.85,134.85,0,0,0,448,502.25c4.28-19.48,6.18-39.82,1.14-59.78-1.11-4.36.2-6.71,2.86-9.8,30.54-35.55,69.25-57.76,113.59-71.56a215.83,215.83,0,0,1,30.6-7c9.35-1.47,12.33,1,10.64,9.85-4.74,24.84-4.28,50.17-5.92,75.14-1.17,17.75-4.17,35.63-3.19,53.61.67,12.48-1.7,24.75-3.13,37.08-.63,5.48-3.64,7.31-8.61,7.79-33.34,3.21-65.77,11.85-98.58,18-22.55,4.22-45.87,8.65-66.8,19.55C414.05,578.52,407.62,582.06,399.69,583.14Z"/><path class="cls-22" d="M730.05,530c-25.2-2.79-51,.94-76.71,2.2-12,.59-24.16,1.22-36.23,2-5.11.34-6.73-1.71-5.84-6.58,3.62-19.61,3-39.6,4.42-59.37,2.13-30.56,4.15-61.15,5.89-91.74.88-15.54,1.85-31,3.82-46.44a10.57,10.57,0,0,0,.12-1.86c-1.26-23-3.92-21.62,22.09-28.92,20.5-5.75,41.58-7.35,61.83,2.7,4.46,2.21,6.6,5.05,8.37,10,5.38,15.16,2.59,30.91,5,46.25,5.29,33.76,9.94,67.62,14.4,101.5,2.59,19.67,6.95,39.08,8.34,58.93.8,11.5,1.05,11.48-10.13,11.27C733.85,530,732.29,530,730.05,530Z"/><path class="cls-23" d="M949.79,558.49c-18.46-5.53-37-10.91-56.13-13.34-22.95-2.91-46.17-4.07-69-7.84-18.65-3.09-37.63-2.81-56.11-6.9-3.35-.75-5.69-1-6-5.33-2-25.61-6.42-51-10.22-76.31s-5.19-51.07-11.25-76.08c-1.6-6.59-1.87-13.54-2.33-20.35-.41-6,4.59-4.28,7.35-3.89,12,1.68,24.11,3,35.75,6.06,35.21,9.3,66.79,26,96.31,47.31,13.66,9.86,19.6,22,19.38,38.34-.15,11.5-1.67,23.27,2.06,34.4,7.92,23.62,17.86,46.11,35.57,64.54,5.48,5.71,11.9,11,15.26,18.6Z"/><path class="cls-24" d="M341,612.25c-6.92,6-14.64,9.42-20.31,15.78-1.44,1.6-3.12,3.45-5.5,2.84-2.74-.7-2.36-3.36-2.29-5.44.09-2.56-1.36-6,2.54-7C323.94,616.22,332.49,614.29,341,612.25Z"/><path class="cls-24" d="M1028,588.75c9.61-.76,17.22,1.16,24.65,3.39,4.08,1.23,1.55,4.55,1,7-.53,2.21-1.23,4.68-4.21,3.06C1042.49,598.49,1034.71,596.17,1028,588.75Z"/><path class="cls-25" d="M699.88,667.84c-10.29,1.35-20.61,1.22-31,.67C679.18,665,689.55,667.21,699.88,667.84Z"/><path class="cls-23" d="M950.45,557.7c.8.42,2.7.21,1.93,1.6-.6,1.1-1.86,0-2.59-.81Z"/><path class="cls-26" d="M441.91,925.43c.21-3.09-.38-6.53.76-9.23,7.56-17.91,12.32-36.89,23.51-53.47a383.16,383.16,0,0,1,26.08-35c-15.45-7-63.71,7.59-76,26.91l-1.52-1.52c.79-9.67,8-15.44,14.19-21.17,15-14,32.16-24.65,52.7-28.55,6.21-1.18,7.89-3.73,6.91-10-3.21-20.54,1.4-39.38,14.83-55.42,4.08-4.89,9.82-8.44,15-12.34,2.45-1.84,4.79-.24,6.72,1.45,13,11.26,28.37,19,42,29.44,5.11,3.92,8.75,8.58,9.29,14.47,2.17,23.66,1.85,46.64-17.44,64.92-10.76,10.18-22.64,13.24-35.88,7.87-6.81-2.76-9.62-1.22-14.47,3.76a381.3,381.3,0,0,0-28.62,33.09c-12,15.63-18.5,33.55-22.95,52.42-.93,11.55-2.11,23.09-1.66,34.72a652.62,652.62,0,0,0,5.59,65.79c.73,5.12,6,9.11,2.82,16.63-10.81-19.78-15.74-39.88-19.16-60.85C441.08,968,439.52,946.87,441.91,925.43Zm87.87-149.66c-.15,7.44,1.38,12.73,4.84,17.38,6.14,8.27,15.06,8.55,20.5-.22,3.49-5.62,5.87-12.17,4.75-19.37-1.68-10.82-8.56-18.88-16.38-18.67S531,761.52,529.91,773.7A19.89,19.89,0,0,0,529.78,775.77Z"/><path class="cls-26" d="M940.72,909.63c-10.46-27.38-29.22-48.69-50.16-68.38-1.57-1.48-3.66-2.44-5-4-6.5-7.62-12.59-11.74-23.53-5.7-9.36,5.16-19.88,2.59-28.75-4.53-12.12-9.72-20.5-21.77-23.18-37.13-1-5.76-3.56-11-3.69-17.16-.33-15.73,7.22-26.1,19.41-34.58,8.42-5.86,16.68-11.94,24.15-19.11s13.38-7.13,21.25-.31c12.47,10.78,20.25,24.44,22.4,40.85.92,7,3.89,13.78,2.36,21.1-.87,4.17,2.23,4,5.12,4.56,12.48,2.43,25,4.94,37.34,7.81,11.27,2.61,38.19,23.93,41.8,33.62-8-3.53-14.51-8.2-21-12-19.69-11.49-40.46-6.95-61-6.81-4.32,0-4.62,2.23-1.85,5.22,4.64,5,9.22,10.06,13.81,15.11,19.72,21.71,34.85,46.07,42.89,74.51,5.67,20.11,3.41,40.22,2.21,60.75-1.12,19.27-6.31,37.48-8.91,56.27-.37,2.65-.47,6.16-4.59,7.08,4-19.91,7-39.76,6.14-59.4C947.07,948.12,948.28,928.21,940.72,909.63ZM852.56,770.31c.87-8.35-.44-14.95-4.79-20.65-5.26-6.88-13.93-6.94-19.69-.33-7.68,8.81-7.17,25.63,1,34.33,7.41,7.84,19.89,5,22.92-5.46C852.88,775.32,852.47,772.08,852.56,770.31Z"/><path class="cls-27" d="M698.46,963.91c-4.88,10.5-14.61,14-23.16,19.41-21.38,13.47-42.43,7.61-61.72-2.46-15.31-8-22.52-23.69-22.46-41.61,0-5.57,2.18-10.14,8.64-9.87,5.84.25,7.6,4.34,7.56,9.75a34.32,34.32,0,0,0,8.12,22.4c4.46,5.48,10.06,8.41,17.22,9.84,13.19,2.63,25.6,5.35,38.62-2.16,13.57-7.83,23.35-27.26,19.55-42.57-1.1-4.46-4.83-4-7.32-4.13-15.93-1.07-28.45-8.48-40-19-7.52-6.82-12-14.46-10.25-24.37,1.57-9,8-14.71,16.71-16.93,24.26-6.2,48.77-9.68,73.84-5.22,7.61,1.35,15.33,1.83,22.1,6.35,11.27,7.53,14.2,18.47,6.12,29.19-10.61,14.06-23.31,25.82-41.52,29.42-4.13.81-6.87,1.34-4.42,7,1.73,4.05.38,9.31,1.4,13.8,3.73,16.38,15.18,24.88,37.28,27.22a65.57,65.57,0,0,0,20.46-.78c15.51-3.34,25.35-17,25-33.79-.11-6.12-.1-12,7.87-11.92s8.43,6.55,8.15,12.21c-1.18,24.17-16.51,43.61-42.83,48.8-18.21,3.59-33.64-1.6-49.63-6.92C707.39,975.51,703.62,968.88,698.46,963.91Zm-5-91.55v.77H672a5.2,5.2,0,0,0-4.57,2.63c-.63,1.06.37,2.12,1.35,3.08,10,9.84,38.43,8.48,47.52-2.4.73-.88,1.59-2.22,1.42-3.17-.32-1.83-2.17-2-3.73-1.92C707.15,871.64,700.31,872,693.47,872.36Z"/><path class="cls-26" d="M416.23,854.65c-.67,1.34-2.11,2-3,1-1.22-1.35.9-1.67,1.45-2.52Z"/><path class="cls-28" d="M529.78,775.77a19.89,19.89,0,0,1,.13-2.07c1.11-12.18,5.75-18.59,13.58-18.81s14.7,7.85,16.38,18.67c1.12,7.2-1.26,13.75-4.75,19.37-5.44,8.77-14.36,8.49-20.5.22C531.16,788.5,529.63,783.21,529.78,775.77Z"/><path class="cls-28" d="M852.56,770.31c-.09,1.77.32,5-.51,7.89-3,10.44-15.51,13.3-22.92,5.46-8.22-8.7-8.73-25.52-1-34.33,5.76-6.61,14.43-6.55,19.69.33C852.12,755.36,853.43,762,852.56,770.31Z"/><path class="cls-29" d="M693.47,872.36c6.84-.34,13.68-.72,20.52-1,1.56-.07,3.41.09,3.73,1.92.17,1-.69,2.29-1.42,3.17-9.09,10.88-37.54,12.24-47.52,2.4-1-1-2-2-1.35-3.08a5.2,5.2,0,0,1,4.57-2.63h21.48Z"/></svg>