<svg id="Layer_1" data-name="Layer 1" xmlns="http://www.w3.org/2000/svg" viewBox="0 0 1306.75 2252.42"><defs><style>.cls-1{fill:#173485;}.cls-2{fill:#1278cc;}.cls-3{fill:#3e9cf3;}.cls-4{fill:#131831;}.cls-5{fill:#1f2640;}.cls-6{fill:#2c3450;}.cls-7{fill:#b2b4cd;}.cls-8{fill:#530500;}.cls-9{fill:#9e0d0d;}.cls-10{fill:#c2241e;}.cls-11{fill:#ed5151;}.cls-12{fill:#fff;}.cls-13{fill:#4a5d6d;}.cls-14{fill:#8cf;}.cls-15{fill:none;stroke:#1278cc;stroke-miterlimit:10;}.cls-16{fill:#561f09;}.cls-17{fill:#b5653c;}.cls-18{fill:#e2865d;}.cls-19{fill:#bdbdbd;}.cls-20{fill:#141a1e;}.cls-21{fill:#262323;}.cls-22{fill:#fdf0e6;}.cls-23{fill:#0078fd;}.cls-24{fill:#ee9337;}.cls-25{fill:#8f9193;}.cls-26{fill:#59595b;}.cls-27{fill:#545456;}.cls-28{fill:#a59988;}.cls-29{fill:#252221;}.cls-30{fill:#1c1c1c;}.cls-31{fill:#f6f6f6;}.cls-32{fill:#efefef;}</style></defs><title>4</title><path class="cls-1" d="M672.17,1629.67c-1.73.21-173.77,20.52-280.61-24.34l-17.16-7.2,3.46,18.29c.27,1.43,6.87,35.77,23.35,80.08,22.24,59.82,50.63,106.8,84.37,139.65l3,2.94,194.78-5V1628.3Zm-8.79,184.88-166.81,4.33c-57.07-57.73-85.18-149.81-94.94-188.34,44.81,15.36,102,23.41,170.3,24,41,.33,74.77-2.22,91.45-3.79Z"/><path class="cls-2" d="M663.38,1650.7v163.85l-166.81,4.33c-57.07-57.73-85.18-149.81-94.94-188.34,44.81,15.36,102,23.41,170.3,24C612.94,1654.82,646.7,1652.27,663.38,1650.7Z"/><path class="cls-3" d="M463.75,1730.54a12.11,12.11,0,0,1,8.62-17c20.06-4,53.8-10.32,60.24-9.47s22.31,24.45,30.7,38.14c3.45,5.62,1.8,11-3.78,13-19.86,7.18-65.28,22.87-71.92,17.51C482.06,1768.15,470.87,1745.65,463.75,1730.54Z"/><path class="cls-4" d="M625,1871.12H537.56a41.78,41.78,0,0,0-41.74,41.74v30a41.79,41.79,0,0,0,41.74,41.74H625a41.79,41.79,0,0,0,41.74-41.74v-30A41.79,41.79,0,0,0,625,1871.12Zm23.74,71.74A23.77,23.77,0,0,1,625,1966.6H537.56a23.77,23.77,0,0,1-23.74-23.74v-30a23.77,23.77,0,0,1,23.74-23.74H625a23.77,23.77,0,0,1,23.74,23.74Z"/><path class="cls-5" d="M648.69,1912.86v30A23.77,23.77,0,0,1,625,1966.6H537.56a23.77,23.77,0,0,1-23.74-23.74v-30a23.77,23.77,0,0,1,23.74-23.74H625A23.77,23.77,0,0,1,648.69,1912.86Z"/><path class="cls-6" d="M501.88,1798.55c-4.78.94-62.94,74.14-66.8,96.68s6.85,80.73,27.21,93.87c10.57,6.83,22.13,7.09,32.17,1.42,9.29-5.23,17.29-15.55,22-30.45,9.82-31,47.8-50.81,47.8-50.81s-15.91-38.77-11-77.6a89.08,89.08,0,0,1,10.58-33.09S506.66,1797.6,501.88,1798.55Z"/><path class="cls-5" d="M531.65,1832c-4.06.8-53.36,62.86-56.64,82-2.92,17.08,4,58.27,17.85,74.8.52.62,1.05,1.21,1.6,1.76,9.29-5.23,17.29-15.55,22-30.45,9.82-31,47.8-50.81,47.8-50.81s-2-4.88-4.36-12.91c-4.3-14.61-9.79-39.63-6.61-64.7C542.84,1831.6,533.35,1831.65,531.65,1832Z"/><path class="cls-4" d="M426.33,1893.73c2.42-14.1,20.18-40.52,34.65-60.2,7.41-10.08,15.5-20.41,22.19-28.37,11.51-13.67,13.95-14.73,17-15.33,5-1,42.13-.51,63.84-.14l15,.25-7.41,13c-23.67,41.58.66,102.32.9,102.93l3.08,7.49-7.18,3.75c-.35.18-34.83,18.45-43.45,45.62-6.17,19.46-17.66,33.09-32.37,38.38-11.6,4.17-24.06,2.55-35.09-4.57-14.12-9.12-22.2-31.53-26.49-48.73a199.29,199.29,0,0,1-4.35-23.33C425.15,1912.54,425,1901.54,426.33,1893.73Zm123.73-86.48c-19.74-.26-38.54-.33-44.87-.07-4.39,4.34-17.31,19.52-32,39.7-20.12,27.68-28.37,43.9-29.39,49.85-3.66,21.33,7.6,74.8,23.27,84.92,6.36,4.11,13.08,5.07,19.44,2.78,9.24-3.32,17.06-13.18,21.45-27,8.23-26,33.22-44.36,45.39-52C547.69,1888.37,536,1845,550.06,1807.25Z"/><path class="cls-2" d="M881.5,1662.82c-.2,1-26.49,129.35-100.55,185.86-20.05,15.3-43.77,27.51-68,36.94-65.58,25.55-134.78,30.73-144.5,21.76-13.31-12.28-14.09-98.61-14.09-98.61l87.26-43.43-10.45-99.79c80.23,38.82,173.44,20.84,220.24,7.35A315.92,315.92,0,0,0,881.5,1662.82Z"/><path class="cls-3" d="M637.86,1771.08c-19-1-79,32.35-79,32.35l1.26,36.27c0-1.07,69.61-45.14,87.65-50.88a78.65,78.65,0,0,1,34.58-2.64S656.9,1772.12,637.86,1771.08Z"/><path class="cls-3" d="M881.5,1662.82c-.2,1-26.49,129.35-100.55,185.86-20.05,15.3-43.77,27.51-68,36.94,6-8.1,17.19-18,35.18-30C854.59,1784.72,854,1697.42,851.43,1672.9A315.92,315.92,0,0,0,881.5,1662.82Z"/><path class="cls-1" d="M894.58,1649.93l-19.87,2.25c0,.22,2.28,22.25-6.78,54.22-8.35,29.48-28.34,73.76-76.1,117.27-48,43.74-106.33,62-146.78,69.6a357.49,357.49,0,0,1-72.87,6.28c-17.92-31-11.49-76.2-8.92-90.12,6.16-3.33,18.67-10,32.22-16.45,34.82-16.63,44-16.7,45.52-16.54,17.41,1.81,41,9.6,41.31,9.71,0,0-12.38-17.41-27.33-25.58-3.11-11.88-2.38-27.61-2.38-27.61-7,6.59-12,17.37-14.44,23.55-7.68.61-21.74,4.3-51.3,18.41-19.62,9.37-36.62,18.82-37.34,19.22a10,10,0,0,0-4.86,6.42c-.68,2.86-16.33,70.55,13.6,114.39a10,10,0,0,0,7.54,4.33c.51,0,5.24.36,13.24.36a383.85,383.85,0,0,0,69.09-6.62c43.18-8,105.5-27.52,157.17-74.58s73.22-95.45,82.19-127.73C897.33,1675.27,894.69,1651,894.58,1649.93Z"/><path class="cls-7" d="M622.19,1179.86l-40.33,35.43L570,1201.77l45-39.57-.51-1.26-59.67-2.14c7.94,36.74,24.79,90.1,60.08,137l24.29-73.92Zm1.55,61.55a1.6,1.6,0,0,1-3,.23c-4-8.32-13.46-28.56-13-35.18a1.44,1.44,0,0,1,.38-.85l6.11-7.11a3.65,3.65,0,0,1,6.15,1l8.92,22.24a1.61,1.61,0,0,1,0,1.06Z"/><path class="cls-7" d="M757.14,1166l-.6,1.22,42.09,42.7-12.82,12.64-37.69-38.23-20,40.69,18.95,75.47c38.56-44.25,59.19-96.27,69.74-132.34Zm-12,80.06a1.6,1.6,0,0,1-3-.44l-4.32-18.94a1.61,1.61,0,0,1,.12-1.06l10.49-21.54a3.65,3.65,0,0,1,6.21-.58l5.59,7.53a1.49,1.49,0,0,1,.31.88C760.59,1218.58,749.74,1238.09,745.12,1246.1Z"/><path class="cls-8" d="M748.12,1184.37l-13.39-13.58-21,42.67a147.31,147.31,0,0,0-59.38-2.13l-17.87-44.06-14.32,12.58,17,42-24.29,73.92-2.09,6.36,65.43,71.95L748.69,1307l-1.63-6.49-18.95-75.47Zm-19.44,116.85-49.48,47.14-46-50.56,22.51-68.44a129.77,129.77,0,0,1,55.42,2Z"/><path class="cls-8" d="M614.52,1160.93l.51,1.26,1.36-1.2Z"/><path class="cls-8" d="M756.54,1167.26l.6-1.22-1.88-.07Z"/><path class="cls-9" d="M683.54,1227.36a140.56,140.56,0,0,0-27.82,2l-22.51,68.44,46,50.56,49.48-47.14-17.54-69.87A140.62,140.62,0,0,0,683.54,1227.36Zm28.81,62.3a43.38,43.38,0,0,1-62-2.22,11.65,11.65,0,0,1-2.45-11.5l12.46-37.88a11.64,11.64,0,0,1,9.87-8,93.07,93.07,0,0,1,26.45,1,11.64,11.64,0,0,1,9.27,8.65l9.71,38.67A11.72,11.72,0,0,1,712.35,1289.66Z"/><path class="cls-9" d="M718.27,1164.65a10.91,10.91,0,0,1,2.12,12.58l-8.57,17.44a10.93,10.93,0,0,1-11.64,6,118,118,0,0,0-15.63-1.65,119.88,119.88,0,0,0-15.71.53,10.92,10.92,0,0,1-11.18-6.77l-7.3-18a10.92,10.92,0,0,1,3-12.4l-10.78-.39-6.08,5.34,17.87,44.06a147.31,147.31,0,0,1,59.38,2.13l21-42.67-5.68-5.76Z"/><path class="cls-10" d="M696.64,1231.05a98,98,0,0,0-13.19-1.42,99.14,99.14,0,0,0-13.26.47,11.65,11.65,0,0,0-9.87,8l-12.46,37.88a11.68,11.68,0,0,0,2.45,11.5,43.38,43.38,0,0,0,62,2.22,11.68,11.68,0,0,0,3.27-11.29l-9.71-38.67A11.56,11.56,0,0,0,696.64,1231.05Zm-7.37,12.44-12.6-.45a5.09,5.09,0,1,1,.37-10.17l12.6.45a5.09,5.09,0,0,1-.37,10.17Z"/><path class="cls-10" d="M650.36,1174.72l7.3,18a10.9,10.9,0,0,0,11.18,6.77,119.81,119.81,0,0,1,15.71-.53,118.41,118.41,0,0,1,15.63,1.65,10.91,10.91,0,0,0,11.64-6l8.57-17.44a10.92,10.92,0,0,0-2.12-12.58l-64.89-2.33A10.94,10.94,0,0,0,650.36,1174.72Z"/><path class="cls-11" d="M689.63,1233.32l-12.6-.45a5.09,5.09,0,1,0-.37,10.17l12.6.45a5.09,5.09,0,0,0,.37-10.17Z"/><path class="cls-12" d="M629.37,1221.77l-8.92-22.24a3.64,3.64,0,0,0-6.15-1l-6.11,7.11a1.53,1.53,0,0,0-.38.85c-.5,6.62,8.93,26.86,13,35.18a1.6,1.6,0,0,0,3-.23l5.67-18.58A1.7,1.7,0,0,0,629.37,1221.77Z"/><path class="cls-13" d="M729.06,1165l5.68,5.76,13.38,13.58,37.69,38.23L798.63,1210l-42.09-42.7-1.28-1.29Z"/><path class="cls-13" d="M616.39,1161l-1.36,1.2-45,39.57,11.88,13.52,40.32-35.42,14.32-12.58,6.09-5.35Z"/><path class="cls-12" d="M754.67,1203.54a3.65,3.65,0,0,0-6.21.58L738,1225.66a1.61,1.61,0,0,0-.12,1.06l4.32,18.94a1.6,1.6,0,0,0,3,.44c4.62-8,15.47-27.52,15.45-34.16a1.49,1.49,0,0,0-.31-.88Z"/><path class="cls-2" d="M564.73,1261.76c-30.14-8.88-50.15-24.54-59.47-46.56-13.14-31-2.9-68.44,4.86-88.94,3.55,33.66,16.52,108.17,62.66,134.48A69.45,69.45,0,0,1,564.73,1261.76Z"/><path class="cls-14" d="M599,1272.72c-28.23-39-53.71-90.85-56.7-153.3l2.73-8.19a769,769,0,0,0,22.8,85.33Q582,1239.21,599,1272.72Z"/><path class="cls-2" d="M667.5,1360.9c-2,3.4-4,7-6,10.85-71.13-24.8-102-54.45-115.34-75.39-9-14.13-11.36-25.93-11.81-33a150.86,150.86,0,0,0,17.83-.25c6.08,9.49,40.08,59.26,97,82.12a180.48,180.48,0,0,0,15.69,14.2A10.39,10.39,0,0,0,667.5,1360.9Z"/><path class="cls-14" d="M830.92,1139.57c-11.65,61.47-44.13,109.34-77.54,144q21.55-30.81,41.53-71.17a768.35,768.35,0,0,0,34.44-81.34Z"/><path class="cls-2" d="M854.27,1239.58c-12.29,20.5-34.27,33.23-65.35,37.84h0a73.39,73.39,0,0,1-7.83-2.12c49.35-19.64,72.55-91.63,80.75-124.47C866.66,1172.21,871.6,1210.67,854.27,1239.58Z"/><path class="cls-3" d="M635.84,1651.43c-68,23.14-135.26,8.38-180.61-8.67a398,398,0,0,1-81.87-42.34c7.49-17.48,25.6-63.39,38.63-125.77,9.67-46.28,14.47-92,14.27-135.85q-.11-23.49-2.13-46.28A492.72,492.72,0,0,0,408,1203q-1.91-6.85-4-13.6a436.36,436.36,0,0,1,84.4-61.76h0c-8.1,24.37-15.62,61.87-1.53,95.26a89.44,89.44,0,0,0,25.91,34.6,12.52,12.52,0,0,0,1.57,1.11c-.68,20.73,8.5,85.17,138,131.08A451,451,0,0,0,634,1433.08c-13.31,37.05-20.4,73.32-21,107.79C612.21,1580.32,619.9,1617.45,635.84,1651.43Z"/><path class="cls-3" d="M910.59,1509.46c-3.14-47.17-1.55-93.09,4.75-136.51a548.76,548.76,0,0,1,11.46-57.51,483.64,483.64,0,0,1,31.4-87.33,436.7,436.7,0,0,0-75-72.9c4.64,25.25,6.88,63.45-11.72,94.57A89.39,89.39,0,0,1,841,1280.44a13.9,13.9,0,0,1-1.72.89c-1.8,16.29-13.54,58.93-85,89.59-70.09,30.06-96.57,62-106.42,83.69-22.9,72.59-19.73,138.14,9.44,195.08,66.12,36.47,138.09,31.21,187.1,20.23a397.41,397.41,0,0,0,87-30.55C926.37,1621,914.82,1573.05,910.59,1509.46Zm-235.72,80.73a20.61,20.61,0,1,1,22-19.11A20.6,20.6,0,0,1,674.87,1590.19Z"/><path class="cls-3" d="M781.08,1275.3a73.39,73.39,0,0,0,7.83,2.12h0s5.13,1.51,12.31,3l-.41.48-.46.52c-.37.43-.82.94-1.34,1.51-8.91,9.86-34.77,36.12-72.11,53.53a106,106,0,0,0-48.58,46.34c-.76,1.42-1.52,2.88-2.3,4.36a109,109,0,0,1-17.9,7.11c2.71-4,46.51-54.47,47.45-55.76q24.71-21.85,47.83-54.94h0c33.41-34.67,65.89-82.54,77.54-144l-1.57-8.5c1.11-3.12,2.09-5.92,2.92-8.36,9.1,4.74,17.82,9.85,26.13,15.17.85,2.77,2.14,7.26,3.43,12.95C853.63,1183.67,830.42,1255.66,781.08,1275.3Z"/><path class="cls-2" d="M818.78,1283.17a61.93,61.93,0,0,1-6.58,17.25c-7.89,14.28-25.72,34.92-65.82,52.12q-45.33,19.44-74.5,42.71,2.07-4.15,4.1-8.07c.78-1.48,1.54-2.94,2.3-4.36a106,106,0,0,1,48.58-46.34c37.34-17.41,63.21-43.66,72.11-53.53l1.34-1.51.46-.52.41-.48A148.13,148.13,0,0,0,818.78,1283.17Z"/><path class="cls-3" d="M649.16,1345.17c-56.93-22.86-90.92-72.63-97-82.12,7.32-.5,12.61-1.27,12.61-1.27h0a73.93,73.93,0,0,0,8-1c-46.14-26.31-59.11-100.82-62.66-134.48,2.07-5.46,4-9.73,5.19-12.35,9-4.12,18.31-8,28-11.39.48,2.54,1.06,5.45,1.73,8.69l-2.73,8.19c3,62.45,28.46,114.33,56.7,153.3Q621.64,1317.29,649.16,1345.17Z"/><path class="cls-15" d="M564.73,1261.76h0s-5.29.77-12.61,1.27c-.66-1-1-1.58-1-1.58A61.94,61.94,0,0,0,564.73,1261.76Z"/><path class="cls-15" d="M753.37,1283.59q-23.08,33.06-47.83,54.94c-.94,1.29-2.92,4-5.63,8.09a163.62,163.62,0,0,1-23.56,5c2.27,1.67,3.54,2.53,3.54,2.53-3-.55-5.94-1.2-8.84-1.91-3,.3-6,.54-9,.66,0,0,1.38-.68,3.86-2a162,162,0,0,1-16.73-5.71q-27.45-27.79-50.16-72.45a379.67,379.67,0,0,0,72.36,75.11A378.86,378.86,0,0,0,753.37,1283.59Z"/><path class="cls-15" d="M802.39,1279s-.41.5-1.2,1.43c-7.18-1.5-12.31-3-12.31-3h0A62.6,62.6,0,0,0,802.39,1279Z"/><path class="cls-2" d="M678.07,1596.83a23.48,23.48,0,1,0-23.48-23.48A23.48,23.48,0,0,0,678.07,1596.83Z"/><path class="cls-2" d="M613,1540.86c-.75,39.45,6.94,76.59,22.88,110.56-68,23.14-135.26,8.38-180.61-8.67a398,398,0,0,1-81.87-42.34c7.49-17.48,25.6-63.39,38.63-125.77,9.67-46.28,14.47-92,14.27-135.85q-.11-23.49-2.13-46.28c33.65,138.25-11.73,294.78-11.73,294.78,76.86,50.87,177.84,31.64,177.84,31.64-23.29-93.42,43.37-223.69,43.37-223.69-130.41-38.14-130.92-129.17-130.92-129.17-61-56.35-15.15-137-14.35-138.43-8.1,24.37-15.62,61.87-1.53,95.26a89.44,89.44,0,0,0,25.91,34.6,12.52,12.52,0,0,0,1.57,1.11c-.68,20.73,8.5,85.17,138,131.08A451,451,0,0,0,634,1433.06C620.69,1470.13,613.61,1506.39,613,1540.86Z"/><path class="cls-2" d="M931.36,1639.38a398,398,0,0,1-87,30.55c-49,11-121,16.23-187.1-20.23-29.17-56.94-32.34-122.49-9.44-195.08,9.85-21.65,36.32-53.63,106.42-83.69,71.49-30.66,83.23-73.3,85-89.59a14.64,14.64,0,0,0,1.72-.89,89.48,89.48,0,0,0,30.47-30.66c18.59-31.12,16.36-69.32,11.72-94.57,33,102.19-36.61,134.81-36.61,134.81-16,116.33-160.86,84.77-188.63,173.61-32.36,103.46,23.83,158.57,23.83,158.57,90.86,35.77,212.13-4.4,212.13-4.4-17.15-181.24,32.88-302.34,32.88-302.34A546.2,546.2,0,0,0,915.36,1373c-6.3,43.42-7.89,89.34-4.75,136.51C914.82,1573.05,926.37,1621,931.36,1639.38Z"/><path class="cls-14" d="M488.33,1127.64S438.6,1164.79,408,1203q-1.9-6.86-4-13.6A436.6,436.6,0,0,1,488.33,1127.64Z"/><path class="cls-14" d="M883.2,1155.2s44.08,43.7,69.11,85.8q2.85-6.52,5.88-12.91A436.2,436.2,0,0,0,883.2,1155.2Z"/><path class="cls-1" d="M952.77,1641.53c-.17-.55-17.13-55.88-22.26-134-4.72-71.65-.16-177.74,48.36-276.26A10,10,0,0,0,978,1221c-2.32-3.21-58-79.13-147.36-121.45a10,10,0,0,0-13.85,6.12c-.53,1.77-53.73,173.47-144.83,233.53-81.87-72.14-110.68-249.57-111-251.39a10,10,0,0,0-12.87-8c-94.39,29.49-160.06,96.93-162.81,99.79a10,10,0,0,0-2.3,10.06c34.35,104.31,24.13,210,9.49,280.3-15.94,76.6-40.42,129-40.66,129.54a10,10,0,0,0,3,12.22c.35.28,2.63,2,6.56,4.71l19.38,12.43a421.48,421.48,0,0,0,66.86,32.36c32.37,12.21,64.45,19.45,95.39,21.57,37.25,2.52,72.89-2.48,106-14.87,31.06,16.87,65.65,26.78,102.9,29.46l.61,0c30.75,2.15,63.33-.59,96.85-8.14a421.43,421.43,0,0,0,70.71-22.75L941,1657c4.27-2.15,6.76-3.53,7.15-3.75A10,10,0,0,0,952.77,1641.53Zm-247.23-303c31.83-28.14,61.79-70.38,89.37-126.12a766.18,766.18,0,0,0,37.36-89.7c9.1,4.74,17.82,9.85,26.13,15.17,4.05,13.17,17.81,65.09-4.13,101.7-12.29,20.51-34.29,33.24-65.4,37.86a177.63,177.63,0,0,0,29.9,5.73,62.09,62.09,0,0,1-6.58,17.26c-7.89,14.27-25.71,34.91-65.82,52.11Q701,1372,671.87,1395.25C687.38,1364,702.35,1342.9,705.54,1338.53ZM515.31,1113.92c9-4.12,18.31-8,28-11.39a764.66,764.66,0,0,0,24.53,94c25.48,76.87,58.12,131.65,97,162.82a9.82,9.82,0,0,0,2.65,1.53c-2,3.4-4,7-6,10.85-71.13-24.8-102-54.45-115.34-75.39-9-14.13-11.36-25.93-11.81-33a177.74,177.74,0,0,0,30.44-1.51c-30.16-8.89-50.18-24.56-59.5-46.58C488.63,1175.9,509.47,1126.4,515.31,1113.92Zm-60.09,528.83a398.57,398.57,0,0,1-81.87-42.33c7.49-17.49,25.6-63.4,38.63-125.78,9.67-46.28,14.47-92,14.27-135.85-.24-52.74-7.74-103-22.32-149.39a436,436,0,0,1,84.41-61.78c-8.11,24.36-15.63,61.88-1.54,95.28a89.44,89.44,0,0,0,25.91,34.6,12.11,12.11,0,0,0,1.56,1.11c-.67,20.73,8.51,85.17,138,131.09A449.65,449.65,0,0,0,634,1433.06c-13.31,37-20.4,73.32-21,107.8-.75,39.44,6.94,76.58,22.88,110.55C567.82,1674.56,500.58,1659.8,455.22,1642.75Zm389.18,27.18c-49,11-121,16.23-187.11-20.22-29.17-57-32.34-122.5-9.44-195.09,9.85-21.64,36.32-53.63,106.42-83.69,71.49-30.66,83.23-73.29,85-89.59a14.64,14.64,0,0,0,1.72-.89,89.48,89.48,0,0,0,30.47-30.66c18.59-31.12,16.36-69.32,11.72-94.57a435.86,435.86,0,0,1,75,72.91c-20.88,43.94-35.3,92.64-42.86,144.84-6.3,43.42-7.89,89.34-4.75,136.51,4.23,63.59,15.79,111.57,20.77,129.92A399.31,399.31,0,0,1,844.4,1669.93Z"/><path class="cls-1" d="M696.94,1571.08a20.62,20.62,0,1,0-22,19.12A20.61,20.61,0,0,0,696.94,1571.08Z"/><path class="cls-16" d="M946.86,1533.33H935.12a33.91,33.91,0,0,0-33.87,33.87v377.22a33.92,33.92,0,0,0,33.87,33.87h11.74a33.91,33.91,0,0,0,33.87-33.87V1567.2A33.9,33.9,0,0,0,946.86,1533.33Zm13.87,411.09a13.89,13.89,0,0,1-13.87,13.87H935.12a13.89,13.89,0,0,1-13.87-13.87V1567.2a13.88,13.88,0,0,1,13.87-13.87h11.74a13.88,13.88,0,0,1,13.87,13.87Z"/><path class="cls-17" d="M960.73,1567.2v377.22a13.89,13.89,0,0,1-13.87,13.87H935.12a13.89,13.89,0,0,1-13.87-13.87V1567.2a13.88,13.88,0,0,1,13.87-13.87h11.74A13.88,13.88,0,0,1,960.73,1567.2Z"/><path class="cls-18" d="M956.54,1606.41V1881.7c0,5.58-4.9,10.12-10.92,10.12h-9.25c-6,0-10.92-4.55-10.92-10.12V1606.41c0-5.58,4.9-10.12,10.92-10.12h9.25C951.64,1596.29,956.54,1600.83,956.54,1606.41Z"/><path class="cls-19" d="M1136.25,1567.6H745.73A17.61,17.61,0,0,1,728.12,1550V1317.56A17.61,17.61,0,0,1,745.73,1300h390.52a17.61,17.61,0,0,1,17.61,17.61V1550A17.61,17.61,0,0,1,1136.25,1567.6Z"/><path class="cls-12" d="M1128.28,1532.32H753.71a17.6,17.6,0,0,1-17.61-17.61V1323.29a17.61,17.61,0,0,1,17.61-17.61h374.57a17.61,17.61,0,0,1,17.61,17.61v191.42A17.61,17.61,0,0,1,1128.28,1532.32Z"/><path class="cls-20" d="M1136.25,1577.6H745.73A27.64,27.64,0,0,1,718.12,1550V1317.56A27.64,27.64,0,0,1,745.73,1290h390.52a27.65,27.65,0,0,1,27.61,27.61V1550A27.64,27.64,0,0,1,1136.25,1577.6ZM745.73,1309.94a7.61,7.61,0,0,0-7.61,7.61V1550a7.61,7.61,0,0,0,7.61,7.61h390.52a7.61,7.61,0,0,0,7.61-7.61V1317.55a7.61,7.61,0,0,0-7.61-7.61Z"/><path class="cls-20" d="M944.48,1374.53v22.32a52.92,52.92,0,0,1-.83,11.08,15.28,15.28,0,0,1-3.43,6.49,14.82,14.82,0,0,1-6.28,4.34,24.21,24.21,0,0,1-8.23,1.32,30.65,30.65,0,0,1-10-1.38,13.57,13.57,0,0,1-6.32-4.32,18.46,18.46,0,0,1-3.35-6.18q-1-3.24-1-10.31v-23.35c0-6.14.53-10.75,1.59-13.8a13.65,13.65,0,0,1,6.32-7.36,22.3,22.3,0,0,1,11.47-2.77,24.13,24.13,0,0,1,9.84,1.92,16.47,16.47,0,0,1,6.49,4.69,15.56,15.56,0,0,1,2.91,6.24A56.78,56.78,0,0,1,944.48,1374.53Zm-16.7-5.63c0-3.55-.17-5.78-.52-6.67a2.29,2.29,0,0,0-2.42-1.34,2.38,2.38,0,0,0-2.46,1.43q-.6,1.42-.6,6.59v32.65q0,5.84.56,7a2.39,2.39,0,0,0,2.42,1.2,2.36,2.36,0,0,0,2.44-1.41c.39-.94.58-3,.58-6.32Z"/><path class="cls-20" d="M973.62,1363.28v11.49a20.21,20.21,0,0,1-.85,6.76,8.11,8.11,0,0,1-3.64,3.93,14.2,14.2,0,0,1-7.38,1.67c-3.53,0-6.21-.53-8.06-1.59a8.4,8.4,0,0,1-3.74-3.82,16.58,16.58,0,0,1-1-6.41v-12a20,20,0,0,1,1-7.34,7.92,7.92,0,0,1,3.91-3.86,18.34,18.34,0,0,1,14.8.14,8.54,8.54,0,0,1,3.93,4A19,19,0,0,1,973.62,1363.28ZM963,1360.35a11.19,11.19,0,0,0-.27-3.26c-.18-.41-.67-.62-1.47-.62a1.47,1.47,0,0,0-1.45.66,9.31,9.31,0,0,0-.33,3.22v16.86a11.39,11.39,0,0,0,.29,3.47c.19.39.7.58,1.53.58s1.18-.22,1.38-.66a9.46,9.46,0,0,0,.31-3.1v-17.15Zm30.05-9.76-26.16,69.48h-6.37l26.25-69.48Zm11.57,45v11.53a20.23,20.23,0,0,1-.85,6.74,8.06,8.06,0,0,1-3.64,4,14.2,14.2,0,0,1-7.38,1.67q-5.25,0-8-1.61A8.53,8.53,0,0,1,981,1414a16.46,16.46,0,0,1-1-6.37V1395.6a19.78,19.78,0,0,1,1-7.29,8,8,0,0,1,3.91-3.88,15.28,15.28,0,0,1,7.15-1.51,15.64,15.64,0,0,1,7.69,1.65,8.47,8.47,0,0,1,3.91,4A19.29,19.29,0,0,1,1004.66,1395.6Zm-10.58-2.89a11.55,11.55,0,0,0-.27-3.29c-.18-.43-.67-.64-1.47-.64s-1.22.22-1.43.66a10,10,0,0,0-.31,3.26v16.86a11.24,11.24,0,0,0,.29,3.43c.19.39.69.58,1.49.58s1.21-.21,1.41-.64a10,10,0,0,0,.29-3.12Z"/><path class="cls-20" d="M825.57,1430.7h17.36q8.22,0,12.46,1.28a12.37,12.37,0,0,1,6.84,5.18q2.61,3.9,2.6,12.58,0,5.87-1.84,8.18c-1.23,1.54-3.64,2.73-7.25,3.55q6,1.37,8.18,4.53t2.15,9.7v6.2q0,6.78-1.55,10a8.35,8.35,0,0,1-4.94,4.47q-3.39,1.2-13.89,1.2H825.56V1430.7Zm17.4,11.45V1457c.74,0,1.32,0,1.74,0,1.71,0,2.8-.42,3.26-1.26s.7-3.25.7-7.21a11.57,11.57,0,0,0-.58-4.4,2.79,2.79,0,0,0-1.51-1.59A13.38,13.38,0,0,0,843,1442.15Zm0,25.3v18.72c2.45-.08,4-.47,4.69-1.16s1-2.38,1-5.08v-6.24c0-2.87-.3-4.6-.91-5.21S845.56,1467.53,843,1467.45Z"/><path class="cls-20" d="M910.05,1442.77v54.85h-17l.29-4.56a11.57,11.57,0,0,1-4.28,4.16,12.07,12.07,0,0,1-5.85,1.39,13.17,13.17,0,0,1-6.24-1.32,8.64,8.64,0,0,1-3.66-3.51,12.88,12.88,0,0,1-1.47-4.57q-.29-2.37-.29-9.44v-37h16.7v37.32q0,6.4.39,7.61t2.13,1.2c1.24,0,2-.41,2.21-1.24a48.21,48.21,0,0,0,.35-8v-36.91h16.71Z"/><path class="cls-20" d="M951,1442.77l-4.77,39.68q-1.12,9.42-1.9,12.85a13.86,13.86,0,0,1-2.54,5.66,10.28,10.28,0,0,1-4.94,3.29q-3.17,1.05-10.1,1H916.63v-8.76a19.49,19.49,0,0,0,5-.39,1.66,1.66,0,0,0,1.12-1.76q0-.66-1-5.75l-9.14-45.88h15.14l5.49,37,2.68-37H951Z"/><path class="cls-20" d="M969.4,1430.7h29.47v13.39H986.8v12.69h10.75v12.73H986.8v28.11H969.4Z"/><path class="cls-20" d="M1040.41,1471.17h-21.62V1483a13.05,13.05,0,0,0,.54,4.79,2.09,2.09,0,0,0,2.07,1.08,2.51,2.51,0,0,0,2.54-1.43,15.54,15.54,0,0,0,.64-5.52v-7.23h15.83v4a36.08,36.08,0,0,1-.64,7.81,16,16,0,0,1-3,5.83,14.53,14.53,0,0,1-6,4.65,23.19,23.19,0,0,1-9.07,1.55,26.32,26.32,0,0,1-9.34-1.53,14.92,14.92,0,0,1-6.3-4.2A15.19,15.19,0,0,1,1003,1487a37.76,37.76,0,0,1-.87-9.32v-16c0-4.79.65-8.58,1.94-11.34a13.38,13.38,0,0,1,6.36-6.37,25.53,25.53,0,0,1,21.76.46,14.71,14.71,0,0,1,6.41,7.07q1.85,4.4,1.84,12.38Zm-16.74-8.93v-4a19.88,19.88,0,0,0-.46-5.5,1.79,1.79,0,0,0-1.86-1.24c-1.16,0-1.87.35-2.15,1a21.79,21.79,0,0,0-.41,5.68v4h4.88Z"/><path class="cls-20" d="M1083.69,1471.17h-21.62V1483a13.05,13.05,0,0,0,.54,4.79,2.09,2.09,0,0,0,2.07,1.08,2.51,2.51,0,0,0,2.54-1.43,15.54,15.54,0,0,0,.64-5.52v-7.23h15.83v4a36.08,36.08,0,0,1-.64,7.81,16,16,0,0,1-3,5.83,14.53,14.53,0,0,1-6,4.65,23.19,23.19,0,0,1-9.07,1.55,26.32,26.32,0,0,1-9.34-1.53,14.92,14.92,0,0,1-6.3-4.2,15.19,15.19,0,0,1-3.12-5.87,37.76,37.76,0,0,1-.87-9.32v-16c0-4.79.65-8.58,1.94-11.34a13.38,13.38,0,0,1,6.36-6.37,25.53,25.53,0,0,1,21.76.46,14.71,14.71,0,0,1,6.41,7.07q1.85,4.4,1.84,12.38Zm-16.74-8.93v-4a19.88,19.88,0,0,0-.46-5.5,1.79,1.79,0,0,0-1.86-1.24c-1.16,0-1.87.35-2.15,1a21.79,21.79,0,0,0-.41,5.68v4H1067Z"/><path class="cls-12" d="M414.34,1478.17c-5.59,36.11-20.18,81.25-44.65,86.56-37.31,8.08-55.31-17-55.31-17-32.35.26-49.3-24.26-43.82-47.48s34.69-15.13,34.69-15.13c-6.26-23.48,14.87-52.43,14.87-52.43s80.52-15.13,94.07.12a7.43,7.43,0,0,1,1.67,3C417.75,1442.77,417.28,1459.23,414.34,1478.17Z"/><path class="cls-19" d="M409.6,1484.64a49.2,49.2,0,0,1,4.74-6.47c-5.59,36.11-20.18,81.25-44.65,86.56-37.31,8.08-55.31-17-55.31-17-32.35.26-49.3-24.26-43.82-47.48s34.69-15.13,34.69-15.13c-6.26-23.48,14.87-52.43,14.87-52.43s80.52-15.13,94.07.12l.63,26.75-11.29-.26s-39.71,11.93-71,7c0,0-6.65.78-9.39,13.3s-7.24,14.48-7.24,14.48l-17.41-9.39-11.35,6.36s-5.67,19.17,12.13,16.24l9.12-10.06c-.43.67-11.32,18.1,3,24.37,14.61,6.4,42.52-5.21,53.35-18.13,0,0-1.3,13-7,19C357.69,1522.6,385.34,1523.51,409.6,1484.64Z"/><path class="cls-13" d="M424.54,1433.49c-3.72-13.63-22-18.48-59.27-15.71-23.48,1.75-45.87,5.92-46.81,6.1a9,9,0,0,0-5.61,3.54c-.82,1.12-17.17,23.84-17.72,47.37-6.11-.1-13.52.84-20,4.69-6.75,4-11.35,10.48-13.3,18.74a45.91,45.91,0,0,0,8.79,39.42c9.18,11.5,23.13,18.17,39.6,19a61.48,61.48,0,0,0,44.9,18.68,77.21,77.21,0,0,0,16.5-1.84c11-2.39,20.85-10.57,29.19-24.33C421.67,1514.79,429.41,1451.34,424.54,1433.49ZM385.4,1539.86c-3.91,6.44-10.14,14.45-17.62,16.07-18.12,3.93-30.69-1.18-38.08-6.18,5.75-2.43,16.63-9.13,21.89-26.24,0,0-24.73,23.08-58.45,10.15a30.07,30.07,0,0,1-8.48-7.24,28,28,0,0,1-5.34-24.06c1.09-4.62,3.33-6.42,4.91-7.37,2-1.19,4.95-1.67,8-1.78a7.08,7.08,0,0,1,6.9,9.75,48.12,48.12,0,0,0-3.12,12c5-12.91,28.86-21.82,28.86-21.82a15.2,15.2,0,0,0-12.24-2.93,9,9,0,0,0,1.3-7.42c-3.73-14,5.71-32.88,11.48-41.92,6.7-1.15,21.71-3.54,37.45-4.89,35.11-3,43.2,1.72,44.41,2.64C410.41,1452,403.82,1509.51,385.4,1539.86Z"/><path class="cls-3" d="M480.43,1310.25l5.47,95.87-58.41,109.42c19.45-82.7-1.24-176.75-1.24-176.75s-4.82-42.25-24.82-68.46a.09.09,0,0,1,0,.05c0,.22.21,1.22.48,2.86v0c.92,5.63,2.94,18.74,4.41,34a375.55,375.55,0,0,1,1.17,42.52l-8.87,5.22,3.92,84.78-97.44,7s-53.2-82.45-43.82-157.74a110.83,110.83,0,0,1,8.84-31.58q2.12-4.71,4.58-9.19c26.93-48.91,84.16-75.82,102-86.92C399,1147.51,490.21,1111,490.21,1111l-5.85,30.18-6.93,9.58L446.13,1194l8.86,43.12Z"/><path class="cls-2" d="M407.51,1349.77l-8.87,5.22,3.92,84.78-97.44,7s-53.2-82.45-43.82-157.74a112.81,112.81,0,0,1,13.42-40.77,52.14,52.14,0,0,1-1.34,13.46c-13.74,63,18.5,147.61,54.05,156.49s59.86-8.22,59.86-8.22c12.12-30.91-15.19-93.32-15.19-93.32,32.73-2.72,31.16-33.65,29.83-43.43.92,5.63,2.94,18.74,4.41,34A375.55,375.55,0,0,1,407.51,1349.77Z"/><path class="cls-14" d="M490.21,1111l-5.85,30.18-6.93,9.58c-158.28,40.83-204,111-204,111s-1.18-1.53-3.24-4.27q2.12-4.71,4.58-9.19c26.93-48.91,84.16-75.82,102-86.92C399,1147.51,490.21,1111,490.21,1111Z"/><path class="cls-1" d="M412.34,1357.21l3.13-20.93-21.9,3.29c-11.52-16.13-22.71-24.33-22.71-24.33.37.59,35.77,58.22,27.23,114.86-13.69,3.93-51.68,12.67-92,2.86C295.9,1418,250.44,1346.44,269,1282.1c20.4-70.86,111.34-120.92,183-142.27l-5.71-19.17c-24.11,7.18-71.18,23.82-115.5,54.64-43,29.92-70.31,64-81,101.26-9.76,33.89-5.48,74.31,12.37,116.88a282.51,282.51,0,0,0,29.9,54.23l2.07,2.79,3.36.9a183.61,183.61,0,0,0,47.73,6.1c36.29,0,63.53-9.69,65.11-10.27l5.26-1.91,1.12-5.48c4.85-32.3-1.23-58.48-10.37-78.36Z"/><path class="cls-13" d="M900.15,1285.87l0,0c9.46-8.81,8.54-28.77,7.16-39.89-2.18-17.5-7.92-35-15.74-48-12.16-20.15-29.08-28.24-46.43-22.2-45.66,15.9-78.42,69.16-83.71,111.47-3.58,28.66,1.36,66.7,20.47,87.08,8.38,8.94,18.8,13.62,30.26,13.62.85,0,1.71,0,2.57-.08,16.14-1,24.16-8.09,28-13.89,6.07-9.07,5.8-19.86,4.66-26.92a25,25,0,0,0,2.19-2.31c8.11,3.61,18.44,4.64,28.4,2.49,13.17-2.84,23-10.82,27.06-21.88,5.55-15.26-.76-28.27-8.13-36.58Zm-28.68,23.53s5.24-4,6.75-13.29a4.83,4.83,0,0,0,.45.34c.15.1,14.33,9.56,9.52,22.78-2.56,7-9.84,9.56-14,10.45a29.4,29.4,0,0,1-17.28-1.34,16.55,16.55,0,0,1-3.68-2.38l0,0a8.44,8.44,0,0,0-.91-.79c-11.64-10.73-20.53-38.57-20.53-38.57-7.7,16.81.55,35.83,3.11,41a3.26,3.26,0,0,1-.33,3.42,13.25,13.25,0,0,1-3.07,2.8,4,4,0,0,1-3.47.46c-26.39-8.8-26.76-40.39-26.76-40.39s-11.16,27.05,3.52,41.82c5.86,5.9,11.54,9.22,16.23,10.75a12.12,12.12,0,0,1,7.77,15.62,9.79,9.79,0,0,1-1,2c-2.37,3.49-7.12,5.47-14.14,5.89s-13.24-2.15-18.62-7.88c-12.89-13.74-19.36-43.57-15.74-72.54,4.51-36.06,33.23-83.28,71.77-96.7a15.47,15.47,0,0,1,5.28-1c4.55,0,11.15,2.33,18.41,13.29,6.8,10.26,12.18,25.58,14.41,41,2.34,16.22.09,25.07-1.3,26.64l-10.39,9.61a1.8,1.8,0,0,0-.19.2c-3.92-10.8-15.48-15-15.48-15C875.51,1282.4,871.47,1309.4,871.47,1309.4Z"/><path class="cls-12" d="M888.19,1319.23c-2.56,7-9.84,9.56-14,10.45a29.4,29.4,0,0,1-17.28-1.34,16.55,16.55,0,0,1-3.68-2.38l0,0a8.44,8.44,0,0,0-.91-.79c-4.9-4.52-9.31-12.07-12.78-19.3a169.19,169.19,0,0,1-7.75-19.27c-3.39,7.41-3.69,15.24-2.74,22.13a64,64,0,0,0,5.85,18.87,3.26,3.26,0,0,1-.33,3.42,13.25,13.25,0,0,1-3.07,2.8,4,4,0,0,1-3.47.46c-14.7-4.9-21.33-16.88-24.32-26.53h0a54.06,54.06,0,0,1-2.44-13.85s-9.63,23.34.77,38.5a23.63,23.63,0,0,0,2.75,3.32c5.86,5.9,11.54,9.22,16.23,10.75a12.12,12.12,0,0,1,7.77,15.62,9.79,9.79,0,0,1-1,2c-2.37,3.49-7.12,5.47-14.14,5.89s-13.24-2.15-18.62-7.88c-4.93-5.26-8.93-12.87-11.77-21.9-4.59-14.55-6.2-32.76-4-50.64,4.51-36.06,33.23-83.28,71.77-96.7a15.47,15.47,0,0,1,5.28-1,14.58,14.58,0,0,1,6.44,1.56c3.56,1.74,7.65,5.2,12,11.73,6.8,10.26,12.18,25.58,14.41,41,2.34,16.22.09,25.07-1.3,26.64l-10.39,9.61a1.8,1.8,0,0,0-.19.2c-3.92-10.8-15.48-15-15.48-15,13.69,14.87,9.65,41.87,9.65,41.87s5.24-4,6.75-13.29a4.83,4.83,0,0,0,.45.34C878.82,1296.55,893,1306,888.19,1319.23Z"/><path class="cls-19" d="M828.82,1362.05a9.79,9.79,0,0,1-1,2c-2.37,3.49-7.12,5.47-14.14,5.89s-13.24-2.15-18.62-7.88c-4.93-5.26-8.93-12.87-11.77-21.9,4.32,5.3,9.74,6.38,14,3.84,3.17-1.88,4.44-6.51,4.79-11.63a23.63,23.63,0,0,0,2.75,3.32c5.86,5.9,11.54,9.22,16.23,10.75A12.12,12.12,0,0,1,828.82,1362.05Z"/><path class="cls-19" d="M834.93,1327.57a3.26,3.26,0,0,1-.33,3.42,13.25,13.25,0,0,1-3.07,2.8,4,4,0,0,1-3.47.46c-14.7-4.9-21.33-16.88-24.32-26.53,10,14.75,20.78,6,25.34,1A64,64,0,0,0,834.93,1327.57Z"/><path class="cls-19" d="M888.19,1319.23c-2.56,7-9.84,9.56-14,10.45a29.4,29.4,0,0,1-17.28-1.34,16.55,16.55,0,0,1-3.68-2.38l0,0a8.44,8.44,0,0,0-.91-.79c-4.9-4.52-9.31-12.07-12.78-19.3,0,0,17.09,9.39,24.14-2.25s-5.87-35.21-5.87-35.21c-13.11-30.72-11.74-69.07-11.74-69.07l16.7-6c3.56,1.74,7.65,5.2,12,11.73,6.8,10.26,12.18,25.58,14.41,41,2.34,16.22.09,25.07-1.3,26.64l-10.39,9.61a1.8,1.8,0,0,0-.19.2c-3.92-10.8-15.48-15-15.48-15,13.69,14.87,9.65,41.87,9.65,41.87s5.24-4,6.75-13.29a4.83,4.83,0,0,0,.45.34C878.82,1296.55,893,1306,888.19,1319.23Z"/><path class="cls-3" d="M1141,1183.69a84.79,84.79,0,0,1-2.51,9c-28.7,84.52-183.13,120-231.65,91.51-19.63-11.52-32-31-39.86-50.2a194.55,194.55,0,0,1-13.1-55.66l13.4-13.41c-.47-.36-.94-.72-1.4-1.09-26-20.36-42.7-45.76-42.7-45.76s-23.82-68.87,101.92-78.09q7.63-.56,15.23-.69c.43,0,.87,0,1.3,0,97.18-1.36,185,47.8,199.24,109.82.22.92.41,1.84.59,2.76h0c.39,2,.7,4,.92,6A78.14,78.14,0,0,1,1141,1183.69Z"/><path class="cls-2" d="M943.89,1124.57c-28.16,4.37-74.35,37.7-91.86,50.87-5.12-8.91-4-27.2-10.62-34.5a204.12,204.12,0,0,1-18.25-22.89s-23.82-68.87,101.92-78.09q8.29-.6,16.53-.72c17,20.28,30.12,36,30.12,36L954.82,1099l33.83,21.58-1.49,4S984.91,1118.21,943.89,1124.57Z"/><path class="cls-2" d="M1142.87,1148.31l-.51,9.48-1.38,25.9a84.79,84.79,0,0,1-2.51,9c-28.7,84.52-183.13,120-231.65,91.51-19.63-11.52-32-31-39.86-50.2,16.14,7.06,50.14,14.77,120.73,11.91,108.24-4.4,146.31-77.07,153.75-94.05h0C1142.42,1149.58,1142.87,1148.31,1142.87,1148.31Z"/><path class="cls-14" d="M987.16,1124.57C885.42,1130.31,852,1177,852,1177l6.78,26.61c47-60.78,153.56-76.87,153.56-76.87Z"/><path class="cls-14" d="M1140.85,1149.06c-3.55-2.44-8.25-7.42-14.38-15.62-44.52-59.6-160.08-78.12-172-79.88l-1-.15-13.18-14.14c.43,0,.87,0,1.3,0C1038.79,1037.88,1126.65,1087,1140.85,1149.06Z"/><path class="cls-1" d="M950.06,1299.86a364.11,364.11,0,0,1-43.76-2.53,21.32,21.32,0,0,1-11.24-4.88c-28-23.75-48-81.84-55.36-105.72a21.76,21.76,0,0,1,4.52-20.76c7.26-8.13,22.76-25.53,51.16-36.83,60.88-24.24,117-2.4,117-2.4-96.73-2.19-141.75,39.67-153.24,52.55a1.64,1.64,0,0,0-.32,1.57c11,35.69,29.64,79.74,49.19,96.35a1.52,1.52,0,0,0,.77.28c23.2,2.89,142,13.87,202.8-54.31,26.18-29.36,20.78-59.56,11.64-79.73-21.48-47.39-92-97.32-180.86-97.32h-2.05l-.17-20a254.38,254.38,0,0,1,124.57,31.7c36,20.12,63.24,47.59,76.74,77.36,16.39,36.15,11.09,72.12-14.93,101.3C1078.65,1290.15,1000.39,1299.86,950.06,1299.86Z"/><path class="cls-21" d="M1231.88,293.88c1.92,30.35-4,63.84-14.65,97a250.1,250.1,0,0,1-26.17,55.93,413.73,413.73,0,0,1-75,89.47c-14,12.59-29.76,22.27-45,32.87-4.31,3-5.74,6-5.83,11.19-.08,5.74,1.1,12-2.43,17.26-2.69,4,1.07,5,3.1,6.13,7.5,4.23,10.06,10.21,8.64,18.74-2.51,15.12-.13,30.3.76,45.41.35,6-.59,9.66-6.39,11.35-6.19,1.81-6.22,4.74-3.18,10.08,13.53,23.84,24.12,49.06,35.09,74.16,9.68,22.17,13.88,45.66,21.06,68.38,9.29,29.43,8.7,58.66,3.22,88.27-5,27-15.46,51.68-29.94,75.09-18.87,30.49-43.29,55.35-71.3,77.35-24.11,19-51,32.9-77.7,47.62-22.83,12.6-47.59,19.5-71.55,28.82-20.79,8.09-42.68,11.06-63.79,17.13-19.4,5.59-39.15,6.75-58.75,9.88-33.22,5.3-66.57,6.69-100.23,5.61-29.42-.94-58.61-2.62-87.79-6.83a743.2,743.2,0,0,1-82.4-16.33,487.81,487.81,0,0,1-105.19-41c-45.08-23.81-83-55.18-109.49-98.87-14.9-24.55-25.07-51.08-28.09-80.32-1.77-17.12-1.21-34-1-51,.32-28.83,7-56.2,14.15-83.82a343.26,343.26,0,0,1,26.73-69.79c2.62-5.17,3.27-11.19,6.75-16.09,2.92-4.1-1.28-5-3.47-5.59-10.3-2.85-13.4-9.35-11.81-19.59,2.08-13.34-2.14-26.48-2.27-39.83-.08-7.39,1.57-12.81,8.59-15.83,5-2.14,5.57-4.11,1.1-8.17-3.69-3.35-5-9-5-13.8,0-7.13-2.24-9.27-9.48-11.68-16.21-5.38-30.78-14.6-44.6-25-23.89-17.91-46.49-37.32-66-59.8-21.23-24.43-40.72-50.19-52.62-81-11-28.51-20.6-57.07-22.83-88-2-27.64-1.87-54.75,3.12-82.2,7.34-40.47,23.25-76.8,45.37-111.18,14.25-22.15,32.21-40.62,51-58.54,9-8.61,21.16-8.41,33.76-.93,7.05,4.18,9.86,13.57,7.86,24.73-6.54,36.36-9.22,73.31-1.4,109.32,9.16,42.18,28.4,79.82,63.55,107.52,10.45,8.24,20.38,17,31.27,24.83a267,267,0,0,0,50.92,28.91c19.07,8.11,38.68,16.33,60.55,15.42,7.78-.32,10.82-5.77,14.73-9.83,14.37-15,32.18-24.93,49-36.48,27.65-18.93,59-26.82,90.72-34.42a8.81,8.81,0,0,0,.92-.19c4.9-1.87,13,1.37,14.67-3.17,2.69-7.28,4.25-15.75,2.78-23.81-1.38-7.52.8-12.22,7.55-15.88,21-11.35,42.48-17,67-15.16,15.86,1.21,29.2,7.38,43.38,12.31,3.79,1.31,4,5.2,4.37,8.64.92,8.69,1.8,17.38,2.78,26.06.38,3.35.72,5.11,5.77,4.86,7.63-.37,15.38,2,23.08,3.2,29.63,4.57,57.06,15.15,83.7,28.75A231.25,231.25,0,0,1,884.4,387c5.13,4.66,10.16,3.46,15.54,2.34,41-8.54,74.91-29.65,106.19-57,23.69-20.7,44.24-43.8,59.7-70.69,10.59-18.41,14.83-39.84,17.81-61.14,3.22-23,2.23-46.09-.8-68.8a360.89,360.89,0,0,0-7.49-37.38c-2.75-11.24-4.55-23,6.14-31.77,9.12-7.44,24.34-7.32,33.81.2,35.21,28,64.77,60.58,84.31,101.7,13.94,29.31,25.46,59.07,29.44,91.71A302.23,302.23,0,0,1,1231.88,293.88ZM935.46,546.67c.73.84,2,1.91,2.59.81.77-1.39-1.12-1.18-1.92-1.61-3.37-7.59-9.79-12.89-15.27-18.59-17.71-18.43-27.64-40.92-35.56-64.54-3.74-11.13-2.22-22.91-2.07-34.4.22-16.31-5.72-28.48-19.38-38.34-29.51-21.3-61.1-38-96.31-47.31-11.64-3.08-23.78-4.39-35.75-6.06-2.76-.39-7.76-2.15-7.35,3.89.47,6.81.74,13.76,2.33,20.35,6.06,25,7.45,50.76,11.25,76.08s8.24,50.7,10.22,76.31c.33,4.28,2.67,4.58,6,5.32,18.48,4.1,37.46,3.82,56.11,6.9,22.79,3.78,46,4.94,69,7.85C898.47,535.76,917,541.14,935.46,546.67Zm-280.85,110a29.46,29.46,0,0,1-5.48,1.12c-36.1.74-72,3.79-107.52,10.35-19.21,3.54-38.6,5.21-57.75,10.2-22.79,5.93-45.9,10.59-68.67,17.09-28.82,8.21-56.51,19.08-84.09,30.41a27.58,27.58,0,0,1-19,1c-10.76-3.16-15.17-.87-19.24,9.45-10.67,27-21.8,53.75-29,82.08-4.46,17.56-7.73,35-8.7,53-4.4,9.4-1.29,19.3-2.09,28.91-1.83,22.08,1.63,43.33,7.15,64.53,10.68,41.06,36,72,66.95,99.56a307.94,307.94,0,0,0,97,58.63c22.5,8.52,44.88,17,68.48,22.41,27.11,6.24,54.17,11.73,81.89,15,30.62,3.6,61.15,5.3,91.95,5.85,35,.63,69.37-2.74,103.74-8.64,20.2-3.47,40.51-5.79,60.2-12,21.25-6.74,43-11.42,63.89-19.9,35-14.18,69.15-29.3,99.92-51.51,24.74-17.85,48.38-36.63,67.72-60.66,25-31.13,43.74-64.64,49.33-105a182,182,0,0,0-4.55-73.76c-.1-8.3-4.44-15.44-6.35-23.19-9.59-39.09-27.57-74.54-46-109.89-4.2-8-8.5-9.54-16-5.25-7.1,4.07-14.76,7.21-23,4.82-6.83-2-13.84-3.59-20.49-5.82a625.45,625.45,0,0,0-81-21.13c-25.91-5-51.84-9-78-12.21-30.5-3.77-60.94-5.38-91.6-6.26-19.61-.56-39.15-.56-58.72.16C675.22,655.38,664.85,653.19,654.61,656.69ZM293.35,590.46c12.71-2.93,26.14-4.14,38-9.09,35.95-15,62.11-40.44,79.14-76,11.81-24.68,10.32-50,8.67-75.72-.31-4.74-2.07-6.9-7.24-7.4-8.61-.84-17.37-1.93-25.6-4.43-28.38-8.63-54.23-22.59-78.65-39.27-13.1-8.94-25.24-19-37.48-29.11-23.08-19-39.6-43-53.78-68.45-11.75-21.12-15.55-45.44-18.46-69-3.82-30.85-.51-62,4-92.74.62-4.19,1.71-8-3.23-10.37s-8.73-1.36-12.69,2.29c-19.41,18-36.81,37.4-51.18,59.86A272,272,0,0,0,95.63,271.62c-5.8,32.62-6.42,64.61.22,96.94,4.44,21.62,9.14,42.81,19.07,63.09,15.75,32.15,34.56,61.69,59.25,87.67C194,540.16,215.71,558.76,239.83,574,255.6,584,272.68,593.78,293.35,590.46ZM1217,303.29c-4-13.15-.22-27.43-3.09-41.14-6.67-31.83-12.79-63.48-29.65-92.56-14.49-25-30.37-48.47-50.47-69-9.31-9.51-20.1-17.57-30.21-26.3-4.32-3.72-8.33-1.21-11.91,1-2.52,1.59-4.84,4.16-3.12,7.84,5.28,11.24,5.42,23.57,7.54,35.47,5.82,32.67,7.11,65.35.66,98.15-6.09,31-18.45,59.34-37.61,84.16-10.76,13.93-23.34,26.59-36.53,38.59a283.14,283.14,0,0,1-40.93,30.83c-23.15,14.42-46.17,29.92-74.28,33.07-7.2.81-8.21,4.15-9.13,10-2.41,15.1.66,29.75,3.08,44.37,6.5,39.33,33.33,64.14,63.16,86.6,18.59,14,41.15,15.1,62.81,18.26,7.49,1.1,15.77,2,23.76-1.5,20.39-8.85,38.7-20.38,54.84-35.9,26.35-25.35,51.88-50.79,68.84-84.22,10.81-21.33,20.74-42.6,28.86-65.14C1212.11,352.33,1212.09,327.84,1217,303.29ZM597.07,539.55c-8.44-.3-17-1.73-25.18.93-24,7.78-49.47,8-73.7,15.06-14.89,4.31-31.26,3.81-45.83,8.78-30.53,10.4-61.31,20.38-89.33,37.28-19.43,11.72-39.59,22.27-59.21,33.74-14.56,8.51-24.75,18.33-19,36.93.53,1.72.16,3.72.17,5.6.06,12.19,3.49,20.79,16.75,25.9,11,4.23,20.17,6,31,1,18.9-8.75,39.27-13.55,58.67-21.17,20.47-8.05,42.5-11.75,63.88-17.06,38.27-9.51,77.51-14.43,116.48-20.38,17.43-2.66,35.22-2.23,52.82-5,17.1-2.73,34.78-2.21,52.12-2.6,39.77-.9,79.62-.81,119.31,3.51,25.86,2.81,51.89,4.21,77.64,7.75,20.58,2.82,41.11,6.08,61.44,11.11,23.72,5.87,47.93,9.9,70.77,18.9,8,3.13,15.2,3.48,23.22.35s15.28-8.33,24.18-9.6c4.48-.64,5.33-4.49,5-8.69-.87-12.05.82-24.07.11-36.22-.51-8.68-4.95-11.52-11.29-13.49-2.89-.9-6-1.16-8.87-2.43C1023.4,603.32,1010,594.4,995.1,588c-20.28-8.75-40.77-17-61.32-25-35.77-13.92-74-15.59-111.47-20.42-24.16-3.11-48.53-4.57-72.67-7.83-24.89-3.37-49.88-2.15-74.6-1C649.06,535.09,622.86,534.88,597.07,539.55ZM385.36,571.32c7.93-1.08,14.37-4.62,20.92-8,20.94-10.9,44.25-15.33,66.8-19.55,32.81-6.13,65.24-14.77,98.59-18,5-.47,8-2.3,8.6-7.78,1.43-12.33,3.81-24.6,3.13-37.08-1-18,2-35.86,3.19-53.61,1.64-25,1.18-50.3,5.92-75.14,1.69-8.85-1.28-11.32-10.64-9.85a215.83,215.83,0,0,0-30.6,7c-44.34,13.8-83,36-113.59,71.56-2.66,3.09-4,5.44-2.86,9.8,5.05,20,3.14,40.29-1.13,59.78a135,135,0,0,1-27.61,56.39C399.34,555.11,393,563.67,385.36,571.32Zm330.36-53.16c2.24,0,3.81,0,5.37,0,11.17.21,10.93.23,10.12-11.28-1.39-19.84-5.75-39.25-8.34-58.92-4.46-33.88-9.11-67.74-14.4-101.5-2.4-15.34.39-31.09-5-46.25-1.77-5-3.91-7.83-8.37-10-20.25-10.05-41.33-8.45-61.82-2.7-26,7.3-23.36,5.94-22.1,28.91a10.68,10.68,0,0,1-.12,1.87c-2,15.43-2.93,30.9-3.82,46.44-1.74,30.59-3.76,61.18-5.89,91.74-1.38,19.77-.8,39.76-4.41,59.37-.9,4.87.72,6.92,5.84,6.58,12.06-.81,24.19-1.44,36.22-2C664.76,519.1,690.52,515.37,715.72,518.16Zm-389,82.27c-8.52,2-17.07,4-25.56,6.16-3.9,1-2.45,4.46-2.54,7-.07,2.08-.45,4.74,2.29,5.44,2.38.61,4.07-1.24,5.5-2.84C312,609.85,319.76,606.47,326.68,600.43Zm686.94-23.5c6.76,7.42,14.55,9.74,21.39,13.48,3,1.63,3.68-.84,4.21-3,.6-2.49,3.13-5.81-1-7C1030.85,578.09,1023.23,576.16,1013.62,576.93Z"/><path class="cls-22" d="M1106.8,834.79a182,182,0,0,1,4.55,73.76c-5.59,40.39-24.28,73.9-49.33,105-19.34,24-43,42.81-67.72,60.66-30.77,22.21-64.94,37.33-99.92,51.51-20.91,8.48-42.64,13.16-63.89,19.9-19.69,6.25-40,8.57-60.2,12-34.37,5.9-68.76,9.27-103.74,8.64-30.8-.55-61.33-2.25-91.95-5.85-27.72-3.27-54.78-8.76-81.89-15-23.6-5.43-46-13.89-68.48-22.41a307.94,307.94,0,0,1-97-58.63c-30.94-27.57-56.27-58.5-66.95-99.56-5.52-21.2-9-42.45-7.15-64.53.8-9.61-2.31-19.51,2.09-28.91,20.23-7,41.3-4.75,61.65-3,21.47,1.84,42.1,8.9,61.79,19,16.49,8.45,31.2,20.2,48.95,26.19-2.39,21.44-.83,42.59,2.64,63.9,3.41,21,8.35,41.08,19.15,60.86,3.18-7.52-2.09-11.51-2.81-16.63A649.74,649.74,0,0,1,441,956c-.45-11.63.74-23.17,1.66-34.72,13.9,3.26,24.87-3.67,34.93-11.29,20.29-15.38,36.22-36.05,57.76-49.83,31-19.81,63.12-36.78,99.87-44.6a306.65,306.65,0,0,1,74.64-6.25,159.73,159.73,0,0,1,41.1,7.31c31.26,9.64,61.06,22.76,86.86,43.53,9.92,8,19.53,16.37,29.49,24.31,17.51,13.94,36.29,22.74,59.13,13.4,7.55,18.58,6.35,38.49,7.18,57.74.86,19.63-2.1,39.49-6.14,59.4,4.12-.93,4.22-4.43,4.59-7.09,2.6-18.79,7.79-37,8.91-56.26,1.2-20.53,3.47-40.64-2.21-60.74a103.1,103.1,0,0,0,18.75-12.27,194.44,194.44,0,0,1,59.37-32.31C1046,836.67,1075.84,830.88,1106.8,834.79ZM684.13,952.09c5.17,5,8.93,11.6,15.37,13.75,16,5.32,31.42,10.51,49.63,6.92,26.33-5.19,41.65-24.63,42.84-48.8.27-5.66-.29-12.14-8.16-12.22s-8,5.81-7.87,11.93c.3,16.8-9.54,30.45-25.05,33.79a65.52,65.52,0,0,1-20.45.78c-22.11-2.34-33.56-10.84-37.29-27.22-1-4.49.34-9.75-1.4-13.8-2.45-5.71.29-6.24,4.42-7.05,18.21-3.6,30.91-15.37,41.52-29.42,8.08-10.72,5.16-21.66-6.12-29.19-6.76-4.52-14.49-5-22.1-6.35-25.07-4.46-49.58-1-73.84,5.22-8.68,2.21-15.14,7.9-16.71,16.93-1.72,9.9,2.73,17.55,10.25,24.37,11.56,10.47,24.09,17.89,40,19,2.49.17,6.22-.33,7.33,4.13,3.79,15.31-6,34.74-19.55,42.57-13,7.51-25.44,4.79-38.63,2.16-7.16-1.43-12.76-4.36-17.22-9.84a34.32,34.32,0,0,1-8.12-22.4c0-5.41-1.72-9.5-7.56-9.75-6.46-.27-8.63,4.3-8.64,9.87-.06,17.92,7.15,33.61,22.47,41.61C618.54,979.1,639.6,985,661,971.5,669.52,966.1,679.25,962.59,684.13,952.09Z"/><path class="cls-23" d="M1106.8,834.79c-31-3.91-60.84,1.88-89.95,11.49a194.44,194.44,0,0,0-59.37,32.31,102.53,102.53,0,0,1-18.75,12.26c-8-28.44-23.16-52.8-42.89-74.51Q889,808.76,882,801.23c-2.78-3-2.48-5.2,1.84-5.23,20.55-.13,41.32-4.67,61,6.82,6.48,3.77,13,8.44,21,12-3.61-9.69-30.53-31-41.8-33.62-12.38-2.87-24.86-5.38-37.34-7.81-2.89-.56-6-.39-5.12-4.56,1.53-7.32-1.44-14.11-2.36-21.1-2.15-16.41-9.93-30.07-22.4-40.85-7.87-6.82-13.79-6.85-21.25.31s-15.73,13.25-24.14,19.11c-12.19,8.48-19.75,18.85-19.42,34.58.13,6.2,2.69,11.4,3.69,17.16,2.69,15.36,11.07,27.41,23.18,37.13,8.87,7.12,19.39,9.69,28.75,4.53,10.94-6,17-1.92,23.54,5.69,1.37,1.61,3.46,2.58,5,4.06,20.94,19.69,39.7,41,50.17,68.38-22.84,9.34-41.62.54-59.13-13.4-10-7.94-19.57-16.32-29.49-24.31-25.8-20.77-55.6-33.89-86.86-43.53a159.73,159.73,0,0,0-41.1-7.31,306.65,306.65,0,0,0-74.64,6.25c-36.75,7.82-68.91,24.79-99.87,44.6-21.54,13.78-37.47,34.45-57.76,49.83-10.06,7.62-21,14.55-34.92,11.29,4.44-18.88,10.89-36.79,22.95-52.42a379.48,379.48,0,0,1,28.61-33.09c4.85-5,7.67-6.52,14.47-3.76,13.24,5.37,25.13,2.31,35.88-7.88,19.29-18.27,19.62-41.25,17.44-64.91-.54-5.89-4.18-10.56-9.29-14.47-13.59-10.41-29-18.18-42-29.44-1.93-1.69-4.27-3.29-6.72-1.45-5.18,3.9-10.92,7.45-15,12.34-13.42,16-18,34.88-14.83,55.42,1,6.29-.7,8.84-6.91,10-20.53,3.9-37.71,14.59-52.7,28.55-6.14,5.73-13.4,11.5-14.18,21.17-.55.86-2.67,1.18-1.45,2.53.85.94,2.29.33,3-1,12.32-19.32,60.58-33.88,76-26.91a380.42,380.42,0,0,0-26.08,35c-11.18,16.58-16,35.55-23.51,53.47-1.14,2.7-.55,6.14-.76,9.23-17.75-6-32.46-17.74-48.95-26.19-19.69-10.08-40.32-17.14-61.79-19-20.35-1.75-41.42-4-61.65,3,1-18,4.24-35.48,8.7-53,7.19-28.33,18.32-55.07,29-82.08,4.07-10.32,8.48-12.61,19.24-9.45a27.58,27.58,0,0,0,19-1c27.58-11.33,55.27-22.2,84.09-30.41,22.77-6.5,45.88-11.16,68.67-17.09,19.15-5,38.54-6.66,57.75-10.2,35.55-6.56,71.42-9.61,107.52-10.35a29.46,29.46,0,0,0,5.48-1.12c10.33.55,20.65.68,30.94-.67,19.57-.72,39.11-.72,58.72-.16,30.66.88,61.1,2.49,91.6,6.26,26.19,3.24,52.12,7.22,78,12.21a625.45,625.45,0,0,1,81,21.13c6.65,2.23,13.66,3.85,20.49,5.82,8.28,2.39,15.94-.75,23-4.82,7.48-4.29,11.78-2.77,16,5.25,18.48,35.35,36.46,70.8,46,109.89C1102.36,819.35,1106.7,826.49,1106.8,834.79Z"/><path class="cls-24" d="M293.35,590.46C272.68,593.78,255.6,584,239.83,574c-24.12-15.25-45.87-33.85-65.66-54.69-24.69-26-43.5-55.52-59.25-87.67-9.93-20.28-14.63-41.47-19.07-63.09-6.64-32.33-6-64.32-.22-96.94A272,272,0,0,1,134.91,171c14.37-22.46,31.77-41.9,51.18-59.86,4-3.65,7.87-4.56,12.69-2.29s3.85,6.18,3.23,10.37c-4.56,30.78-7.87,61.89-4,92.74,2.91,23.57,6.71,47.89,18.46,69,14.18,25.49,30.7,49.42,53.78,68.45,12.24,10.09,24.38,20.17,37.48,29.11,24.42,16.68,50.27,30.64,78.65,39.27,8.23,2.5,17,3.59,25.6,4.43,5.17.5,6.93,2.66,7.24,7.4,1.65,25.75,3.14,51-8.67,75.72-17,35.58-43.19,61-79.14,76C319.49,586.32,306.06,587.53,293.35,590.46Z"/><path class="cls-24" d="M1217,303.29c-4.91,24.55-4.89,49-13.38,72.6-8.12,22.54-18,43.81-28.86,65.14-17,33.43-42.49,58.87-68.84,84.22-16.14,15.52-34.45,27-54.84,35.9-8,3.47-16.27,2.6-23.76,1.5-21.66-3.16-44.22-4.25-62.81-18.26-29.83-22.46-56.66-47.27-63.16-86.6-2.42-14.62-5.49-29.27-3.08-44.37.92-5.81,1.93-9.15,9.13-10,28.11-3.15,51.13-18.65,74.28-33.07a283.14,283.14,0,0,0,40.93-30.83c13.19-12,25.77-24.66,36.53-38.59,19.16-24.82,31.52-53.18,37.61-84.16,6.45-32.8,5.16-65.48-.66-98.15-2.12-11.9-2.26-24.23-7.54-35.47-1.72-3.68.6-6.25,3.12-7.84,3.58-2.25,7.59-4.76,11.91-1,10.11,8.73,20.9,16.79,30.21,26.3,20.1,20.51,36,44,50.47,69,16.86,29.08,23,60.73,29.65,92.56C1216.78,275.86,1213,290.14,1217,303.29Z"/><path class="cls-25" d="M597.07,539.55c25.79-4.67,52-4.46,78-5.72,24.72-1.19,49.71-2.41,74.6,1,24.14,3.26,48.51,4.72,72.67,7.83,37.51,4.83,75.7,6.5,111.47,20.42,20.55,8,41,16.2,61.32,25,14.87,6.41,28.3,15.33,43.08,21.72,2.92,1.27,6,1.53,8.87,2.43,6.34,2,10.78,4.81,11.29,13.49.71,12.15-1,24.17-.11,36.22.3,4.2-.55,8-5,8.69-8.9,1.27-16.12,6.44-24.18,9.6s-15.25,2.78-23.22-.35c-22.84-9-47-13-70.77-18.9-20.33-5-40.86-8.29-61.44-11.11-25.75-3.54-51.78-4.94-77.64-7.75-39.69-4.32-79.54-4.41-119.31-3.51-17.34.39-35-.13-52.12,2.6-17.6,2.81-35.39,2.38-52.82,5-39,6-78.21,10.87-116.48,20.38-21.38,5.31-43.41,9-63.88,17.06-19.4,7.62-39.77,12.42-58.67,21.17-10.8,5-20,3.23-31-1-13.26-5.11-16.69-13.71-16.75-25.9,0-1.88.36-3.88-.17-5.6-5.71-18.6,4.48-28.42,19-36.93,19.62-11.47,39.78-22,59.21-33.74,28-16.9,58.8-26.88,89.33-37.28,14.57-5,30.94-4.47,45.83-8.78,24.23-7,49.71-7.28,73.7-15.06C580.08,537.82,588.63,539.25,597.07,539.55Z"/><path class="cls-26" d="M385.36,571.32c7.65-7.65,14-16.21,20.72-24.5a135,135,0,0,0,27.61-56.39c4.27-19.49,6.18-39.82,1.13-59.78-1.1-4.36.2-6.71,2.86-9.8,30.54-35.55,69.25-57.76,113.59-71.56a215.83,215.83,0,0,1,30.6-7c9.36-1.47,12.33,1,10.64,9.85-4.74,24.84-4.28,50.17-5.92,75.14-1.17,17.75-4.16,35.63-3.19,53.61.68,12.48-1.7,24.75-3.13,37.08-.63,5.48-3.63,7.31-8.6,7.78-33.35,3.22-65.78,11.86-98.59,18-22.55,4.22-45.86,8.65-66.8,19.55C399.73,566.7,393.29,570.24,385.36,571.32Z"/><path class="cls-25" d="M715.72,518.16c-25.2-2.79-51,.94-76.71,2.2-12,.59-24.16,1.22-36.22,2-5.12.34-6.74-1.71-5.84-6.58,3.61-19.61,3-39.6,4.41-59.37,2.13-30.56,4.15-61.15,5.89-91.74.89-15.54,1.85-31,3.82-46.44a10.68,10.68,0,0,0,.12-1.87c-1.26-23-3.92-21.61,22.1-28.91,20.49-5.75,41.57-7.35,61.82,2.7,4.46,2.21,6.6,5.05,8.37,10,5.38,15.16,2.59,30.91,5,46.25,5.29,33.76,9.94,67.62,14.4,101.5,2.59,19.67,7,39.08,8.34,58.92.81,11.51,1,11.49-10.12,11.28C719.53,518.14,718,518.16,715.72,518.16Z"/><path class="cls-26" d="M935.46,546.67c-18.45-5.53-37-10.91-56.13-13.34-23-2.91-46.17-4.07-69-7.85-18.65-3.08-37.63-2.8-56.11-6.9-3.35-.74-5.69-1-6-5.32-2-25.61-6.42-51-10.22-76.31s-5.19-51.07-11.25-76.08c-1.59-6.59-1.86-13.54-2.33-20.35-.41-6,4.59-4.28,7.35-3.89,12,1.67,24.11,3,35.75,6.06,35.21,9.3,66.8,26,96.31,47.31,13.66,9.86,19.6,22,19.38,38.34-.15,11.49-1.67,23.27,2.07,34.4,7.92,23.62,17.85,46.11,35.56,64.54,5.48,5.7,11.9,11,15.27,18.59Z"/><path class="cls-27" d="M326.68,600.43c-6.92,6-14.64,9.42-20.31,15.78-1.43,1.6-3.12,3.45-5.5,2.84-2.74-.7-2.36-3.36-2.29-5.44.09-2.56-1.36-6,2.54-7C309.61,604.4,318.16,602.47,326.68,600.43Z"/><path class="cls-27" d="M1013.62,576.93c9.61-.77,17.23,1.16,24.65,3.39,4.08,1.23,1.55,4.55,1,7-.53,2.21-1.22,4.68-4.21,3C1028.17,586.67,1020.38,584.35,1013.62,576.93Z"/><path class="cls-28" d="M685.55,656c-10.29,1.35-20.61,1.22-30.94.67C664.85,653.19,675.22,655.38,685.55,656Z"/><path class="cls-26" d="M936.13,545.87c.8.43,2.69.22,1.92,1.61-.6,1.1-1.86,0-2.59-.81Z"/><path class="cls-29" d="M427.58,913.61c.21-3.09-.38-6.53.76-9.23,7.56-17.92,12.33-36.89,23.51-53.47a380.42,380.42,0,0,1,26.08-35c-15.45-7-63.71,7.59-76,26.91l-1.52-1.52c.79-9.67,8.05-15.44,14.19-21.17,15-14,32.17-24.65,52.7-28.55,6.21-1.18,7.9-3.73,6.91-10C471,761,475.59,742.18,489,726.15c4.08-4.89,9.82-8.44,15-12.34,2.45-1.84,4.79-.24,6.72,1.45,13,11.26,28.37,19,42,29.44,5.11,3.91,8.75,8.58,9.29,14.47,2.18,23.66,1.85,46.64-17.44,64.91-10.75,10.19-22.64,13.25-35.88,7.88-6.8-2.76-9.62-1.22-14.47,3.76a379.48,379.48,0,0,0-28.61,33.09c-12.06,15.63-18.51,33.54-22.95,52.42-.93,11.55-2.12,23.09-1.67,34.72a649.74,649.74,0,0,0,5.6,65.79c.72,5.12,6,9.11,2.81,16.63-10.8-19.78-15.74-39.88-19.15-60.86C426.75,956.2,425.19,935.05,427.58,913.61ZM515.45,764c-.14,7.43,1.38,12.73,4.84,17.38,6.14,8.27,15.06,8.55,20.5-.22,3.49-5.62,5.87-12.17,4.75-19.37-1.68-10.82-8.56-18.88-16.37-18.67s-12.48,6.63-13.59,18.81A19.89,19.89,0,0,0,515.45,764Z"/><path class="cls-29" d="M926.4,897.81c-10.47-27.38-29.23-48.69-50.17-68.38-1.57-1.48-3.66-2.45-5-4.06-6.51-7.61-12.6-11.73-23.54-5.69-9.36,5.16-19.88,2.59-28.75-4.53-12.11-9.72-20.49-21.77-23.18-37.13-1-5.76-3.56-11-3.69-17.16-.33-15.73,7.23-26.1,19.42-34.58,8.41-5.86,16.67-11.94,24.14-19.11s13.38-7.13,21.25-.31c12.47,10.78,20.25,24.44,22.4,40.85.92,7,3.89,13.78,2.36,21.1-.87,4.17,2.23,4,5.12,4.56,12.48,2.43,25,4.94,37.34,7.81,11.27,2.61,38.19,23.93,41.8,33.62-8-3.54-14.5-8.21-21-12-19.69-11.49-40.46-7-61-6.82-4.32,0-4.62,2.24-1.84,5.23q6.94,7.51,13.8,15.11c19.73,21.71,34.85,46.07,42.89,74.51,5.68,20.11,3.41,40.22,2.21,60.75-1.12,19.27-6.31,37.47-8.91,56.26-.37,2.66-.47,6.16-4.59,7.09,4-19.91,7-39.77,6.14-59.4C932.75,936.3,934,916.39,926.4,897.81ZM838.23,758.49c.87-8.35-.44-15-4.79-20.65-5.26-6.88-13.93-6.94-19.69-.33-7.68,8.81-7.17,25.63,1,34.33,7.41,7.84,19.89,5,22.92-5.46C838.55,763.5,838.14,760.26,838.23,758.49Z"/><path class="cls-30" d="M684.13,952.09c-4.88,10.5-14.61,14-23.16,19.41C639.6,985,618.54,979.1,599.26,969c-15.32-8-22.53-23.69-22.47-41.61,0-5.57,2.18-10.14,8.64-9.87,5.84.25,7.6,4.34,7.56,9.75a34.32,34.32,0,0,0,8.12,22.4c4.46,5.48,10.06,8.41,17.22,9.84,13.19,2.63,25.61,5.35,38.63-2.16,13.57-7.83,23.34-27.26,19.55-42.57-1.11-4.46-4.84-4-7.33-4.13-15.92-1.07-28.45-8.49-40-19-7.52-6.82-12-14.47-10.25-24.37,1.57-9,8-14.72,16.71-16.93,24.26-6.2,48.77-9.68,73.84-5.22,7.61,1.35,15.34,1.83,22.1,6.35,11.28,7.53,14.2,18.47,6.12,29.19-10.61,14-23.31,25.82-41.52,29.42-4.13.81-6.87,1.34-4.42,7.05,1.74,4,.38,9.31,1.4,13.8,3.73,16.38,15.18,24.88,37.29,27.22a65.52,65.52,0,0,0,20.45-.78c15.51-3.34,25.35-17,25.05-33.79-.11-6.12-.1-12,7.87-11.93S792.24,918.3,792,924c-1.19,24.17-16.51,43.61-42.84,48.8-18.21,3.59-33.64-1.6-49.63-6.92C693.06,963.69,689.3,957.06,684.13,952.09Zm-5-91.55v.77q-10.74,0-21.48,0a5.18,5.18,0,0,0-4.57,2.63c-.62,1.06.37,2.12,1.35,3.08,10,9.84,38.43,8.48,47.52-2.41.73-.87,1.59-2.21,1.42-3.16-.31-1.83-2.17-2-3.72-1.92C692.82,859.82,686,860.2,679.15,860.54Z"/><path class="cls-29" d="M401.9,842.83c-.67,1.34-2.11,1.95-3,1-1.22-1.35.9-1.67,1.45-2.53Z"/><path class="cls-31" d="M515.45,764a19.89,19.89,0,0,1,.13-2.07c1.11-12.18,5.75-18.59,13.59-18.81s14.69,7.85,16.37,18.67c1.12,7.2-1.26,13.75-4.75,19.37-5.44,8.77-14.36,8.49-20.5.22C516.83,776.68,515.31,771.38,515.45,764Z"/><path class="cls-31" d="M838.23,758.49c-.09,1.77.32,5-.51,7.89-3,10.44-15.51,13.3-22.92,5.46-8.22-8.7-8.73-25.52-1-34.33,5.76-6.61,14.43-6.55,19.69.33C837.79,743.53,839.1,750.14,838.23,758.49Z"/><path class="cls-32" d="M679.15,860.54c6.84-.34,13.67-.72,20.52-1,1.55-.07,3.41.09,3.72,1.92.17.95-.69,2.29-1.42,3.16-9.09,10.89-37.54,12.25-47.52,2.41-1-1-2-2-1.35-3.08a5.18,5.18,0,0,1,4.57-2.63q10.74,0,21.48,0Z"/></svg>